<?xml version="1.0" encoding="UTF-8"?>
<svg id="katman_1" data-name="katman 1" xmlns="http://www.w3.org/2000/svg" viewBox="0 0 1080 1080">
  <defs>
    <style>
      .cls-1 {
        fill: #fff;
      }
    </style>
  </defs>
  <path class="cls-1" d="M579.17,625.5c25.59,0,46.33-20.74,46.33-46.33v-55.75l-103.81,102.08h57.48Z"/>
  <path class="cls-1" d="M487.42,530.38l32.41-33.45c2.94-.77,18.28,11.97,19.32,10.77v-53.2h-3.97l-80.68,80.67v14.27h99.17l-33.12,34.33-18.61-11.64v53.38h3.78l95.14-95.12h-113.44Z"/>
  <path class="cls-1" d="M579.17,454.5h-27.31v63.18h73.64v-16.85c0-25.59-20.74-46.33-46.33-46.33Z"/>
  <path class="cls-1" d="M454.5,579.17c0,21.58,14.77,39.66,34.74,44.81v-61.84h-34.74v17.03Z"/>
  <path class="cls-1" d="M500.83,454.5c-25.59,0-46.33,20.74-46.33,46.33v18.49l64.2-64.82h-17.86Z"/>
</svg>