<?xml version="1.0" encoding="UTF-8"?>
<svg id="katman_1" data-name="katman 1" xmlns="http://www.w3.org/2000/svg" xmlns:xlink="http://www.w3.org/1999/xlink" viewBox="0 0 1080 1080">
  <defs>
    <style>
      .cls-1 {
        fill: url(#Adsız_degrade_3044-8);
      }

      .cls-2 {
        fill: url(#Adsız_degrade_3044-6);
      }

      .cls-3 {
        fill: url(#Adsız_degrade_3044-15);
      }

      .cls-4 {
        fill: url(#Adsız_degrade_3044-9);
      }

      .cls-5 {
        fill: url(#Adsız_degrade_3044-10);
      }

      .cls-6 {
        fill: url(#Adsız_degrade_3044-7);
      }

      .cls-7 {
        fill: url(#Adsız_degrade_3044-14);
      }

      .cls-8 {
        fill: url(#Adsız_degrade_3044-13);
      }

      .cls-9 {
        fill: url(#Adsız_degrade_3044-3);
      }

      .cls-10 {
        fill: url(#Adsız_degrade_3044-11);
      }

      .cls-11 {
        fill: url(#Adsız_degrade_3044-2);
      }

      .cls-12 {
        fill: url(#Adsız_degrade_3044-5);
      }

      .cls-13 {
        fill: url(#Adsız_degrade_3044-16);
      }

      .cls-14 {
        fill: url(#Adsız_degrade_3044);
      }

      .cls-15 {
        fill: url(#Adsız_degrade_3044-4);
      }

      .cls-16 {
        fill: url(#Adsız_degrade_3044-12);
      }
    </style>
    <linearGradient id="Adsız_degrade_3044" data-name="Adsız degrade 3044" x1="363.17" y1="442.31" x2="438.38" y2="624" gradientUnits="userSpaceOnUse">
      <stop offset="0" stop-color="#1d00df"/>
      <stop offset=".58" stop-color="#000"/>
      <stop offset="1" stop-color="#9f0035"/>
    </linearGradient>
    <linearGradient id="Adsız_degrade_3044-2" data-name="Adsız degrade 3044" x1="336.18" y1="453.49" x2="411.39" y2="635.17" xlink:href="#Adsız_degrade_3044"/>
    <linearGradient id="Adsız_degrade_3044-3" data-name="Adsız degrade 3044" x1="400.72" y1="426.77" x2="475.93" y2="608.46" xlink:href="#Adsız_degrade_3044"/>
    <linearGradient id="Adsız_degrade_3044-4" data-name="Adsız degrade 3044" x1="276.04" y1="478.38" x2="351.25" y2="660.07" xlink:href="#Adsız_degrade_3044"/>
    <linearGradient id="Adsız_degrade_3044-5" data-name="Adsız degrade 3044" x1="319.84" y1="460.25" x2="395.05" y2="641.94" xlink:href="#Adsız_degrade_3044"/>
    <linearGradient id="Adsız_degrade_3044-6" data-name="Adsız degrade 3044" x1="508.97" y1="580.83" x2="537.05" y2="467.98" xlink:href="#Adsız_degrade_3044"/>
    <linearGradient id="Adsız_degrade_3044-7" data-name="Adsız degrade 3044" x1="531.03" y1="579.19" x2="756.22" y2="425.24" xlink:href="#Adsız_degrade_3044"/>
    <linearGradient id="Adsız_degrade_3044-8" data-name="Adsız degrade 3044" x1="543.89" y1="598.01" x2="769.08" y2="444.05" xlink:href="#Adsız_degrade_3044"/>
    <linearGradient id="Adsız_degrade_3044-9" data-name="Adsız degrade 3044" x1="549.03" y1="605.53" x2="774.22" y2="451.57" xlink:href="#Adsız_degrade_3044"/>
    <linearGradient id="Adsız_degrade_3044-10" data-name="Adsız degrade 3044" x1="560.92" y1="622.92" x2="786.11" y2="468.96" xlink:href="#Adsız_degrade_3044"/>
    <linearGradient id="Adsız_degrade_3044-11" data-name="Adsız degrade 3044" x1="565.53" y1="629.65" x2="790.72" y2="475.7" xlink:href="#Adsız_degrade_3044"/>
    <linearGradient id="Adsız_degrade_3044-12" data-name="Adsız degrade 3044" x1="571.93" y1="639.02" x2="797.12" y2="485.07" xlink:href="#Adsız_degrade_3044"/>
    <linearGradient id="Adsız_degrade_3044-13" data-name="Adsız degrade 3044" x1="590.79" y1="666.6" x2="815.98" y2="512.65" xlink:href="#Adsız_degrade_3044"/>
    <linearGradient id="Adsız_degrade_3044-14" data-name="Adsız degrade 3044" x1="600.95" y1="681.46" x2="826.14" y2="527.5" xlink:href="#Adsız_degrade_3044"/>
    <linearGradient id="Adsız_degrade_3044-15" data-name="Adsız degrade 3044" x1="529.97" y1="577.64" x2="755.16" y2="423.69" xlink:href="#Adsız_degrade_3044"/>
    <linearGradient id="Adsız_degrade_3044-16" data-name="Adsız degrade 3044" x1="546.99" y1="602.55" x2="772.18" y2="448.59" xlink:href="#Adsız_degrade_3044"/>
  </defs>
  <g>
    <path class="cls-14" d="M423.44,625.5c25.59,0,46.33-20.74,46.33-46.33v-55.75l-103.81,102.08h57.48Z"/>
    <path class="cls-11" d="M331.7,530.38l32.41-33.45c2.94-.77,18.28,11.97,19.32,10.77v-53.2h-3.97l-80.68,80.67v14.27h99.17l-33.12,34.33-18.61-11.64v53.38h3.78l95.14-95.12h-113.44Z"/>
    <path class="cls-9" d="M423.44,454.5h-27.31v63.18h73.64v-16.85c0-25.59-20.74-46.33-46.33-46.33Z"/>
    <path class="cls-15" d="M298.78,579.17c0,21.58,14.77,39.66,34.74,44.81v-61.84h-34.74v17.03Z"/>
    <path class="cls-12" d="M345.11,454.5c-25.59,0-46.33,20.74-46.33,46.33v18.49l64.2-64.82h-17.86Z"/>
  </g>
  <rect class="cls-2" x="517.39" y="493.69" width="3.26" height="93.45"/>
  <g>
    <path class="cls-6" d="M603.7,540.77c-1.94-1.41-4.68-2.52-8.24-3.33l-7.38-1.68c-4.97-1.15-8.16-2.1-9.57-2.87-2.15-1.19-3.23-3.08-3.23-5.66,0-2.34.92-4.4,2.76-6.16,1.84-1.77,4.86-2.65,9.07-2.65,5.21,0,8.9,1.37,11.07,4.12,1.17,1.51,1.94,3.67,2.29,6.49h6.7c0-5.85-1.93-10.11-5.79-12.78s-8.55-4-14.07-4c-6,0-10.63,1.52-13.9,4.55-3.27,3.03-4.91,6.92-4.91,11.65,0,4.37,1.67,7.66,5.02,9.86,1.94,1.27,5.23,2.42,9.89,3.48l7.13,1.61c3.87.88,6.71,1.92,8.53,3.12,1.79,1.22,2.69,3.26,2.69,6.13,0,3.82-2.13,6.47-6.38,7.96-2.2.76-4.63,1.15-7.31,1.15-5.97,0-10.14-1.74-12.51-5.23-1.24-1.86-1.95-4.29-2.11-7.27h-6.7c-.07,5.69,1.74,10.19,5.45,13.51,3.7,3.34,8.83,5.02,15.37,5.02,5.61,0,10.54-1.25,14.78-3.76,4.24-2.51,6.36-6.68,6.36-12.51,0-4.68-1.67-8.25-5.02-10.72Z"/>
    <rect class="cls-1" x="615.06" y="528.01" width="6.56" height="38.2"/>
    <path class="cls-4" d="M647.88,526.9c-3.11,0-5.7.68-7.78,2.04-1.22.79-2.59,2.15-4.12,4.09v-19.64h-6.45v52.82h6.45v-20.36c0-5.11,1.09-8.59,3.26-10.43,2.17-1.84,4.6-2.76,7.27-2.76,3.23,0,5.42,1.05,6.59,3.15.72,1.31,1.08,3.38,1.08,6.2v24.19h6.63v-24.62c0-3.77-.54-6.73-1.61-8.85-1.98-3.89-5.76-5.84-11.32-5.84Z"/>
    <rect class="cls-5" x="668.51" y="528.01" width="6.56" height="38.2"/>
    <path class="cls-10" d="M699.75,526.97c-2.56,0-4.81.93-6.77,2.78-1.96,1.85-3.19,3.42-3.69,4.71v-6.63h-6.13v38.38h6.45v-22.08c0-2.72.87-5.13,2.62-7.22,1.74-2.09,4.24-3.14,7.49-3.14.38,0,.73.01,1.06.04.32.02.67.07,1.06.14v-6.81c-.69-.07-1.18-.12-1.47-.14-.29-.02-.49-.04-.61-.04Z"/>
    <path class="cls-16" d="M722.79,526.83c-2.29,0-4.42.48-6.38,1.45-1.96.97-3.64,2.37-5.05,4.21v-19.1h-6.27v52.82h5.95v-4.91c1.36,1.84,2.64,3.18,3.83,4.01,2.01,1.41,4.47,2.11,7.38,2.11,5.21,0,9.28-2.01,12.22-6.02,2.94-4.01,4.41-9.05,4.41-15.12,0-6.4-1.49-11.25-4.46-14.53-2.97-3.29-6.85-4.93-11.63-4.93ZM729.69,557.58c-1.73,2.77-4.34,4.16-7.83,4.16-4.63,0-7.8-2.11-9.5-6.34-.91-2.25-1.36-5.17-1.36-8.78,0-4.99,1.1-8.58,3.31-10.75,2.21-2.17,4.78-3.26,7.72-3.26,3.37,0,5.92,1.33,7.65,3.98,1.73,2.65,2.6,6,2.6,10.03,0,4.54-.87,8.19-2.6,10.97Z"/>
    <path class="cls-8" d="M776.97,561.84c-.88,0-1.46-.2-1.74-.61-.27-.41-.41-.94-.41-1.61v-22.11c0-3.63-1.4-6.31-4.19-8.03-2.82-1.72-6.49-2.58-11-2.58-3.89,0-7.32.93-10.27,2.78-2.95,1.85-4.49,5.14-4.61,9.87h6.02c.24-1.98.75-3.48,1.54-4.48,1.41-1.82,3.8-2.72,7.17-2.72,2.91,0,5.15.5,6.72,1.49,1.56.99,2.35,2.59,2.35,4.78,0,1.08-.14,1.9-.43,2.47-.5,1.05-1.49,1.67-2.97,1.86l-10.29,1.29c-3.61.45-6.52,1.66-8.74,3.62-2.22,1.96-3.33,4.72-3.33,8.28,0,3.25,1.13,5.95,3.39,8.12,2.26,2.16,5.17,3.24,8.73,3.24,2.96,0,5.67-.63,8.14-1.9,2.46-1.27,4.35-2.76,5.66-4.48.22,1.53.59,2.71,1.11,3.55,1,1.58,2.62,2.37,4.84,2.37.91,0,1.62-.04,2.15-.11.53-.07,1.29-.25,2.29-.54v-4.77c-.41.07-.79.13-1.15.16-.36.04-.68.05-.97.05ZM768.37,551.88c0,3.97-1.79,6.82-5.38,8.57-2.13,1.05-4.32,1.58-6.59,1.58-1.86,0-3.48-.54-4.84-1.61s-2.04-2.54-2.04-4.41c0-2.46.99-4.25,2.97-5.38,1.17-.67,2.93-1.16,5.27-1.47l3.91-.5c1.19-.14,2.41-.38,3.66-.72,1.24-.33,2.26-.75,3.05-1.25v5.2Z"/>
    <polygon class="cls-7" points="789.5 560.45 812.12 533.1 812.12 527.83 782.37 527.83 782.37 533.6 803.45 533.6 780.69 561.13 780.69 566.21 812.8 566.21 812.8 560.45 789.5 560.45"/>
    <path class="cls-3" d="M624.63,517.09c-4.28-.89-5.23-1.85-6.04-6.15-.04-.21-.34-.22-.39,0-.89,4.28-1.85,5.23-6.15,6.04-.21.04-.22.34,0,.39,4.28.89,5.23,1.85,6.04,6.15.04.21.34.22.39,0,.89-4.28,1.85-5.23,6.15-6.04.21-.04.22-.34,0-.39Z"/>
    <path class="cls-13" d="M678.08,517.09c-4.28-.89-5.23-1.85-6.04-6.15-.04-.21-.34-.22-.39,0-.89,4.28-1.85,5.23-6.15,6.04-.21.04-.22.34,0,.39,4.28.89,5.23,1.85,6.04,6.15.04.21.34.22.39,0,.89-4.28,1.85-5.23,6.15-6.04.21-.04.22-.34,0-.39Z"/>
  </g>
</svg>