<?xml version="1.0" encoding="UTF-8"?>
<svg id="katman_1" data-name="katman 1" xmlns="http://www.w3.org/2000/svg" viewBox="0 0 450.66 361.21">
  <defs>
    <style>
      .cls-1 {
        fill: #fff;
      }
    </style>
  </defs>
  <path class="cls-1" d="M357.96,123.84l-13.75-25.24c-2.3-4.22-7.94-5.19-11.51-1.97l-126.1,113.38c-6.17,5.55-15.42-1.63-11.58-8.98l56.89-108.89c2.76-5.28,10.29-5.34,13.14-.11l9.23,16.95c2.31,4.23,7.96,5.19,11.54,1.96l21.73-19.69c2.53-2.29,3.18-6.01,1.57-9.02l-37.09-69.46c-4.73-8.86-17.42-8.88-22.19-.04L85.24,318.24c-8.98,16.66,3.09,36.86,22.01,36.86h0c1.84,0,3.62-.68,4.98-1.91l197.89-178.38.02.04,46.27-41.92c2.55-2.31,3.18-6.06,1.54-9.08Z"/>
  <path class="cls-1" d="M356.71,171.36c-2.02-3.78-7.06-4.66-10.24-1.78l-22.39,20.29c-2.26,2.04-2.82,5.36-1.36,8.04l83.75,153.76c1.15,2.12,3.37,3.44,5.79,3.44h31.58c4.98,0,8.16-5.31,5.81-9.7l-92.94-174.05Z"/>
  <path class="cls-1" d="M359.99,82.83l54.6-49.13c1.39-1.25,2.18-3.03,2.18-4.9v-7.67l-56.69,51.28c-2.24,2.03-2.82,5.32-1.39,7.99l1.3,2.44Z"/>
  <path class="cls-1" d="M375.35,111.6l1.77,3.31,37.5-34.05c1.38-1.25,2.16-3.02,2.16-4.88v-8.49l-40.03,36.11c-2.25,2.03-2.83,5.33-1.4,8Z"/>
  <path class="cls-1" d="M416.77,43.79l-48.56,43.82c-2.25,2.03-2.82,5.33-1.4,8l1.71,3.2,46.07-41.45c1.39-1.25,2.18-3.03,2.18-4.9v-8.67Z"/>
</svg>