<?xml version="1.0" encoding="UTF-8"?>
<svg id="katman_1" data-name="katman 1" xmlns="http://www.w3.org/2000/svg" xmlns:xlink="http://www.w3.org/1999/xlink" viewBox="0 0 364.9 339.06">
  <defs>
    <style>
      .cls-1 {
        fill: url(#Adsız_degrade_82);
      }

      .cls-2 {
        fill: url(#Adsız_degrade_89-2);
      }

      .cls-3 {
        fill: url(#Adsız_degrade_89);
      }

      .cls-4 {
        fill: url(#Adsız_degrade_89-3);
      }

      .cls-5 {
        fill: url(#Adsız_degrade_82-2);
      }
    </style>
    <linearGradient id="Adsız_degrade_89" data-name="Adsız degrade 89" x1="262.6" y1="132.18" x2="303.9" y2="36.19" gradientUnits="userSpaceOnUse">
      <stop offset="0" stop-color="#000"/>
      <stop offset="1" stop-color="#e42320"/>
    </linearGradient>
    <linearGradient id="Adsız_degrade_89-2" data-name="Adsız degrade 89" x1="283.66" y1="141.24" x2="324.96" y2="45.25" xlink:href="#Adsız_degrade_89"/>
    <linearGradient id="Adsız_degrade_89-3" data-name="Adsız degrade 89" x1="272.99" y1="136.65" x2="314.29" y2="40.66" xlink:href="#Adsız_degrade_89"/>
    <linearGradient id="Adsız_degrade_82" data-name="Adsız degrade 82" x1="-113.28" y1="-10.97" x2="411.29" y2="433.39" gradientUnits="userSpaceOnUse">
      <stop offset="0" stop-color="#28316f"/>
      <stop offset=".35" stop-color="#27306c"/>
      <stop offset=".54" stop-color="#262e64"/>
      <stop offset=".68" stop-color="#242b57"/>
      <stop offset=".8" stop-color="#222744"/>
      <stop offset=".91" stop-color="#1f212c"/>
      <stop offset=".96" stop-color="#1d1e1c"/>
    </linearGradient>
    <linearGradient id="Adsız_degrade_82-2" data-name="Adsız degrade 82" x1="-73.62" y1="-67.38" x2="460.37" y2="384.97" xlink:href="#Adsız_degrade_82"/>
  </defs>
  <g>
    <path class="cls-3" d="M275.36,58.91c-2.22,2.01-2.79,5.28-1.38,7.92l1.29,2.41,54.11-48.69c1.38-1.24,2.16-3,2.16-4.86v-7.61l-56.18,50.82Z"/>
    <path class="cls-2" d="M290.49,97.75l1.75,3.28,37.16-33.74c1.36-1.24,2.14-2.99,2.14-4.84v-8.41l-39.66,35.79c-2.23,2.01-2.8,5.28-1.39,7.93Z"/>
    <path class="cls-4" d="M282.03,81.91l1.7,3.17,45.65-41.08c1.38-1.24,2.16-3,2.16-4.86v-8.59l-48.13,43.42c-2.23,2.01-2.8,5.28-1.39,7.93Z"/>
  </g>
  <g>
    <path class="cls-1" d="M270.97,105.68l-7.65-14.04c-4.16-7.63-14.35-9.38-20.82-3.57l-94.17,84.67c-11.15,10.03-27.87-2.95-20.93-16.24l35.48-67.92c4.99-9.54,18.6-9.66,23.75-.21h0c4.17,7.65,14.4,9.39,20.86,3.54l12.29-11.14c4.57-4.14,5.74-10.87,2.84-16.31l-29.18-54.65c-6.97-13.06-25.68-13.09-32.71-.06L3,302.53c-8.18,15.18,1.28,33.34,17.44,36.16,4.05.71,8.2-.52,11.25-3.27l194.17-175.02.02.04,42.3-38.33c4.6-4.17,5.75-10.96,2.78-16.41Z"/>
    <path class="cls-5" d="M272.02,156.98c-2-3.75-7-4.62-10.15-1.76l-22.19,20.11c-2.23,2.02-2.79,5.32-1.35,7.96l83,152.37c1.14,2.1,3.34,3.41,5.74,3.41h31.3c4.93,0,8.08-5.26,5.76-9.61l-92.1-172.48Z"/>
  </g>
</svg>