<?xml version="1.0" encoding="UTF-8"?>
<svg id="katman_1" data-name="katman 1" xmlns="http://www.w3.org/2000/svg" viewBox="0 0 1332.77 181.79">
  <defs>
    <style>
      .cls-1 {
        fill: #fff;
      }
    </style>
  </defs>
  <g>
    <path class="cls-1" d="M134.18,64.04l-6.5-11.94c-1.09-2-3.76-2.45-5.45-.93l-59.65,53.63c-2.92,2.62-7.29-.77-5.48-4.25l26.91-51.51c1.3-2.5,4.87-2.53,6.21-.05l4.37,8.02c1.09,2,3.77,2.46,5.46.92l10.28-9.31c1.2-1.08,1.5-2.84.74-4.27l-17.55-32.86c-2.24-4.19-8.24-4.2-10.49-.02L5.18,156c-4.25,7.88,1.46,17.44,10.41,17.44h0c.87,0,1.71-.32,2.36-.91l93.61-84.38v.02s21.89-19.83,21.89-19.83c1.2-1.09,1.51-2.87.73-4.29Z"/>
    <path class="cls-1" d="M133.59,86.52c-.96-1.79-3.34-2.2-4.84-.84l-10.59,9.6c-1.07.97-1.33,2.54-.64,3.8l39.62,72.73c.55,1,1.6,1.63,2.74,1.63h14.94c2.35,0,3.86-2.51,2.75-4.59l-43.96-82.33Z"/>
    <path class="cls-1" d="M135.14,44.64l25.83-23.24c.66-.59,1.03-1.43,1.03-2.32v-3.63l-26.82,24.26c-1.06.96-1.33,2.52-.66,3.78l.62,1.15Z"/>
    <path class="cls-1" d="M142.41,58.25l.84,1.57,17.74-16.11c.65-.59,1.02-1.43,1.02-2.31v-4.02l-18.93,17.08c-1.06.96-1.34,2.52-.66,3.78Z"/>
    <path class="cls-1" d="M162,26.18l-22.97,20.73c-1.06.96-1.34,2.52-.66,3.78l.81,1.52,21.79-19.61c.66-.59,1.03-1.43,1.03-2.32v-4.1Z"/>
  </g>
  <path class="cls-1" d="M478.14,9.47h-14.46c-2.88,0-5.22,2.34-5.22,5.22v153.52c0,2.88,2.34,5.22,5.22,5.22h102.67c2.88,0,5.22-2.34,5.22-5.22v-13.11c0-2.88-2.34-5.22-5.22-5.22h-77.77c-2.88,0-5.22-2.34-5.22-5.22V14.69c0-2.88-2.34-5.22-5.22-5.22Z"/>
  <rect class="cls-1" x="860.79" y="50.94" width="26.68" height="122.49" rx="5.56" ry="5.56"/>
  <rect class="cls-1" x="860.79" y="8.35" width="26.68" height="27.35" rx="5.56" ry="5.56"/>
  <path class="cls-1" d="M1304.06,11.71l-49.47,74.11c-2,3-6.41,3-8.41,0l-49.47-74.11c-.94-1.4-2.51-2.25-4.2-2.25h-15.7c-2.79,0-5.05,2.26-5.05,5.05v153.86c0,2.79,2.26,5.05,5.05,5.05h14.35c2.79,0,5.05-2.26,5.05-5.05v-97.23c0-4.97,6.43-6.96,9.23-2.85l42.37,62.14h4.72l42.35-62.29c2.8-4.12,9.23-2.13,9.23,2.84v97.39c0,2.79,2.26,5.05,5.05,5.05h14.8c2.79,0,5.05-2.26,5.05-5.05V14.52c0-2.79-2.26-5.05-5.05-5.05h-15.7c-1.69,0-3.27.84-4.2,2.25Z"/>
</svg>