<?xml version="1.0" encoding="UTF-8"?>
<svg id="katman_1" data-name="katman 1" xmlns="http://www.w3.org/2000/svg" viewBox="0 0 1080 1272.51">
  <defs>
    <style>
      .cls-1, .cls-2 {
        fill: #fff;
      }

      .cls-2 {
        fill-rule: evenodd;
      }
    </style>
  </defs>
  <path class="cls-1" d="M539.8,1227.86h-.13c-133.42-3.61-250.4-51.4-338.31-138.21-86.19-85.12-139.28-202.22-153.51-338.64l-.04-.53-1.64-53.93-.08-672.78h987.78l-.49,672.35-1.62,54.85c-13.68,132.59-68.26,252.7-153.71,338.2-89.56,89.62-206.48,137.58-338.14,138.69h-.13ZM62.15,749.78c28.75,274.6,216.26,456.59,477.78,463.73,253.16-2.2,449.5-192.86,477.55-463.75l1.58-53.86.47-657.79H60.46l.07,658.22,1.62,53.45Z"/>
  <path class="cls-1" d="M539.72,1065.62h-.14c-89.67-2.65-168.29-37.68-227.35-101.31-57.75-62.21-93.3-147.73-102.83-247.31l-.03-.48-1.09-39.22-.04-51.4-.02-439.89h663.29l.23,439.43-.56,51.58-1.08,39.96c-9.16,96.79-45.72,184.5-102.95,246.98-60.18,65.7-138.78,100.85-227.31,101.66h-.14ZM223.71,715.88c19.09,198.59,143.15,330.22,316.16,335.4,167.45-1.61,297.32-139.51,315.95-335.41l1.04-39.12.56-51.39-.23-425.01H222.58l.02,425.54.03,51.2,1.08,38.79Z"/>
  <path class="cls-1" d="M860.5,725.27l1.54-529.57H218.15s1.25,529.39,1.25,529.39l-168.56-36.77-.1-659.94,978.51.03-.33,659.87-168.43,36.97ZM876.43,181.36l-1.53,526.06,139.69-30.67.31-633.99-949.81-.03.1,634.04,139.83,30.5-1.25-525.91h672.65Z"/>
  <path class="cls-2" d="M479.88,82.38c-24.18-26.47-62.13-34.39-29.26,11.9-30.7-31.39-57.96-20.61-43.46-5.77,8.11,8.3,15.65,16.59,15.65,16.59,0,0-7.54-3.97-24.92-3.97s-31.87,4.33-31.87,11.9,14.49,11.9,31.87,11.9,24.92-3.97,24.92-3.97c0,0-7.54,8.3-15.65,16.59-14.5,14.84,12.75,25.62,43.46-5.77-32.88,46.29,5.08,39.81,29.26,13.35,9.56-10.46,22.59-27.42,22.59-32.11s-13.04-20.2-22.59-30.67ZM474.66,129.28c-5.08,7.12-13.16,16.56-14.48,15.15-2.76-2.94,15.35-26.34,15.35-26.34l-30.13-.72c-10.72,14.43-20.57,23.08-22.59,20.92-2.03-2.16,13.03-22,13.03-22-35.05.72-44.31,0-44.31-2.52s9.26-3.25,44.31-2.53c0,0-15.06-19.84-13.03-22,2.03-2.16,12.45,8.3,23.17,22.72l30.12.37s-17.81-25.56-15.06-28.5c1.31-1.41,9.4,6.58,14.48,13.71,2.97,4.16,11.3,16.24,11.3,16.24,0,0-9.19,11.35-12.17,15.51Z"/>
  <path class="cls-2" d="M217.39,82.38c-24.18-26.47-62.13-34.39-29.26,11.9-30.7-31.39-57.95-20.61-43.45-5.77,8.12,8.3,15.65,16.59,15.65,16.59,0,0-7.53-3.97-24.91-3.97s-31.87,4.33-31.87,11.9,14.5,11.9,31.87,11.9,24.91-3.97,24.91-3.97c0,0-7.53,8.3-15.65,16.59-14.5,14.84,12.76,25.62,43.45-5.77-32.87,46.29,5.08,39.81,29.26,13.35,9.55-10.46,22.59-27.42,22.59-32.11s-13.04-20.2-22.59-30.67ZM212.18,129.28c-5.08,7.12-13.16,16.56-14.48,15.15-2.76-2.94,15.36-26.34,15.36-26.34l-30.13-.72c-10.71,14.43-20.56,23.08-22.59,20.92-2.03-2.16,13.03-22,13.03-22-35.05.72-44.31,0-44.31-2.52s9.26-3.25,44.31-2.53c0,0-15.06-19.84-13.03-22,2.03-2.16,12.46,8.3,23.18,22.72l30.12.37s-17.81-25.56-15.06-28.5c1.31-1.41,9.4,6.58,14.48,13.71,2.97,4.16,11.29,16.24,11.29,16.24,0,0-9.18,11.35-12.16,15.51Z"/>
  <path class="cls-2" d="M348.63,82.38c-24.18-26.47-62.13-34.39-29.26,11.9-30.7-31.39-57.96-20.61-43.46-5.77,8.12,8.3,15.65,16.59,15.65,16.59,0,0-7.53-3.97-24.91-3.97s-31.87,4.33-31.87,11.9,14.5,11.9,31.87,11.9,24.91-3.97,24.91-3.97c0,0-7.53,8.3-15.65,16.59-14.5,14.84,12.76,25.62,43.46-5.77-32.88,46.29,5.08,39.81,29.26,13.35,9.56-10.46,22.59-27.42,22.59-32.11s-13.04-20.2-22.59-30.67ZM343.42,129.28c-5.08,7.12-13.16,16.56-14.48,15.15-2.76-2.94,15.35-26.34,15.35-26.34l-30.13-.72c-10.72,14.43-20.57,23.08-22.59,20.92-2.03-2.16,13.03-22,13.03-22-35.05.72-44.31,0-44.31-2.52s9.26-3.25,44.31-2.53c0,0-15.06-19.84-13.03-22,2.03-2.16,12.45,8.3,23.18,22.72l30.12.37s-17.81-25.56-15.06-28.5c1.31-1.41,9.4,6.58,14.48,13.71,2.97,4.16,11.29,16.24,11.29,16.24,0,0-9.19,11.35-12.17,15.51Z"/>
  <path class="cls-2" d="M681.46,101.14c-17.38,0-24.92,3.97-24.92,3.97,0,0,7.54-8.3,15.65-16.59,14.5-14.85-12.75-25.62-43.46,5.77,32.88-46.29-5.08-38.37-29.26-11.9-9.56,10.46-22.59,25.97-22.59,30.67s13.04,21.65,22.59,32.11c24.18,26.46,62.13,32.94,29.26-13.35,30.7,31.38,57.96,20.61,43.46,5.77-8.11-8.29-15.65-16.59-15.65-16.59,0,0,7.54,3.97,24.92,3.97s31.87-4.33,31.87-11.9-14.49-11.9-31.87-11.9ZM643.52,116.29s15.06,19.84,13.03,22c-2.03,2.16-11.87-6.49-22.59-20.92l-30.13.72s18.11,23.4,15.35,26.34c-1.32,1.41-9.4-8.03-14.48-15.15-2.98-4.16-12.17-15.51-12.17-15.51,0,0,8.33-12.08,11.3-16.24,5.08-7.13,13.17-15.12,14.48-13.71,2.75,2.94-15.06,28.5-15.06,28.5l30.12-.37c10.72-14.43,21.15-24.89,23.17-22.72,2.03,2.17-13.03,22-13.03,22,35.05-.72,44.31,0,44.31,2.53s-9.26,3.24-44.31,2.52Z"/>
  <path class="cls-2" d="M943.94,101.14c-17.38,0-24.91,3.97-24.91,3.97,0,0,7.53-8.3,15.65-16.59,14.5-14.85-12.76-25.62-43.45,5.77,32.87-46.29-5.08-38.37-29.26-11.9-9.55,10.46-22.59,25.97-22.59,30.67s13.04,21.65,22.59,32.11c24.18,26.46,62.13,32.94,29.26-13.35,30.7,31.38,57.95,20.61,43.45,5.77-8.12-8.29-15.65-16.59-15.65-16.59,0,0,7.53,3.97,24.91,3.97s31.87-4.33,31.87-11.9-14.49-11.9-31.87-11.9ZM906,116.29s15.06,19.84,13.03,22c-2.03,2.16-11.88-6.49-22.59-20.92l-30.13.72s18.11,23.4,15.36,26.34c-1.32,1.41-9.4-8.03-14.48-15.15-2.98-4.16-12.16-15.51-12.16-15.51,0,0,8.32-12.08,11.29-16.24,5.08-7.13,13.17-15.12,14.48-13.71,2.75,2.94-15.06,28.5-15.06,28.5l30.12-.37c10.72-14.43,21.15-24.89,23.18-22.72,2.03,2.17-13.03,22-13.03,22,35.05-.72,44.31,0,44.31,2.53s-9.26,3.24-44.31,2.52Z"/>
  <path class="cls-2" d="M812.71,101.14c-17.38,0-24.91,3.97-24.91,3.97,0,0,7.53-8.3,15.65-16.59,14.5-14.85-12.76-25.62-43.46,5.77,32.88-46.29-5.08-38.37-29.26-11.9-9.56,10.46-22.59,25.97-22.59,30.67s13.04,21.65,22.59,32.11c24.18,26.46,62.13,32.94,29.26-13.35,30.7,31.38,57.96,20.61,43.46,5.77-8.12-8.29-15.65-16.59-15.65-16.59,0,0,7.53,3.97,24.91,3.97s31.87-4.33,31.87-11.9-14.49-11.9-31.87-11.9ZM774.76,116.29s15.06,19.84,13.03,22c-2.03,2.16-11.88-6.49-22.59-20.92l-30.13.72s18.11,23.4,15.35,26.34c-1.32,1.41-9.4-8.03-14.48-15.15-2.98-4.16-12.17-15.51-12.17-15.51,0,0,8.32-12.08,11.29-16.24,5.08-7.13,13.17-15.12,14.48-13.71,2.75,2.94-15.06,28.5-15.06,28.5l30.12-.37c10.72-14.43,21.15-24.89,23.18-22.72,2.03,2.17-13.03,22-13.03,22,35.05-.72,44.31,0,44.31,2.53s-9.26,3.24-44.31,2.52Z"/>
  <g>
    <path class="cls-2" d="M565.41,142.46c1.57,0,2.86-1.43,2.86-3.17v-52.86c0-1.74-1.28-3.17-2.86-3.17h-6.34c-1.57,0-2.85,1.43-2.85,3.17v52.86c0,1.75,1.27,3.17,2.85,3.17h6.34Z"/>
    <path class="cls-2" d="M577.34,142.46c1.56,0,2.84-1.43,2.84-3.17v-52.86c0-1.74-1.28-3.17-2.84-3.17h-6.36c-1.57,0-2.85,1.43-2.85,3.17v52.86c0,1.75,1.28,3.17,2.85,3.17h6.36Z"/>
    <path class="cls-2" d="M556.42,142.56c0,9.16-7.33,16.59-16.4,16.59s-16.41-7.43-16.41-16.59v-58.28c0-9.16,7.35-16.58,16.41-16.58s16.4,7.42,16.4,16.58v58.28Z"/>
    <path class="cls-2" d="M514.6,142.46c-1.57,0-2.85-1.43-2.85-3.17v-52.86c0-1.74,1.28-3.17,2.85-3.17h6.35c1.57,0,2.85,1.43,2.85,3.17v52.86c0,1.75-1.28,3.17-2.85,3.17h-6.35Z"/>
    <path class="cls-2" d="M502.67,142.63c-1.56,0-2.85-1.43-2.85-3.17v-52.86c0-1.74,1.28-3.17,2.85-3.17h6.36c1.56,0,2.85,1.43,2.85,3.17v52.86c0,1.74-1.28,3.17-2.85,3.17h-6.36Z"/>
  </g>
  <path class="cls-2" d="M641.03,977.89c8.7-14.56-10.86-22.42-3.19-25.75,8.09-3.5,9.17,3.64,9.17,3.64,0,0-9.24-14.08-1.87-14.32,7.36-.25,8.68,6.52,8.68,6.52,0,0-3.62-17.41,5.07-16.65,8.69.76,1.81,17.68,1.81,17.68,0,0,2.29-9.13,10.07-5.73,7.79,3.4-10.02,15.11-11.88,19.26,0,0,9.3-11.98,14.19-9.34,9.12,4.91-11.89,12.98-15.09,18.43-3.2,5.46-7.79,8.35-7.79,8.35,0,0-14.55,6.9-9.17-2.1Z"/>
  <path class="cls-2" d="M641.94,956.58s10.99,10.95,6.88,17.95"/>
  <path class="cls-2" d="M648.34,948.51s7.3,5.73,4.59,17.17"/>
  <path class="cls-2" d="M658.42,937.83s-1.32,12.46-2.71,17.68"/>
  <path class="cls-2" d="M667.1,947.99s-10.98,7-12.79,12.74"/>
  <path class="cls-2" d="M668.5,959.7s-18.3,10.68-20.58,16.65"/>
  <path class="cls-2" d="M641.03,977.89c8.7-14.56-10.86-22.42-3.19-25.75,8.09-3.5,9.17,3.64,9.17,3.64,0,0-9.24-14.08-1.87-14.32,7.36-.25,8.68,6.52,8.68,6.52,0,0-3.62-17.41,5.07-16.65,8.69.76,1.81,17.68,1.81,17.68,0,0,2.29-9.13,10.07-5.73,7.79,3.4-10.02,15.11-11.88,19.26,0,0,9.3-11.98,14.19-9.34,9.12,4.91-11.89,12.98-15.09,18.43-3.2,5.46-7.79,8.35-7.79,8.35,0,0-14.55,6.9-9.17-2.1Z"/>
  <path class="cls-2" d="M641.94,956.58s10.99,10.95,6.88,17.95"/>
  <path class="cls-2" d="M648.34,948.51s7.3,5.73,4.59,17.17"/>
  <path class="cls-2" d="M658.42,937.83s-1.32,12.46-2.71,17.68"/>
  <path class="cls-2" d="M667.1,947.99s-10.98,7-12.79,12.74"/>
  <path class="cls-2" d="M668.5,959.7s-18.3,10.68-20.58,16.65"/>
  <path class="cls-2" d="M597.94,994.91c17.09-11.9,3.62-23.16,12.85-24.75,9.72-1.67,6.35,5.23,6.35,5.23,0,0,0-15.02,7.06-13.78,7.04,1.24,4.12,7.84,4.12,7.84,0,0,7.32-17.03,14.99-14.59,7.68,2.44-9.19,16.93-9.19,16.93,0,0,7.77-8.1,12.98-3.37,5.2,4.73-18.69,12.15-22.99,15.68,0,0,16.08-9.37,19.03-5.93,5.51,6.42-19.12,9.79-25.48,14.27-6.35,4.48-12.43,6.26-12.43,6.26,0,0-17.88,3.57-7.31-3.79Z"/>
  <path class="cls-2" d="M611.91,975.12s3.55,12.44-4.61,18.19"/>
  <path class="cls-2" d="M622.87,968.83s3.31,6.83-6.28,17"/>
  <path class="cls-2" d="M638.89,960.84s-8.92,11.41-13.43,16.02"/>
  <path class="cls-2" d="M640.77,972.09s-14.6,4.37-19.82,9.39"/>
  <path class="cls-2" d="M634.87,983.34s-23.7,6.35-29.53,11.5"/>
  <path class="cls-2" d="M597.94,994.91c17.09-11.9,3.62-23.16,12.85-24.75,9.72-1.67,6.35,5.23,6.35,5.23,0,0,0-15.02,7.06-13.78,7.04,1.24,4.12,7.84,4.12,7.84,0,0,7.32-17.03,14.99-14.59,7.68,2.44-9.19,16.93-9.19,16.93,0,0,7.77-8.1,12.98-3.37,5.2,4.73-18.69,12.15-22.99,15.68,0,0,16.08-9.37,19.03-5.93,5.51,6.42-19.12,9.79-25.48,14.27-6.35,4.48-12.43,6.26-12.43,6.26,0,0-17.88,3.57-7.31-3.79Z"/>
  <path class="cls-2" d="M611.91,975.12s3.55,12.44-4.61,18.19"/>
  <path class="cls-2" d="M622.87,968.83s3.31,6.83-6.28,17"/>
  <path class="cls-2" d="M638.89,960.84s-8.92,11.41-13.43,16.02"/>
  <path class="cls-2" d="M640.77,972.09s-14.6,4.37-19.82,9.39"/>
  <path class="cls-2" d="M634.87,983.34s-23.7,6.35-29.53,11.5"/>
  <path class="cls-2" d="M619.88,1000.8c19.14-10.85,7.74-22.84,17.2-23.89,9.98-1.1,5.39,5.58,5.39,5.58,0,0,2.69-14.94,9.49-13.3,6.78,1.64,2.69,8.03,2.69,8.03,0,0,10.32-16.51,17.53-13.64,7.2,2.87-12.16,16.3-12.16,16.3,0,0,9.17-7.61,13.5-2.6,4.33,5.01-20.75,11.02-25.67,14.27,0,0,17.67-8.39,19.99-4.79,4.35,6.7-20.76,8.63-27.89,12.72-7.12,4.08-13.48,5.52-13.48,5.52,0,0-18.42,2.51-6.59-4.2Z"/>
  <path class="cls-2" d="M637.31,981.92s1.31,12.59-7.82,17.83"/>
  <path class="cls-2" d="M649.32,976.3s2.08,6.99-9.26,16.55"/>
  <path class="cls-2" d="M666.68,969.27s-10.9,10.84-16.2,15.17"/>
  <path class="cls-2" d="M666.55,980.57s-15.3,3.51-21.39,8.19"/>
  <path class="cls-2" d="M658.67,991.42s-24.7,4.96-31.42,9.73"/>
  <path class="cls-2" d="M619.88,1000.8c19.14-10.85,7.74-22.84,17.2-23.89,9.98-1.1,5.39,5.58,5.39,5.58,0,0,2.69-14.94,9.49-13.3,6.78,1.64,2.69,8.03,2.69,8.03,0,0,10.32-16.51,17.53-13.64,7.2,2.87-12.16,16.3-12.16,16.3,0,0,9.17-7.61,13.5-2.6,4.33,5.01-20.75,11.02-25.67,14.27,0,0,17.67-8.39,19.99-4.79,4.35,6.7-20.76,8.63-27.89,12.72-7.12,4.08-13.48,5.52-13.48,5.52,0,0-18.42,2.51-6.59-4.2Z"/>
  <path class="cls-2" d="M637.31,981.92s1.31,12.59-7.82,17.83"/>
  <path class="cls-2" d="M649.32,976.3s2.08,6.99-9.26,16.55"/>
  <path class="cls-2" d="M666.68,969.27s-10.9,10.84-16.2,15.17"/>
  <path class="cls-2" d="M666.55,980.57s-15.3,3.51-21.39,8.19"/>
  <path class="cls-2" d="M658.67,991.42s-24.7,4.96-31.42,9.73"/>
  <path class="cls-2" d="M567.24,1006.08c21.65-9.2,13.36-21.98,22.99-22.26,10.15-.29,3.94,5.95,3.94,5.95,0,0,6.39-14.58,12.7-12.4,6.31,2.17.67,8.17.67,8.17,0,0,14.34-15.51,20.75-12.09,6.41,3.42-16.11,15.16-16.11,15.16,0,0,10.98-6.79,14.02-1.48,3.03,5.31-23.29,9.23-28.97,12.05,0,0,19.59-6.89,20.99-3.13,2.62,6.98-22.71,6.87-30.78,10.34-8.07,3.47-14.73,4.37-14.73,4.37,0,0-18.85,1.01-5.47-4.68Z"/>
  <path class="cls-2" d="M589.21,988.8s-1.84,12.56-12.2,17.02"/>
  <path class="cls-2" d="M602.51,984.21s.31,7.08-13.3,15.63"/>
  <path class="cls-2" d="M621.45,978.65s-13.5,9.84-19.84,13.7"/>
  <path class="cls-2" d="M618.5,989.82s-16.02,2.24-23.22,6.38"/>
  <path class="cls-2" d="M608,999.93s-25.7,2.91-33.54,7.1"/>
  <path class="cls-2" d="M567.24,1006.08c21.65-9.2,13.36-21.98,22.99-22.26,10.15-.29,3.94,5.95,3.94,5.95,0,0,6.39-14.58,12.7-12.4,6.31,2.17.67,8.17.67,8.17,0,0,14.34-15.51,20.75-12.09,6.41,3.42-16.11,15.16-16.11,15.16,0,0,10.98-6.79,14.02-1.48,3.03,5.31-23.29,9.23-28.97,12.05,0,0,19.59-6.89,20.99-3.13,2.62,6.98-22.71,6.87-30.78,10.34-8.07,3.47-14.73,4.37-14.73,4.37,0,0-18.85,1.01-5.47-4.68Z"/>
  <path class="cls-2" d="M589.21,988.8s-1.84,12.56-12.2,17.02"/>
  <path class="cls-2" d="M602.51,984.21s.31,7.08-13.3,15.63"/>
  <path class="cls-2" d="M621.45,978.65s-13.5,9.84-19.84,13.7"/>
  <path class="cls-2" d="M618.5,989.82s-16.02,2.24-23.22,6.38"/>
  <path class="cls-2" d="M608,999.93s-25.7,2.91-33.54,7.1"/>
  <path class="cls-2" d="M589.11,1008.34c24.14-6.91,19.91-20.31,29.48-19.62,10.09.73,2.05,6.25,2.05,6.25,0,0,10.78-13.72,16.33-10.95,5.54,2.77-1.85,8.11-1.85,8.11,0,0,18.89-13.85,24.15-9.84,5.26,4.01-20.52,13.32-20.52,13.32,0,0,12.9-5.59,14.25-.06,1.36,5.53-25.77,6.77-32.23,8.98,0,0,21.4-4.83,21.62-.99.44,7.13-24.47,4.5-33.49,7.12-9.02,2.61-15.84,2.83-15.84,2.83,0,0-18.88-.89-3.95-5.15Z"/>
  <path class="cls-2" d="M616.05,993.51s-5.69,12.19-17.24,15.54"/>
  <path class="cls-2" d="M630.56,990.32s-1.87,7-17.91,14.06"/>
  <path class="cls-2" d="M650.91,986.73s-16.33,8.35-23.75,11.51"/>
  <path class="cls-2" d="M644.57,997.44s-16.46.61-24.83,3.97"/>
  <path class="cls-2" d="M631.12,1006.34s-26.2.31-35.21,3.65"/>
  <path class="cls-2" d="M589.11,1008.34c24.14-6.91,19.91-20.31,29.48-19.62,10.09.73,2.05,6.25,2.05,6.25,0,0,10.78-13.72,16.33-10.95,5.54,2.77-1.85,8.11-1.85,8.11,0,0,18.89-13.85,24.15-9.84,5.26,4.01-20.52,13.32-20.52,13.32,0,0,12.9-5.59,14.25-.06,1.36,5.53-25.77,6.77-32.23,8.98,0,0,21.4-4.83,21.62-.99.44,7.13-24.47,4.5-33.49,7.12-9.02,2.61-15.84,2.83-15.84,2.83,0,0-18.88-.89-3.95-5.15Z"/>
  <path class="cls-2" d="M616.05,993.51s-5.69,12.19-17.24,15.54"/>
  <path class="cls-2" d="M630.56,990.32s-1.87,7-17.91,14.06"/>
  <path class="cls-2" d="M650.91,986.73s-16.33,8.35-23.75,11.51"/>
  <path class="cls-2" d="M644.57,997.44s-16.46.61-24.83,3.97"/>
  <path class="cls-2" d="M631.12,1006.34s-26.2.31-35.21,3.65"/>
  <path class="cls-2" d="M531.36,1008.4c26.82-1.92,30.7-15.35,39.32-12.89,9.08,2.61-1.74,6.28-1.74,6.28,0,0,18.22-10.88,21.82-7.22,3.59,3.66-6.52,7.3-6.52,7.3,0,0,25.94-9.46,28.54-4.68,2.61,4.78-27.16,8.65-27.16,8.65,0,0,15.44-2.81,13.47,2.66-1.97,5.47-28.27,1.48-35.65,2.33,0,0,23.01-.48,20.96,3.18-3.77,6.81-25.71-.41-35.74.34-10.02.75-16.59-.34-16.59-.34,0,0-17.27-4.42-.7-5.6Z"/>
  <path class="cls-2" d="M565.47,999.55s-12.52,10.41-25.38,11.37"/>
  <path class="cls-2" d="M581.03,999.3s-5.88,6.24-25.14,9.85"/>
  <path class="cls-2" d="M602.31,999.79s-20.28,4.76-29.14,6.33"/>
  <path class="cls-2" d="M590.04,1008.68s-15.88-2.56-25.73-.98"/>
  <path class="cls-2" d="M572.14,1014.51s-24.87-4.7-35.32-3.26"/>
  <path class="cls-2" d="M531.36,1008.4c26.82-1.92,30.7-15.35,39.32-12.89,9.08,2.61-1.74,6.28-1.74,6.28,0,0,18.22-10.88,21.82-7.22,3.59,3.66-6.52,7.3-6.52,7.3,0,0,25.94-9.46,28.54-4.68,2.61,4.78-27.16,8.65-27.16,8.65,0,0,15.44-2.81,13.47,2.66-1.97,5.47-28.27,1.48-35.65,2.33,0,0,23.01-.48,20.96,3.18-3.77,6.81-25.71-.41-35.74.34-10.02.75-16.59-.34-16.59-.34,0,0-17.27-4.42-.7-5.6Z"/>
  <path class="cls-2" d="M565.47,999.55s-12.52,10.41-25.38,11.37"/>
  <path class="cls-2" d="M581.03,999.3s-5.88,6.24-25.14,9.85"/>
  <path class="cls-2" d="M602.31,999.79s-20.28,4.76-29.14,6.33"/>
  <path class="cls-2" d="M590.04,1008.68s-15.88-2.56-25.73-.98"/>
  <path class="cls-2" d="M572.14,1014.51s-24.87-4.7-35.32-3.26"/>
  <path class="cls-2" d="M535.51,1007.24c25.92-4.35,25.93-17.98,35.13-16.34,9.69,1.74.07,6.37.07,6.37,0,0,14.88-12.41,19.48-9.13,4.59,3.28-4.35,7.81-4.35,7.81,0,0,22.91-11.73,26.83-7.25,3.93,4.47-24.35,11.04-24.35,11.04,0,0,14.44-4.2,14.05,1.38-.39,5.57-27.47,4.06-34.52,5.59,0,0,22.58-2.59,21.6,1.2-1.79,7.07-25.49,1.96-35.19,3.62-9.68,1.66-16.46,1.19-16.46,1.19,0,0-18.3-2.77-2.29-5.47Z"/>
  <path class="cls-2" d="M566.64,995.36s-9.39,11.42-21.82,13.55"/>
  <path class="cls-2" d="M581.92,993.68s-4.02,6.7-22,12.03"/>
  <path class="cls-2" d="M603.07,992.21s-18.66,6.57-26.96,8.94"/>
  <path class="cls-2" d="M593.49,1002.11s-16.39-1.06-25.68,1.4"/>
  <path class="cls-2" d="M577.48,1009.5s-25.88-2.34-35.78.04"/>
  <path class="cls-2" d="M535.51,1007.24c25.92-4.35,25.93-17.98,35.13-16.34,9.69,1.74.07,6.37.07,6.37,0,0,14.88-12.41,19.48-9.13,4.59,3.28-4.35,7.81-4.35,7.81,0,0,22.91-11.73,26.83-7.25,3.93,4.47-24.35,11.04-24.35,11.04,0,0,14.44-4.2,14.05,1.38-.39,5.57-27.47,4.06-34.52,5.59,0,0,22.58-2.59,21.6,1.2-1.79,7.07-25.49,1.96-35.19,3.62-9.68,1.66-16.46,1.19-16.46,1.19,0,0-18.3-2.77-2.29-5.47Z"/>
  <path class="cls-2" d="M566.64,995.36s-9.39,11.42-21.82,13.55"/>
  <path class="cls-2" d="M581.92,993.68s-4.02,6.7-22,12.03"/>
  <path class="cls-2" d="M603.07,992.21s-18.66,6.57-26.96,8.94"/>
  <path class="cls-2" d="M593.49,1002.11s-16.39-1.06-25.68,1.4"/>
  <path class="cls-2" d="M577.48,1009.5s-25.88-2.34-35.78.04"/>
  <path class="cls-2" d="M438.96,977.89c-8.69-14.56,10.86-22.42,3.2-25.75-8.09-3.5-9.17,3.64-9.17,3.64,0,0,9.23-14.08,1.87-14.32-7.36-.25-8.69,6.52-8.69,6.52,0,0,3.62-17.41-5.07-16.65-8.69.76-1.81,17.68-1.81,17.68,0,0-2.29-9.13-10.08-5.73-7.79,3.4,10.02,15.11,11.89,19.26,0,0-9.3-11.98-14.18-9.34-9.12,4.91,11.89,12.98,15.09,18.43,3.2,5.46,7.79,8.35,7.79,8.35,0,0,14.55,6.9,9.17-2.1Z"/>
  <path class="cls-2" d="M438.05,956.58s-10.98,10.95-6.88,17.95"/>
  <path class="cls-2" d="M431.66,948.51s-7.3,5.73-4.59,17.17"/>
  <path class="cls-2" d="M421.57,937.83s1.33,12.46,2.72,17.68"/>
  <path class="cls-2" d="M412.89,947.99s10.98,7,12.79,12.74"/>
  <path class="cls-2" d="M411.49,959.7s18.29,10.68,20.59,16.65"/>
  <path class="cls-2" d="M438.96,977.89c-8.69-14.56,10.86-22.42,3.2-25.75-8.09-3.5-9.17,3.64-9.17,3.64,0,0,9.23-14.08,1.87-14.32-7.36-.25-8.69,6.52-8.69,6.52,0,0,3.62-17.41-5.07-16.65-8.69.76-1.81,17.68-1.81,17.68,0,0-2.29-9.13-10.08-5.73-7.79,3.4,10.02,15.11,11.89,19.26,0,0-9.3-11.98-14.18-9.34-9.12,4.91,11.89,12.98,15.09,18.43,3.2,5.46,7.79,8.35,7.79,8.35,0,0,14.55,6.9,9.17-2.1Z"/>
  <path class="cls-2" d="M438.05,956.58s-10.98,10.95-6.88,17.95"/>
  <path class="cls-2" d="M431.66,948.51s-7.3,5.73-4.59,17.17"/>
  <path class="cls-2" d="M421.57,937.83s1.33,12.46,2.72,17.68"/>
  <path class="cls-2" d="M412.89,947.99s10.98,7,12.79,12.74"/>
  <path class="cls-2" d="M411.49,959.7s18.29,10.68,20.59,16.65"/>
  <path class="cls-2" d="M482.05,994.91c-17.1-11.9-3.62-23.16-12.85-24.75-9.74-1.67-6.36,5.23-6.36,5.23,0,0-.01-15.02-7.06-13.78-7.05,1.24-4.13,7.84-4.13,7.84,0,0-7.32-17.03-15-14.59-7.67,2.44,9.18,16.93,9.18,16.93,0,0-7.76-8.1-12.97-3.37-5.2,4.73,18.68,12.15,22.99,15.68,0,0-16.08-9.37-19.03-5.93-5.52,6.42,19.12,9.79,25.48,14.27,6.35,4.48,12.42,6.26,12.42,6.26,0,0,17.88,3.57,7.31-3.79Z"/>
  <path class="cls-2" d="M468.08,975.12s-3.55,12.44,4.6,18.19"/>
  <path class="cls-2" d="M457.12,968.83s-3.31,6.83,6.27,17"/>
  <path class="cls-2" d="M441.11,960.84s8.91,11.41,13.42,16.02"/>
  <path class="cls-2" d="M439.22,972.09s14.6,4.37,19.83,9.39"/>
  <path class="cls-2" d="M445.13,983.34s23.7,6.35,29.53,11.5"/>
  <path class="cls-2" d="M482.05,994.91c-17.1-11.9-3.62-23.16-12.85-24.75-9.74-1.67-6.36,5.23-6.36,5.23,0,0-.01-15.02-7.06-13.78-7.05,1.24-4.13,7.84-4.13,7.84,0,0-7.32-17.03-15-14.59-7.67,2.44,9.18,16.93,9.18,16.93,0,0-7.76-8.1-12.97-3.37-5.2,4.73,18.68,12.15,22.99,15.68,0,0-16.08-9.37-19.03-5.93-5.52,6.42,19.12,9.79,25.48,14.27,6.35,4.48,12.42,6.26,12.42,6.26,0,0,17.88,3.57,7.31-3.79Z"/>
  <path class="cls-2" d="M468.08,975.12s-3.55,12.44,4.6,18.19"/>
  <path class="cls-2" d="M457.12,968.83s-3.31,6.83,6.27,17"/>
  <path class="cls-2" d="M441.11,960.84s8.91,11.41,13.42,16.02"/>
  <path class="cls-2" d="M439.22,972.09s14.6,4.37,19.83,9.39"/>
  <path class="cls-2" d="M445.13,983.34s23.7,6.35,29.53,11.5"/>
  <path class="cls-2" d="M460.12,1000.8c-19.14-10.85-7.74-22.84-17.21-23.89-9.98-1.1-5.38,5.58-5.38,5.58,0,0-2.69-14.94-9.48-13.3-6.79,1.64-2.71,8.03-2.71,8.03,0,0-10.32-16.51-17.52-13.64-7.21,2.87,12.15,16.3,12.15,16.3,0,0-9.17-7.61-13.5-2.6-4.33,5.01,20.76,11.02,25.67,14.27,0,0-17.67-8.39-19.99-4.79-4.34,6.7,20.77,8.63,27.89,12.72,7.12,4.08,13.48,5.52,13.48,5.52,0,0,18.42,2.51,6.59-4.2Z"/>
  <path class="cls-2" d="M442.69,981.92s-1.31,12.59,7.83,17.83"/>
  <path class="cls-2" d="M430.66,976.3s-2.08,6.99,9.27,16.55"/>
  <path class="cls-2" d="M413.3,969.27s10.91,10.84,16.22,15.17"/>
  <path class="cls-2" d="M413.44,980.57s15.3,3.51,21.4,8.19"/>
  <path class="cls-2" d="M421.32,991.42s24.72,4.96,31.43,9.73"/>
  <path class="cls-2" d="M460.12,1000.8c-19.14-10.85-7.74-22.84-17.21-23.89-9.98-1.1-5.38,5.58-5.38,5.58,0,0-2.69-14.94-9.48-13.3-6.79,1.64-2.71,8.03-2.71,8.03,0,0-10.32-16.51-17.52-13.64-7.21,2.87,12.15,16.3,12.15,16.3,0,0-9.17-7.61-13.5-2.6-4.33,5.01,20.76,11.02,25.67,14.27,0,0-17.67-8.39-19.99-4.79-4.34,6.7,20.77,8.63,27.89,12.72,7.12,4.08,13.48,5.52,13.48,5.52,0,0,18.42,2.51,6.59-4.2Z"/>
  <path class="cls-2" d="M442.69,981.92s-1.31,12.59,7.83,17.83"/>
  <path class="cls-2" d="M430.66,976.3s-2.08,6.99,9.27,16.55"/>
  <path class="cls-2" d="M413.3,969.27s10.91,10.84,16.22,15.17"/>
  <path class="cls-2" d="M413.44,980.57s15.3,3.51,21.4,8.19"/>
  <path class="cls-2" d="M421.32,991.42s24.72,4.96,31.43,9.73"/>
  <path class="cls-2" d="M512.75,1006.08c-21.65-9.2-13.35-21.98-22.98-22.26-10.16-.29-3.94,5.95-3.94,5.95,0,0-6.4-14.58-12.71-12.4-6.31,2.17-.67,8.17-.67,8.17,0,0-14.34-15.51-20.75-12.09-6.41,3.42,16.1,15.16,16.1,15.16,0,0-10.98-6.79-14.01-1.48-3.04,5.31,23.29,9.23,28.97,12.05,0,0-19.59-6.89-20.99-3.13-2.63,6.98,22.72,6.87,30.79,10.34,8.07,3.47,14.72,4.37,14.72,4.37,0,0,18.86,1.01,5.48-4.68Z"/>
  <path class="cls-2" d="M490.79,988.8s1.84,12.56,12.19,17.02"/>
  <path class="cls-2" d="M477.48,984.21s-.31,7.08,13.3,15.63"/>
  <path class="cls-2" d="M458.55,978.65s13.5,9.84,19.83,13.7"/>
  <path class="cls-2" d="M461.5,989.82s16.02,2.24,23.22,6.38"/>
  <path class="cls-2" d="M472,999.93s25.7,2.91,33.53,7.1"/>
  <path class="cls-2" d="M512.75,1006.08c-21.65-9.2-13.35-21.98-22.98-22.26-10.16-.29-3.94,5.95-3.94,5.95,0,0-6.4-14.58-12.71-12.4-6.31,2.17-.67,8.17-.67,8.17,0,0-14.34-15.51-20.75-12.09-6.41,3.42,16.1,15.16,16.1,15.16,0,0-10.98-6.79-14.01-1.48-3.04,5.31,23.29,9.23,28.97,12.05,0,0-19.59-6.89-20.99-3.13-2.63,6.98,22.72,6.87,30.79,10.34,8.07,3.47,14.72,4.37,14.72,4.37,0,0,18.86,1.01,5.48-4.68Z"/>
  <path class="cls-2" d="M490.79,988.8s1.84,12.56,12.19,17.02"/>
  <path class="cls-2" d="M477.48,984.21s-.31,7.08,13.3,15.63"/>
  <path class="cls-2" d="M458.55,978.65s13.5,9.84,19.83,13.7"/>
  <path class="cls-2" d="M461.5,989.82s16.02,2.24,23.22,6.38"/>
  <path class="cls-2" d="M472,999.93s25.7,2.91,33.53,7.1"/>
  <path class="cls-2" d="M490.88,1008.34c-24.15-6.91-19.91-20.31-29.48-19.62-10.09.73-2.04,6.25-2.04,6.25,0,0-10.79-13.72-16.33-10.95-5.54,2.77,1.86,8.11,1.86,8.11,0,0-18.89-13.85-24.15-9.84-5.26,4.01,20.52,13.32,20.52,13.32,0,0-12.9-5.59-14.25-.06-1.35,5.53,25.77,6.77,32.23,8.98,0,0-21.4-4.83-21.62-.99-.44,7.13,24.48,4.5,33.49,7.12,9.01,2.61,15.84,2.83,15.84,2.83,0,0,18.88-.89,3.95-5.15Z"/>
  <path class="cls-2" d="M463.94,993.51s5.68,12.19,17.25,15.54"/>
  <path class="cls-2" d="M449.43,990.32s1.87,7,17.91,14.06"/>
  <path class="cls-2" d="M429.08,986.73s16.32,8.35,23.75,11.51"/>
  <path class="cls-2" d="M435.42,997.44s16.47.61,24.83,3.97"/>
  <path class="cls-2" d="M448.88,1006.34s26.2.31,35.2,3.65"/>
  <path class="cls-2" d="M490.88,1008.34c-24.15-6.91-19.91-20.31-29.48-19.62-10.09.73-2.04,6.25-2.04,6.25,0,0-10.79-13.72-16.33-10.95-5.54,2.77,1.86,8.11,1.86,8.11,0,0-18.89-13.85-24.15-9.84-5.26,4.01,20.52,13.32,20.52,13.32,0,0-12.9-5.59-14.25-.06-1.35,5.53,25.77,6.77,32.23,8.98,0,0-21.4-4.83-21.62-.99-.44,7.13,24.48,4.5,33.49,7.12,9.01,2.61,15.84,2.83,15.84,2.83,0,0,18.88-.89,3.95-5.15Z"/>
  <path class="cls-2" d="M463.94,993.51s5.68,12.19,17.25,15.54"/>
  <path class="cls-2" d="M449.43,990.32s1.87,7,17.91,14.06"/>
  <path class="cls-2" d="M429.08,986.73s16.32,8.35,23.75,11.51"/>
  <path class="cls-2" d="M435.42,997.44s16.47.61,24.83,3.97"/>
  <path class="cls-2" d="M448.88,1006.34s26.2.31,35.2,3.65"/>
  <path class="cls-2" d="M548.62,1008.4c-26.81-1.92-30.7-15.35-39.31-12.89-9.07,2.61,1.75,6.28,1.75,6.28,0,0-18.23-10.88-21.82-7.22-3.6,3.66,6.52,7.3,6.52,7.3,0,0-25.95-9.46-28.55-4.68-2.61,4.78,27.17,8.65,27.17,8.65,0,0-15.45-2.81-13.47,2.66,1.97,5.47,28.26,1.48,35.65,2.33,0,0-23.01-.48-20.96,3.18,3.78,6.81,25.72-.41,35.74.34,10.03.75,16.6-.34,16.6-.34,0,0,17.27-4.42.69-5.6Z"/>
  <path class="cls-2" d="M514.52,999.55s12.52,10.41,25.39,11.37"/>
  <path class="cls-2" d="M498.97,999.3s5.88,6.24,25.14,9.85"/>
  <path class="cls-2" d="M477.68,999.79s20.29,4.76,29.15,6.33"/>
  <path class="cls-2" d="M489.95,1008.68s15.87-2.56,25.73-.98"/>
  <path class="cls-2" d="M507.86,1014.51s24.87-4.7,35.32-3.26"/>
  <path class="cls-2" d="M548.62,1008.4c-26.81-1.92-30.7-15.35-39.31-12.89-9.07,2.61,1.75,6.28,1.75,6.28,0,0-18.23-10.88-21.82-7.22-3.6,3.66,6.52,7.3,6.52,7.3,0,0-25.95-9.46-28.55-4.68-2.61,4.78,27.17,8.65,27.17,8.65,0,0-15.45-2.81-13.47,2.66,1.97,5.47,28.26,1.48,35.65,2.33,0,0-23.01-.48-20.96,3.18,3.78,6.81,25.72-.41,35.74.34,10.03.75,16.6-.34,16.6-.34,0,0,17.27-4.42.69-5.6Z"/>
  <path class="cls-2" d="M514.52,999.55s12.52,10.41,25.39,11.37"/>
  <path class="cls-2" d="M498.97,999.3s5.88,6.24,25.14,9.85"/>
  <path class="cls-2" d="M477.68,999.79s20.29,4.76,29.15,6.33"/>
  <path class="cls-2" d="M489.95,1008.68s15.87-2.56,25.73-.98"/>
  <path class="cls-2" d="M507.86,1014.51s24.87-4.7,35.32-3.26"/>
  <path class="cls-2" d="M544.49,1007.24c-25.92-4.35-25.93-17.98-35.13-16.34-9.69,1.74-.07,6.37-.07,6.37,0,0-14.89-12.41-19.48-9.13-4.59,3.28,4.35,7.81,4.35,7.81,0,0-22.91-11.73-26.84-7.25-3.93,4.47,24.35,11.04,24.35,11.04,0,0-14.44-4.2-14.05,1.38.39,5.57,27.47,4.06,34.52,5.59,0,0-22.56-2.59-21.59,1.2,1.79,7.07,25.5,1.96,35.18,3.62,9.69,1.66,16.47,1.19,16.47,1.19,0,0,18.3-2.77,2.29-5.47Z"/>
  <path class="cls-2" d="M513.35,995.36s9.39,11.42,21.81,13.55"/>
  <path class="cls-2" d="M498.07,993.68s4.02,6.7,22,12.03"/>
  <path class="cls-2" d="M476.92,992.21s18.67,6.57,26.96,8.94"/>
  <path class="cls-2" d="M486.5,1002.11s16.39-1.06,25.67,1.4"/>
  <path class="cls-2" d="M502.51,1009.5s25.88-2.34,35.79.04"/>
  <path class="cls-2" d="M544.49,1007.24c-25.92-4.35-25.93-17.98-35.13-16.34-9.69,1.74-.07,6.37-.07,6.37,0,0-14.89-12.41-19.48-9.13-4.59,3.28,4.35,7.81,4.35,7.81,0,0-22.91-11.73-26.84-7.25-3.93,4.47,24.35,11.04,24.35,11.04,0,0-14.44-4.2-14.05,1.38.39,5.57,27.47,4.06,34.52,5.59,0,0-22.56-2.59-21.59,1.2,1.79,7.07,25.5,1.96,35.18,3.62,9.69,1.66,16.47,1.19,16.47,1.19,0,0,18.3-2.77,2.29-5.47Z"/>
  <path class="cls-2" d="M513.35,995.36s9.39,11.42,21.81,13.55"/>
  <path class="cls-2" d="M498.07,993.68s4.02,6.7,22,12.03"/>
  <path class="cls-2" d="M476.92,992.21s18.67,6.57,26.96,8.94"/>
  <path class="cls-2" d="M486.5,1002.11s16.39-1.06,25.67,1.4"/>
  <path class="cls-2" d="M502.51,1009.5s25.88-2.34,35.79.04"/>
  <path class="cls-2" d="M527.2,1013.7c-7.6,0-13.76-3.5-13.76-7.83s6.16-7.83,13.76-7.83h25.58c7.61,0,13.77,3.5,13.77,7.83s-6.16,7.83-13.77,7.83h-25.58Z"/>
  <path class="cls-2" d="M540,1017.69c4.13,0,7.49-1.91,7.49-4.26v-15.11c0-2.35-3.36-4.25-7.49-4.25s-7.48,1.91-7.48,4.25v15.11c0,2.35,3.35,4.26,7.48,4.26Z"/>
  <path class="cls-2" d="M488.7,963.29h-8.34v-38.79h-7.72v-6.72h16.06v45.51h0ZM515.17,929.23c0,1.31.38,2.38,1.14,3.2.76.82,1.75,1.24,2.97,1.24,1.29,0,2.33-.41,3.06-1.22.74-.82,1.11-1.93,1.11-3.34,0-1.33-.39-2.42-1.14-3.27-.76-.84-1.76-1.27-2.97-1.27s-2.22.44-3,1.3c-.78.86-1.17,1.98-1.17,3.36h0ZM513.17,949.8c0,1.85.58,3.4,1.73,4.65,1.15,1.25,2.58,1.88,4.26,1.88,1.81,0,3.3-.63,4.47-1.88,1.18-1.25,1.76-2.82,1.76-4.71,0-2.02-.57-3.62-1.7-4.81-1.14-1.19-2.67-1.78-4.6-1.78-1.79,0-3.24.61-4.32,1.82-1.07,1.2-1.61,2.82-1.61,4.84h0ZM511.56,937.89c-1.59-1-2.82-2.28-3.69-3.85-.87-1.56-1.31-3.27-1.31-5.13,0-3.29,1.22-6.12,3.68-8.48,2.45-2.37,5.42-3.55,8.91-3.55,3.67,0,6.75,1.17,9.21,3.48,2.46,2.33,3.69,5.2,3.69,8.61,0,1.92-.44,3.63-1.31,5.13-.87,1.5-2.16,2.76-3.86,3.78,2.43,1.27,4.23,2.86,5.43,4.76,1.18,1.91,1.77,4.16,1.77,6.76,0,4.34-1.39,7.89-4.18,10.65-2.78,2.76-6.39,4.14-10.82,4.14-4.15,0-7.62-1.41-10.4-4.23-2.77-2.82-4.17-6.34-4.17-10.56,0-2.47.57-4.63,1.72-6.5,1.15-1.87,2.91-3.54,5.31-5.01h0ZM540.9,948.7h8.28v.31c0,2.12.56,3.83,1.67,5.12,1.13,1.29,2.57,1.94,4.38,1.94,1.99,0,3.61-.73,4.86-2.18,1.24-1.44,1.87-3.33,1.87-5.64s-.69-4.13-2.07-5.32c-1.38-1.2-3.43-1.8-6.15-1.8-.12,0-.33.02-.61.03-.29.02-.5.03-.64.03v-7.53c.14,0,.35.01.61.03.26.02.46.03.57.03,1.85,0,3.21-.38,4.07-1.12.86-.76,1.29-1.94,1.29-3.56,0-1.33-.34-2.38-1.01-3.12-.66-.74-1.6-1.11-2.79-1.11-1.08,0-1.91.38-2.51,1.14-.59.76-.92,1.82-.99,3.2h-7.66c0-3.69,1.07-6.66,3.21-8.9,2.14-2.25,4.95-3.37,8.44-3.37,3.1,0,5.74,1.1,7.91,3.34,2.17,2.23,3.26,4.9,3.26,8,0,1.85-.36,3.47-1.07,4.84-.72,1.38-1.81,2.61-3.31,3.66,2.53,1.17,4.43,2.77,5.66,4.8,1.25,2.03,1.87,4.52,1.87,7.49,0,1.97-.3,3.8-.92,5.45-.6,1.65-1.55,3.23-2.82,4.73-1.53,1.79-3.12,3.08-4.77,3.85-1.67.76-3.68,1.15-6.05,1.15-4.57,0-8.14-1.36-10.71-4.06-2.58-2.71-3.87-6.45-3.87-11.24v-.2h0ZM599.02,933.26c0-2.27-.71-4.2-2.13-5.8-1.42-1.59-3.12-2.39-5.11-2.39-2.09,0-3.82.75-5.19,2.24-1.36,1.48-2.06,3.39-2.06,5.69s.67,4.19,2.01,5.66c1.34,1.49,3.04,2.22,5.12,2.22s3.76-.75,5.19-2.25c1.45-1.51,2.16-3.3,2.16-5.38h0ZM591.47,963.29h-9.03l10.03-15.5c-.78.17-1.43.29-1.94.36-.5.07-.98.11-1.42.11-3.63,0-6.71-1.5-9.23-4.47-2.53-2.98-3.79-6.61-3.79-10.91,0-1.75.34-3.54,1.01-5.38.68-1.83,1.6-3.47,2.78-4.94,1.61-1.93,3.37-3.36,5.28-4.26,1.92-.91,4.13-1.36,6.61-1.36,2.13,0,4.14.39,6.03,1.18,1.88.8,3.56,1.94,5.01,3.45,1.44,1.47,2.56,3.17,3.35,5.05.79,1.9,1.19,3.84,1.19,5.81,0,2.26-.43,4.52-1.28,6.81-.85,2.29-2.5,5.31-4.95,9.08l-9.65,14.97Z"/>
  <path class="cls-1" d="M644.47,604.58l4-45.03-7.6-.67-4.29,48.39c2.6-.99,5.23-1.96,7.9-2.69Z"/>
  <path class="cls-1" d="M667.38,608.11c.54.22,1.09.43,1.63.65l-10.24-50.05-7.96,1.63,9.07,44.32c2.56.97,5.02,2.42,7.49,3.45Z"/>
  <path class="cls-1" d="M655.1,603.51l-.95-44.26-7.63.16.95,44.47c2.51-.48,5.05-.67,7.63-.37Z"/>
  <path class="cls-1" d="M413.36,590.42l5.08-31.72-7.54-1.21-4.98,31.1c3.72,1.48,4.16,1.73,7.44,1.83Z"/>
  <path class="cls-1" d="M427.39,582.6c2.07-1.05,4.14-1.76,6.25-2.28l-4.91-22.57-7.46,1.62,5.17,23.76c.32-.17.62-.37.94-.54Z"/>
  <path class="cls-1" d="M418.48,590.85c1.36-1.3,2.71-3.89,4.04-5.05.18-.16.38-.27.56-.42v-26.76s-7.62,0-7.62,0v31.85c.91,0,3.56-.33,3.03.38Z"/>
  <g>
    <polygon class="cls-2" points="658.25 541.12 658 558.79 551.37 558.56 553.33 540.5 658.25 541.12"/>
    <path class="cls-1" d="M658.81,559.61h-.82s-107.55-.23-107.55-.23l2.14-19.71,106.5.62-.27,19.32ZM552.29,557.74l104.9.23.23-16.03-103.35-.61-1.78,16.41Z"/>
  </g>
  <g>
    <polygon class="cls-2" points="411.64 540.66 411.75 558.32 522.83 558.75 520.94 540.68 411.64 540.66"/>
    <path class="cls-1" d="M523.76,559.59l-112.84-.43-.12-19.34,110.9.02,2.06,19.75ZM412.59,557.49l109.3.42-1.71-16.38-107.69-.02.1,15.99Z"/>
  </g>
  <path class="cls-2" d="M548.27,699.07c3.59-2.08,7.29-2.39,10.59-1.48v-38.91c-4.28,3.66-10.04,4.86-17.16,1.14-4.36-2.28-6.81-4.94-11.29-7.02-1.08-.5-2.18-1.23-3.28-2.02-2.05.04-4.07-.28-5.98-.9v57.11c9.57-.27,18.78-3.08,27.11-7.92Z"/>
  <path class="cls-2" d="M521.15,603.64c3.36-.16,6.78.66,9.55,2.74.99.06,1.97.08,2.99.19,6.12.67,12.47-.17,18.47,1.46,2.67.72,4.87,1.76,6.7,3.02v-65.51c.67-1.93,7.91-23.57,7.91-51.56s-25.64-90.78-25.9-91.4l-.21-.51h-1.31l-.21.51c-.26.62-25.9,62.19-25.9,91.4s7.25,49.63,7.92,51.56v58.11ZM521.89,456.4c3.32-4.17,10.09-7.04,17.93-7.04,8.32,0,15.45,3.22,18.51,7.8.27.94.53,1.88.79,2.81-2.44-3.28-10.15-5.69-19.3-5.69-8.57,0-15.87,2.11-18.77,5.08.27-.99.55-1.98.84-2.97ZM517.71,472.73c3.99-5.08,12.44-8.61,22.27-8.61s18.35,3.55,22.32,8.66c.22,1.02.43,2.04.64,3.04-3.65-3.44-12.53-5.88-22.96-5.88s-19.24,2.42-22.91,5.84c.2-1.01.41-2.02.64-3.05ZM514.93,491.96c2.61-6.97,12.84-12.18,25.07-12.18s22.46,5.21,25.08,12.18c.02.47.03.94.03,1.39-2.57-4.32-12.82-7.56-25.11-7.56s-22.54,3.24-25.1,7.56c0-.46.02-.92.03-1.39ZM515.57,509.02c-.04-.4-.06-.83-.1-1.23,2.64-6.98,12.54-12.18,24.4-12.18s22.24,5.42,24.61,12.63c-.03.37-.05.75-.09,1.11-2.5-4.38-12.52-7.65-24.53-7.65s-21.5,3.11-24.31,7.32ZM517.73,524.89c-.05-.27-.1-.53-.15-.8,2.04-6.88,11.31-12.09,22.49-12.09s20.19,5.07,22.4,11.82c-.05.3-.11.59-.16.88-2.49-4-11.48-6.97-22.24-6.97s-20.02,3.06-22.34,7.16Z"/>
  <g>
    <g>
      <path class="cls-2" d="M538.7,425.25c-36.68,0-40.85-8.81-40.85-30.85,0,0,13.34,2.2,17.5,11.02,0,0-3.33-13.22-8.33-16.89-5-3.67,5.84-19.1,13.34-2.94,0,0-8.34-8.82-5.84-16.9,2.5-8.08,7.5-.73,5.84-7.35-1.67-6.61-.84-9.55-3.33-14.69,0,0,16.67-9.55,21.67,18.36,0,0,12.5,0,6.67-9.55,0,0,29.17,3.68,10.84,45.55,0,0,19.16-2.2,22.5-15.43,0,0,20.83,39.66-40.01,39.66Z"/>
      <path class="cls-1" d="M538.7,426.07c-37.73,0-41.67-9.65-41.67-31.67v-.97l.96.16c.46.08,9.52,1.64,15.11,7.26-1.4-4.07-3.73-9.58-6.57-11.67-1.56-1.15-2.02-3.28-1.23-5.7.97-2.96,3.76-5.96,7.21-5.96.67,0,1.33.11,1.98.34-1.38-3.42-1.63-6.58-.75-9.42,1.31-4.23,3.4-4.8,5.27-4.8h.21c.47-.02.64-.02.68-.04h0s.09-.38-.34-2.06c-.68-2.68-.95-4.78-1.19-6.63-.36-2.76-.64-4.93-2.08-7.9l-.34-.69.67-.38c.12-.07,2.98-1.69,6.76-1.69,5.59,0,12.87,3.48,16,19.91,1.85-.13,5.24-.75,6.33-2.7.75-1.33.4-3.21-1.05-5.57l-.89-1.46,1.7.21c.39.05,9.7,1.32,14.66,10.05,4.68,8.25,3.82,20.1-2.57,35.26,4.43-.82,17.72-4.14,20.35-14.57l.53-2.09,1,1.91c.31.59,7.53,14.62.49,26.26-5.86,9.7-19.73,14.61-41.23,14.61ZM498.68,395.41c.12,20.6,4.2,29.02,40.02,29.02,20.87,0,34.27-4.65,39.81-13.81,5.11-8.44,1.99-18.59.32-22.74-4.73,11.77-21.76,13.86-22.52,13.95l-1.43.16.58-1.31c6.7-15.3,7.8-27.13,3.26-35.15-3.33-5.89-8.98-8.11-11.78-8.88,1,2.21,1.07,4.09.22,5.62-1.98,3.53-8.19,3.57-8.45,3.57h-.69l-.12-.68c-2.26-12.6-7.28-19.26-14.51-19.26-2.32,0-4.28.71-5.27,1.14,1.26,2.84,1.55,5.09,1.89,7.66.24,1.8.5,3.85,1.16,6.44.48,1.91.47,2.89-.02,3.52-.49.63-1.28.63-1.75.63h-.39c-1.02,0-2.56,0-3.69,3.64-.93,3.02-.37,6.52,1.69,10.42,1.51,1.3,2.9,3.28,4.11,5.89l2.13,4.59-3.48-3.68c-.09-.1-2.25-2.39-4.06-5.74-1.04-.82-2.11-1.24-3.19-1.24-2.64,0-4.87,2.49-5.64,4.83-.56,1.71-.32,3.15.64,3.86,5.18,3.81,8.51,16.8,8.65,17.36l2.06,8.18-3.61-7.63c-3.3-6.97-12.86-9.66-15.93-10.36Z"/>
    </g>
    <g>
      <path class="cls-2" d="M561.75,443.61c5.2,0,9.45-3.75,9.45-8.33v-3.17c0-4.58-4.25-8.33-9.45-8.33h-45.28c-5.2,0-9.45,3.75-9.45,8.33v3.17c0,4.58,4.25,8.33,9.45,8.33h45.28Z"/>
      <path class="cls-1" d="M561.75,444.44h-45.28c-5.66,0-10.27-4.1-10.27-9.15v-3.17c0-5.05,4.61-9.15,10.27-9.15h45.28c5.67,0,10.28,4.11,10.28,9.15v3.17c0,5.05-4.61,9.15-10.28,9.15ZM516.47,424.61c-4.76,0-8.63,3.37-8.63,7.51v3.17c0,4.14,3.87,7.5,8.63,7.5h45.28c4.76,0,8.63-3.37,8.63-7.5v-3.17c0-4.14-3.87-7.51-8.63-7.51h-45.28Z"/>
    </g>
  </g>
  <g>
    <path class="cls-2" d="M359.81,801.9l127.72.21-.67,12.79h-7.09c-26.94,48-82.84,48.5-113.05.21l-7.09.11.17-13.32Z"/>
    <path class="cls-1" d="M424.24,851.94c-22.4,0-43.5-13.11-57.96-35.99l-7.47.11.19-14.99h.82s128.59.22,128.59.22l-.76,14.44h-7.39c-13.08,23.02-33.47,36.22-56.01,36.22ZM367.18,814.28l.25.4c14.16,22.63,34.87,35.62,56.81,35.62,22.07,0,42.05-13.05,54.81-35.79l.24-.42h6.79l.58-11.14-126.04-.21-.15,11.66,6.7-.1Z"/>
  </g>
  <g>
    <path class="cls-2" d="M368.22,784.72c-.48.36-.99.68-1.53.98l-4.17,15.92,8.41.31,3.85-19.33c-1.78,1.19-3.99,1.93-6.56,2.13Z"/>
    <path class="cls-1" d="M373.82,783.17l-3.57,17.91-6.68-.25,4.13-15.76c-.62.42-1.28.81-2,1.13l-4.25,16.2,10.14.38,4.17-20.91c-.59.49-1.24.92-1.94,1.3Z"/>
  </g>
  <g>
    <path class="cls-2" d="M419.18,775.06c-2.23-.56-4.1-1.59-5.59-2.97l-.45,29.6h8.18l.46-24.9c-.97-.48-1.83-1.06-2.61-1.73Z"/>
    <path class="cls-1" d="M420.97,776.37l-.45,24.5h-6.54l.42-28.09c-.59-.46-1.13-.97-1.63-1.53l-.47,31.26h9.83l.47-25.35c-.57-.23-1.12-.49-1.63-.79Z"/>
  </g>
  <path class="cls-1" d="M477.27,795.66c-1.49.8-3.21,1.34-5.18,1.53l1.08,5.58h8.59l-1.27-8.05c-1.04.43-2.12.72-3.23.93Z"/>
  <g>
    <path class="cls-2" d="M719.09,802.35l-127.73.21.67,12.79h7.09c26.94,48,82.85,48.5,113.05.21l7.08.11-.16-13.31Z"/>
    <path class="cls-1" d="M654.66,852.39c-22.55,0-42.94-13.19-56.02-36.22h-7.39l-.76-14.44h.87l128.54-.21.18,14.98-7.47-.11c-14.46,22.89-35.56,36-57.96,36ZM592.82,814.53h6.79l.24.42c12.76,22.75,32.74,35.79,54.81,35.79s42.66-12.98,56.81-35.62l.25-.4,6.7.1-.14-11.65-126.04.2.59,11.14Z"/>
  </g>
  <g>
    <path class="cls-2" d="M599.37,782.34l-3.18,20.14,8.37.24,3.3-23.73c-2.1,1.92-4.93,3.18-8.49,3.35Z"/>
    <path class="cls-1" d="M606.92,779.77l-3.07,22.1-6.69-.19,3.06-19.38c-.54.05-1.1.08-1.67.08,0,0,0,0,0,0l-3.3,20.89,10.04.29,3.56-25.56c-.57.65-1.21,1.25-1.91,1.77Z"/>
  </g>
  <g>
    <path class="cls-2" d="M652.25,787.26c-.57,0-1.12-.03-1.66-.08-.49.05-.99.08-1.51.08-.5,0-.97-.03-1.44-.07l-.26,15.23,10.88.44-.3-16.69c-1.65.69-3.54,1.09-5.7,1.09Z"/>
    <path class="cls-1" d="M658.54,785.91c-.45.22-.92.41-1.41.58l.28,15.52-9.2-.37.25-14.4c-.57-.02-1.12-.07-1.65-.14l-.28,16.12,12.55.51-.33-17.83c-.07,0-.15,0-.23.02Z"/>
  </g>
  <g>
    <path class="cls-2" d="M707.35,770.68c-2.31.04-4.61-.02-6.92-.03-.52,1.35-1.23,2.61-2.13,3.74l6.94,27.86,9.35-.15-7.24-31.42Z"/>
    <path class="cls-1" d="M708.2,770.67c-.56.02-1.13.02-1.69.02l7.05,30.6-7.68.12-6.95-27.88c-.39.57-.83,1.1-1.3,1.61l6.96,27.94,11.02-.18-7.43-32.23Z"/>
  </g>
  <path class="cls-2" d="M547.94,757.51c-8.63,3.18-18.9,3.51-26.78-1.58v55.54s18.05,88.81,18.05,88.81h1.56l18.08-88.98v-60.69c-2.95,2.98-6.58,5.3-10.91,6.9ZM539.36,900.18l-3.23-137.66,3.82-.06.79,137.72h-1.38Z"/>
  <path class="cls-1" d="M605.16,286.11c-.89,0-1.7-.53-2.07-1.35-.25-.48-.3-1.13-.1-1.72l.26-.77.9-.53c1.19-.54,2.52.03,3.02,1.14.26.58.28,1.23.06,1.8l-.29.74-.89.49c-.27.12-.58.19-.9.19ZM603.68,283.32c-.15.37-.14.79.02,1.14.25.54.8.89,1.4.89v-1.28l-1.42-.75ZM605.16,283.63l.59,1.58c.41-.19.71-.53.85-.93.13-.39.1-.82-.08-1.18-.21-.45-.75-.8-1.36-.8v1.33Z"/>
  <g>
    <polygon class="cls-2" points="618.76 233.95 627 267.14 659.33 277.46 630.23 296 630.39 330.01 603.96 308.18 571.46 318.6 583.97 286.89 564.13 259.18 598.4 261.19 618.76 233.95"/>
    <polygon class="cls-2" points="463.81 233.95 455.57 267.14 423.25 277.46 452.34 296 452.18 330.01 478.62 308.18 511.11 318.6 498.6 286.89 518.44 259.18 484.16 261.19 463.81 233.95"/>
    <polygon class="cls-2" points="754.79 278.73 755.95 312.92 785.42 329.73 753.11 341.82 746.19 375.11 724.87 348.26 690.92 351.7 709.75 323.28 696.11 292.06 729.22 301.14 754.79 278.73"/>
    <polygon class="cls-2" points="325.2 279.4 324.04 313.59 294.58 330.4 326.9 342.49 333.81 375.78 355.12 348.93 389.08 352.37 370.24 323.96 383.88 292.73 350.78 301.82 325.2 279.4"/>
  </g>
  <path class="cls-1" d="M333.98,759.42c.04-.15,0-.17-.09-.14.02.18.04.28.09.14Z"/>
  <g>
    <path class="cls-1" d="M816.53,751.23c-1.07-2.36-6.67-4.88-7.74-7.89-1.08-3,2.75-7.88,1.46-10.09-.48-.82-4.12,2.35-6.99.27-1.1-.79-3.74-2.9-4.55-4.44-.81-1.55-1.45-2.3.36-5.69,1.8-3.4,3.1-6.22,4.65-9.71,1.55-3.49-2.89-1.52-4.34-3.69-1.45-2.16-.95-2.47-.76-4.65.2-2.17-1-3.26-1.38-5.16-.39-1.9.41-5.58.02-7.6-.4-2.02-2.73-5.19-3.56-8.05-.84-2.86-4.92-7.67-3.96-10.86.96-3.19,6.69,1.26,9.38-.79,2.7-2.03,1.86-12.49,4.54-13.86,2.69-1.37,5.26,5.12,6.83,3.71,1.59-1.4-1.56-3.91-2.59-5.14-1.03-1.23-1.69-.37-3.17-2.1-1.31-1.5-3.83-4.92-5.37-5.91-2.26-1.46-.86-1.49-3.83-1.61-2.96-.12-3.43,3.19-5.6,1.69-2.17-1.5-6.35.04-6.62-1.46-.27-1.5-5.77.22-6.08-1.18-.31-1.4-.88-3.84-.87-5.33,0-1.48-3.38-2.96-2.81-4.62.57-1.65-.76-1.97-.3-4.3.45-2.33,5.69-8.03,4.98-10.24-.72-2.21-3.31-6.72-4.3-7.89-.98-1.17-3.29-1-4.33-2.2-1.04-1.21-.95-4.49-1.65-5.65-.69-1.16-5.49-.34-6.89-1.41-1.4-1.08,1.85-1.44,1.3-2.91-.56-1.46-2.63-.78-4.04-1.76-1.4-.97-4.39-3.77-5.46-4.34-1.06-.57-1.47.32-3.01.12-1.54-.19,3.64-3.44-.74-3.91-4.37-.47-2.57.22-4.62.17-2.07-.06-2.3,6.29-4.15,5.72-1.86-.57-7.56-1.65-9.65-2.39-2.09-.73-4.24-.07-5.66.86-1.42.93-1.78,1.92-4.03,1.48-2.26-.44-6.08-4.01-6.58-3.95-.49.07-.08.78-1.4,2.02-1.32,1.25-2.85,3.28-4.78,4.43-1.93,1.14-2.68,3.62-4.4,4.23-1.71.62-1.98,2.15-3.51,2.78-1.53.64-3.5.89-4.31,1.22-.81.33-3.95,3.22-5.09,3.08-1.13-.13-4.72,2.09-6.52,2.43-1.8.34-5.34,3.83-8.54,3.86-3.2.02-8.7-2.81-11.04-3.38-2.33-.57-3.54.16-5.43-.74-1.89-.91-2.52-2.21-4.72-2.97-2.21-.77-1.26.6-2.66.78-1.41.18-.69.66-1.97.76-1.29.1-2.31-.92-3.64-.89-1.33.03-1.68.99-2.92,1.18-1.24.2-3.12-.03-4.21.22-1.09.25-1.76,1.17-3.17,1.5-1.41.33-2.11.86-4.58,1.17-2.47.31-4.24,1.73-6.64,1.1-2.41-.64-4.58-.03-6-.61-1.42-.58-2.57-.97-3.82-1.59-1.25-.62-3.85.09-4.82-.92-.96-1.01-.81-3.17-1.61-3.6-.81-.45-3.17-1.11-4.38-.75-1.2.37-1.12,2-2.47,2.28-1.34.29-1.71,0-2.56-.31-.86-.3-1.33-.77-2.21-1.37-.89-.61-1.82-1.07-3.08-1.74-1.24-.67-2.34.1-3.88-.98-1.54-1.07-1.55,2.2-2.8-.39-1.25-2.59-3.01-4.74-4.75-5.35-1.75-.62-3.17-2.7-4.86-2.61-1.69.09-2.28,1.54-3.64,2.06-1.36.51-2.44,2.74-3.83,2.09-3.29-1.57-8.65-5.78-8.71-9.83-.04-3.98.68-3.05.28-4.11-.4-1.05-3.22-3.88-4.33-4.15-1.11-.27.04-.28-1.27,0-1.31.27-1.97,1.47-3.49,1.6-1.51.13-4.81,2.47-6.06,1.99-1.97-.76-6.1-1.82-7.76-3.89-1.66-2.08-4.82-5.21-5.18-7.52-.36-2.31,2.63-2.01,2.4-3.1-.22-1.08-2.71-.76-3.64-1.54-.93-.78-.73-2.8-2.55-2.51-1.82.29-.3,2.48-2.22,3.42-1.92.95-1.01,1.63-2.91,1.62-4.75,0-2.47-.4-6.48-.13-3.7.24-5.51-.49-11.66-1.97-1.67-.4-3.91-.57-6.24-.89-3.27-.45-10.24-1.23-14.35-2.41-2.14-.62-2.55.71-4.83,1.42-2.27.72-3.96,2.24-5.75,2.68-1.79.45-2.25.82-4.02.84-1.77.03-3.75.79-5.27,1.39-1.52.6-1.61-.33-3.51.05-1.91.38-.41.43-2.52.99-2.11.56-3.68,1.58-5.36,2.63-1.68,1.04-4.54,3.33-6.16,3.63-1.62.31-1.43.11-2.33.5-2.22.99-3.09,1.5-3.09,1.5-.77.5-3.19,1.73-4.03,2.35-.93.68-3.74,1.85-4.73,2.08-1,.23-4.53,1-5.83,1.71-1.31.71.39,2.46-.94,3.6-1.33,1.15-1.87,3.49-4.25,4.01-2.38.52-5.86,1.4-8.51,1.01-2.64-.38-4.46-.17-5.97-.89-1.51-.73-1.73-.86-2.52-1.35-.79-.49-.48-.08-1.82-.77-1.34-.69-7.04-4.14-8.94-4.26-1.9-.12-2.3,2.06-4.75,2.27-2.45.21-1.88.49-4.6-.12-2.72-.61-5.31-.78-7.76-1.63-2.45-.85-5.01-2.07-7.14-2.71-2.14-.63-3.42-1.09-4.33-1.26-.91-.17-2.87-.6-3.1.26-.23.86-1.53.82-2.17,2.21-.63,1.38-1.13,3.32-1.17,4.71-.04,1.39.03,1.72.99,2.4.97.69.43,1.72,1.63,2.59,1.2.87,2.8,2.52,4.4,3.25,1.6.72,2.97,1.25,4.91,2.1,1.95.85,4.04-.02,5.82,1.03,1.78,1.06,5.8,1.22,3.62,2.23-2.19,1.01-4.05.47-6.56-.04-2.51-.5-2.38-1.34-3.96-1.86-1.57-.52-1.46,1.53-2.75,1.46-1.29-.07-4.01-.12-5.26.17-1.24.28-2.7-.61-4.04-.2-1.34.41-1.81.11-2.98.28-1.17.17-1.88,1.54-2.94,1.8-1.07.27-3.06-.13-3.51,1.16-.46,1.29.44,1.45,1.31,2.17.87.72,1.99,1.08,3.21,1.38,1.22.31,5.51.1,5.65,1.79.14,1.7-4.15,1.61-6.43,1.73-2.28.12-5.9-1.85-8.92-2.58-3.01-.74-5.42-.92-9.19-1.54-3.77-.62-7.74,1.26-10.19.4-2.44-.86,4.52-3.59,3.29-4.2-1.23-.62-3.58-.65-5.25-1.28-1.66-.63-2.67-.96-5.19-.62-2.52.33,3.97,3.27,3.96,5.42,0,2.15-5.56,1.51-7.48,1.56-1.92.05-4.38-2.37-6.14-3.15-1.75-.78.11-1.95-.74-3.14-1.71-2.42-3.04-2.81-7.49-.41-1.44.77-1.32.39-2.43.99-1.11.6-6.48-2.37-7.44-1.36-.96,1-2,1.88-3.93,3.26-1.93,1.39-1.29.6-2.63,1.7-1.35,1.1-4.44,2.37-4.62,3.13-.19.76-1.33,2.59-1.94,4.02-.62,1.43-4.99-.88-5.36.75-.38,1.64-1.1,3.83-1.58,4.55-.48.71-.08,3.21-.49,3.97-.41.75.07,2.68-.18,3.54-.25.86-4.08,5.61-3.76,6.19.32.58,1.45.24,2.17.27.73.02.79,1.05,2,.95,1.2-.1,8.63-.86,10.04-.77,9.68.56,12.42-1.92,10.7,1.09-.89,1.56-3.21,2.75-4,3.27-.8.53-.82.97-1.48,1.53-.67.55-.84.89-1.59,1.29-.75.4-1.06.92-1.72,1.25-.65.33-1.43.22-1.9.62-.48.4.35,1.07.88,1.39.53.33,1.87-.2,2.75.52.87.71-.5,2.52.24,3.43.75.91,2.74,1.58,2.8,3.03.06,1.45-1.66.58-2.16,1.94-.5,1.36-1.92,1.58-.71,2.88,1.21,1.3,5,1.61,6.15,2.53,1.15.91-.92,1.56-1.87,2.17-.94.6-1.11-.27-2.12.2-1.01.46.34,2.11-.62,2.63-.96.52-2.31-.82-3.19-.67-.87.15-1.9-.05-2.19,1.09-.29,1.14.02,4.36.54,5.5.52,1.14.57-1.56,1.9.03,1.8,2.17-2.38,6.56,4.49,6.34,2.15-.07,4.07,1.33,2.69,1.46-1.37.14-7.98-.04-9.2.06-1.22.1-1.58-2.35-2.66-2.3-1.08.05-.33,5.33-1.06,4.22-.74-1.11-1.52-5.84-1.43-7.08.23-2.85.57-.94-.4-2.79-.33-.64-.43-2-.69-2.74-.26-.75-.59-.48-1.21-1.03-.62-.55-1.54-.94-2.66-.24-1.12.7-1.06,1-1.37,2.35-.31,1.36-.28,5.15.38,5.96.66.82,2.12-.87,2.6,0,.47.87-.64,1.24-1.03,2-.4.76-1.05,1.78-2.09,1.8-1.05,0-2.63-2.3-3.26-.63-.62,1.67-3.84,2.41-2.52,2.15,1.3-.27,2.34,2.33,3.29,2.61.96.27,1.04.06,1.72.11.68.06.69.44,1.4,1.55.72,1.1.71,1.18,1.6,1.95.89.76,1.76,2.19,2.61,2.13.84-.05.6-2.73,1.59-3.23.99-.51,2.5-.56,3.35.09.85.65.72.58,1.07,1.33.35.74.07,1.29.92,1.76.7.39.62.46,1.12,1.3.49.84-1.04.69-.18,1.36.86.67,5.02.6,5.74,2.66.73,2.06,3.71,6.37,2.78,8.09-.94,1.73.34,2.55-1.01,3.03-1.34.48-5.69-.21-6.54.23-.86.43-.32,1.66.2,2.16.52.49,1.84.16,2.43.99.59.83,4.02.12,2.26,2.35-1.76,2.23-.11,3.26-.23,4.43-.12,1.17-.55,3.57.43,4.45.99.86,3.14-2.41,4.43-1.66,1.28.76-.99,1.51-.62,2.34.38.83,1.65.26,1.99.97.33.71-1.35,1.9-.43,2.51.92.61,3.34-1.12,4.06-.15.72.97-1.41,1.45-2.02,2.13-.6.69.02,2.2-.71,2.64-.73.45-1.48.32-2.5-.03-1.02-.35-1.72-2.17-3.17-2.34-1.45-.17-2.96,1.96-3.23,3.04-.27,1.08.46,3.66,1.26,4.64.8.98,2.84-2.12,4.14-1.92,1.31.19-.54,1.37.63,1.82,1.18.45,1.78.4,3.01.55,1.23.15,3.23.3,4.47.36,1.24.06,1.66.02,3.06.1,1.4.08,3.66-.53,5.43-.32,1.77.22,3.21.3,4.73.5,1.52.19,3.07-1.27,4.3.29,1.23,1.54-1.22.78-2.08,1.47-.86.68-.62,1.34-1.33,1.3-.71-.04-1.75.29-2.32,0-.57-.29-1.58.72-2.18,1.1-.6.38-1.51,1.14-1.69,1.88-.17.74,2.5,1.06,1.72,1.64-.78.58-3.04.14-4.14.04-1.1-.11-1.5-1.07-2.65-1.15-1.14-.07-2.34.11-3.27.09-.94-.01-1.32-1.03-2-.97-.68.06-1.45,1.59-2.93,1.69-1.47.11-3.68-1.05-5.08-.63-1.4.41-2.8,3.66.36,3.69,3.16.03,3.82,1.41,5.5,1.33,1.68-.08,2.71-1.76,4.25-1.98,1.54-.21,1.46.04,3.29.24,1.83.2,4.04,2.49,5.18,2.87,1.15.39,1.67,1.97,1.08,2.31-.34.19-5.44-.36-3.98.98.68.63,2.06.73,3.26.68,1.21-.06,1.52-.81,2.64-1.56,1.12-.74,2.47-1.79,3.46-2.43.99-.64,2.05-.66,1.93-1.3-.12-.64-.99-.64-1.06-1.33-.08-.69-.27-1.12.45-1.27.71-.15,2.06,1.23,2.94,1.26.88.04,1.11-1.23,2.11-.91,1.01.32-1.87-1.99-.83-1.54,1.04.45,1.21-1.51,2.18-.76.96.75.61,2.33,1.22,3.24.61.91,1.8-.84,2.87-.1,1.07.75-.88,3.57.53,3.59,1.41.01.9,1.01,1.71.34.81-.67,1.02.13,2.01.68.99.54,1.71,2.55,2.36,3.25.51.55,1.48-.38,1.79-.49-.06-.54-.05-2.05-.2-2.63-.23.03-.35.02-.24-.15.11-.18.18-.07.24.15.84-.12,3.56-.94,6.11,1.78,3.26,3.49-3.09,1.18-2.39,1.78.7.59.22,1.54-.04,2.41-.25.88,2.53.04,2.49.95-.07,1.55-1.28,4.63-.66,5.48.62.84,2.23,2.29,2.89,3.09,2.15,2.65,2.93,4.49,5.82,5.93,3.87,1.91,5.19,2.89,12.96,2.02,1.28-.14,4.71-2,6.21-2.29,6.3-1.21,4.07-3.79,11.75-.38,1.04.47,2.3.32,2.28-.4-.03-.68.85-2.51,1.53-5.03.57-2.08,1.7-7.18,2.64-9.49.94-2.31,1.79-5.08,3.43-5.43,1.64-.35,3.82.7,5.26.85,1.45.15,2.83-.53,4.13-.21,1.3.32,2.4.15,3.78.57,1.38.42,2.11.41,3.44.83,1.32.41,3.14,1.69,4.01,2.43.87.74,3.26,2.84,4.15,3.41,1.85,1.18,4.54,2.41,5.61,3.09,1.3.81,5.76,3.56,7.55,4.42,1.36.65,1.38.1,3.05,1.39,1.67,1.29,3.45,3.73,4.08,5.45.63,1.72,1.85,2.9,2.6,4.2.75,1.3,7.31,2.23,8.14,3.22.83.98-5.13.79-3.91,1.74,1.22.96,3.35,2.68,5.31,3.2,5.42,1.46,3.03,0,9.81-.12,1.21-.02,1.66.27,3.38.55,1.72.26.97-.68,2.62-.92,1.65-.24,3.1-.2,4.26-.02,1.17.18,2.21.4,3.45.27,1.24-.13,3.14.53,3.99-.07.85-.59,2.09-.38,2.91-.76,1.9-.89,3.28-.45,8.67-4.51.85-.64,3.39-1.28,4.84-2.25,1.45-.97,5.91-6.5,7.42-7.46,1.51-.97,2.57-2.58,3.76-3.16,1.18-.58,1.9-2.47,3.24-2.96,1.35-.5,4.08-2.84,5.48-3.16,1.39-.31,4.93,3.21,6.37,3.89,1.44.68,2.7,1.15,3.96,2.07,1.26.92,2.39,1.94,3.65,2.95,1.25,1.01,1.26,1,2.5,1.96,1.23.95.96.36,1.98.62,1.02.26.85-.92,2.07-1.05,1.22-.13,2.47.67,3.86.33,1.39-.35,1.98.14,2.39-.63.4-.78.88-.75.48-1.27-.39-.52-.4-.67.04-1.42.44-.76-1.08-2.9-.26-3.12.82-.21,1.14-.32,2.09-.36.95-.04,1.66.8,2.78.54,1.12-.26,2.65-2.72,3.34-3.35.7-.64,1.29-1.68,2.33-2.06,1.03-.38,2.91.58,3.95,1.52,3.35,3.03,1.68,8.81.9,9.27-1.15.68-3.07,1.87-4.63,3.05-1.57,1.18-4.07,3.5-5.09,4.2-1.03.7-2.22,1.83-2.58,2.64-.36.81.68,1.92,1.29,3.64.6,1.72,2.95,4.51,3.38,6.36.47,2.07-1.1,3.68-1.47,5.49-.02.06,1.25.15,3.33.95,1.8.69,4.77,5.28,5.24,3.47,1.96-7.46,3.5-3.45,4.81-5.12,1.31-1.67.96-1.15,2.34-2.53,1.38-1.37-.51-7.28,1.32-7.93,1.84-.66,7.61,3.93,9.08,2.89,1.46-1.05-.25-1.64-.57-3.4-.32-1.76-5.73-6.44-3.59-8.65,2.12-2.21,1.15-9.24,3.04-11.34,1.89-2.09,7.6,1.43,9.91,2.26,2.33.83,2.96,4.56,6.89,5.18,3.91.62,3.55.49,6.84.59,3.3.08,2.83-2.25,5.31-2.71,2.47-.46,4.79-1.17,7.47-1.73,2.68-.56,7.52-4.44,10.26-4.84,2.75-.4,4.91-1.2,7.45-.12,2.55,1.08,4.32,5.74,7.86,7.47,3.54,1.73,6.17.89,13.78,1.78,7.59.9,15.55-2.41,19.01-2.67,3.47-.25,22.65-9.97,24.09-10.71,1.45-.73,8.31-4.5,11.74-4.05,3.43.45,4.42,1.74,9.86,1.89,5.47.15,7-.58,10.1-.85,3.1-.26,5.58-1.26,8.4-2.15,2.82-.89,9.03-6.31,11.16-6.33,2.12-.03,3.64,6.79,7.64,6.19,4-.59,6.58-9.6,10.68-8.33,4.08,1.27,5.4-2.92,9.83-.9,4.45,2.02,7.55.81,10.54,3.08,3,2.26,7.13.62,9.42,1.48,2.29.86,3.57-5.17,9.12-4.09,5.55,1.09,5.5,4.15,5.14,4.93-.36.78-4.22,6.05-2.11,7.08,2.1,1.03,5.43-3.43,7.54-4.19,2.11-.75,3.2-3.24,4.96-3.77,1.76-.53,2.94,1.48,4.54.51,1.59-.98,2.1-2.06,1.03-4.43ZM516.39,738.8c-33.9,0-61.55-27.26-61.55-60.7s27.65-60.69,61.55-60.69c21.19,0,39.94,10.65,51.67,27.88-8.38-9.21-21.71-15.73-36.55-15.73-27.12,0-49.25,21.81-49.25,48.55s22.12,48.56,49.25,48.56c14.62,0,27.79-6.34,36.76-16.13-11.01,17.08-30.17,28.27-51.89,28.27ZM603.95,689.14l-13.12,17.83.03-21.86-21.58-7.01,21.58-6.78v-22.12s13.21,17.82,13.21,17.82l21.02-6.69-13.17,17.73,13.25,17.73-21.21-6.66Z"/>
    <path class="cls-1" d="M273.96,621.58c.57-.22,1.26-1.31,1.82-1.75.55-.44.92-.15,1.72-.78.79-.63,1.07-2.23,1.88-3.07.81-.83,2.13-1.32,2.98-1.94.84-.62,1.77-.48,3.11-1.59,1.34-1.12,3.8-2.56,5.06-3.44,1.26-.89,1.04-1.35,2.06-1.62,1.02-.26,2.24-1.26,3.75-1.51,1.51-.26,3.63-.92,5.09-1.01,1.47-.1,2.45-.37,3.66-.83,1.21-.47,2.23-.61,3.24-1.55,1-.94,1.77-1.39,2.95-2.48,1.18-1.08,2.8-2.32,3.89-3.63,1.08-1.32.34-3.16,1.15-3.99.81-.83,1.79.64,3.03.51,1.24-.13,2.62-1.24,4.63-.62,2.01.61,2.12,2.75,4.54,2.77,2.42.01,4.36-2.63,6.33-3.34,1.97-.71,3.62.34,5.42,1.25,1.79.91,4.26,2.96,5.8,3.49,2.73.94,2.15,1.55,6.4,1.59,1.46.01,2.69,1.08,4.23-.48,1.54-1.57,5.06-5.77,5.29-7.94.22-2.17-2.05-1.44-3.27-2.09-1.22-.65-2.82-.64-3.95-1.47-1.13-.83-2.16-1.73-3.15-2.59-1-.86-1.58-1.43-2.68-2.01-1.11-.57-2.2-.56-3.23-1.35-1.03-.79-2.76-1.76-3.56-2.69-.8-.92-1.85-1.92-2.55-2.77-.7-.86-1.74-1.6-2.27-3.18-.54-1.58-.09-4.22-.47-5.94-.37-1.71-2.34-3.72-2.3-4.75.04-1.04.81-.25,1.44-.12.63.13,1.41,1.74,1.54.26.12-1.48-1.01-2.37-1.21-3.65-.2-1.26-.18-2.28-2.41-1.68-2.23.61-2.33-.04-5.74-.24-3.41-.2-4.12.8-5.17.66-1.06-.13-2.23-1.44-2.67-2.22-.43-.79-2.73-4.03-3.86-4.86-1.13-.84-.24.15-1.81.66-1.58.5-3.13-.63-5.01-.16-1.88.47-3.51,2.92-4.91,2.82-1.4-.1-4.1-1.03-5.21-.89-1.11.14-1.15,1.09-2.11,1.82-.96.73-1.38,2-2.87,2.82-1.48.82-4.19.83-5.18,1.93-1,1.1-.43,2.56.34,2.86.77.3.48,1.99,1.34,2.34.87.35,2.21,1.05,2.58,2.96.37,1.91.92,2.24.96,3.88.04,1.64-.1,1.49-.18,2.37-.08.89-.48,2.61-1.49,3.33-1.01.71-.65.66-1.82.98-1.18.32-1.55.29-2.64.82-1.08.53-2.71.63-3.52,1.5-.81.86-1.57,1.03-1.59,2.55-.02,1.52.58,3.26-.02,4.8-.6,1.54-1.12,2.65-2.36,3.57-1.24.92-.51,2.11-1.48,3.4-.97,1.29-6.05,2.73-5.98,4.35.06,1.62-.29,1.92.73,2.69,1.01.76,14.19,1.62,16,1.59.88-.01,3.06-.68,3.73.29.66.98,1.7,1.69.91,2.4-.79.71-2.8.52-4.93,1.64-.09.05-.02-.38-.11-.34-1.55.64-2.38.12-3.52.6-.91.38-.89.71-1.92,1.01-1.04.3-1.73.7-2.43.88-.7.17-2.31.99-2.78,1.36-.47.37-2.5.82-2.76,1.74-.26.92.52,1.22.3,2.25-.22,1.03-.26,1.43-.73,2.2-.47.78-1.03,1.32-1.5,2.16-.48.84-1.37,2.01-1.59,2.73-.22.72.52.99,1.1.77Z"/>
  </g>
  <path class="cls-2" d="M205.46,845.82l6.9,22.83-39.63,12.25c-8.32,2.57-14.88,3.77-19.68,3.63-4.8-.15-9.38-2-13.77-5.58-4.37-3.59-7.62-8.89-9.75-15.92-2.26-7.45-3.01-13.53-2.25-18.23.75-4.72,2.7-8.77,5.86-12.18,3.14-3.41,7.48-6.2,12.99-8.33l9.52,20.86c-3.2,1.03-5.5,2.06-6.9,3.07-1.4,1.02-2.38,2.31-2.95,3.88-.38,1.08-.31,2.4.17,4.02.77,2.54,2.27,4.12,4.5,4.75,2.24.6,5.58.22,10.01-1.14l44.97-13.9h0ZM213.81,1002.04l-15.77-21.95-12.36,4.46-14.15-19.7,78.52-21.87,15.1,21.01-44.83,68.78-14.49-20.17,7.98-10.55h0ZM224.25,988.2l17.22-23.19-27.1,9.44,9.88,13.76h0ZM318.18,1022.13l18.67,11.79,1.99,51.55,22.35-36.17,18.83,11.9-40.4,65.39-18.83-11.91-2.05-51.19-22.18,35.89-18.78-11.87,40.4-65.38h0ZM435.41,1086.01l34.24,7.36c6.73,1.45,11.99,3.55,15.77,6.29,3.76,2.76,6.64,6.15,8.62,10.19,1.97,4.06,3.09,8.5,3.36,13.36.25,4.86-.16,9.86-1.24,15.01-1.7,8.06-3.91,14.11-6.67,18.17-2.74,4.05-6.04,7.23-9.9,9.53-3.84,2.31-7.72,3.57-11.63,3.78-5.34.28-10.07-.02-14.16-.9l-34.24-7.36,15.85-75.42h0ZM454.86,1108.05l-8.66,41.2,5.64,1.2c4.83,1.04,8.36,1.25,10.62.59,2.26-.63,4.25-2.19,5.98-4.62,1.71-2.44,3.2-6.7,4.47-12.74,1.68-7.98,1.55-13.72-.4-17.22-1.97-3.51-5.93-5.9-11.9-7.18l-5.75-1.24h0ZM616.14,1159.73l-26.64,3.31-2.13,13.09-23.89,2.96,19.15-80.06,25.48-3.17,37.75,73-24.47,3.04-5.24-12.18h0ZM609.24,1143.79l-11.7-26.47-4.98,28.54,16.69-2.07h0ZM721.16,1141.74l-36.97-67.43,34.36-19.25c6.36-3.57,11.53-5.75,15.51-6.52,3.96-.79,7.8-.27,11.5,1.57,3.7,1.83,6.72,4.9,9.08,9.18,2.05,3.75,3.02,7.41,2.95,11.01-.1,3.6-1.06,7.02-2.89,10.25-1.18,2.06-3.1,4.3-5.78,6.71,2.91-.54,5.14-.71,6.74-.52,1.04.13,2.8.69,5.23,1.69,2.44,1.01,4.17,1.85,5.19,2.57l20.68,13.96-23.29,13.06-22.29-14.44c-2.86-1.87-5.06-2.92-6.59-3.1-2.04-.21-4.03.22-5.9,1.27l-1.81,1.02,14.99,27.37-20.7,11.59h0ZM719.87,1090.03l8.68-4.87c.95-.52,2.59-1.84,4.96-3.97,1.21-1.05,1.94-2.38,2.2-4,.23-1.61-.05-3.15-.86-4.63-1.2-2.18-2.8-3.46-4.79-3.86-2.02-.41-4.9.45-8.66,2.55l-9.05,5.08,7.51,13.71h0ZM788.95,1007.25l19.5-24.36,43.57,20.12-28.55-38.88,19.44-24.28,59.26,48.52-12.11,15.12-45.18-37,35.78,48.73-10.97,13.69-54.53-25.31,45.17,37-12.14,15.17-59.24-48.52h0ZM945.3,860.92l-8.74,25.66,10.7,7.68-7.83,23.02-62.76-52.5,8.35-24.56,81.42-2.31-8.02,23.57-13.13-.56h0ZM928.1,860.21l-28.66-.96,23.19,17.04,5.47-16.08Z"/>
  <path class="cls-2" d="M153.86,631.07c31.38-30.57,20.61-57.71,5.77-43.27-8.3,8.08-16.59,15.58-16.59,15.58,0,0,3.97-7.5,3.97-24.8s-4.33-31.73-11.91-31.73-11.9,14.43-11.9,31.73,3.97,24.8,3.97,24.8c0,0-8.3-7.5-16.59-15.58-14.84-14.44-25.62,12.7,5.77,43.27-46.29-32.73-39.81,5.06-13.35,29.13,10.46,9.51,27.42,22.49,32.11,22.49s20.2-12.98,30.67-22.49c26.47-24.08,34.39-61.87-11.9-29.13ZM150.61,655.88c-4.16,2.96-16.24,11.24-16.24,11.24,0,0-11.35-9.14-15.51-12.11-7.12-5.06-16.56-13.11-15.15-14.42,2.94-2.75,26.34,15.29,26.34,15.29l.72-30c-14.43-10.67-23.08-20.48-20.92-22.5,2.16-2.02,22,12.98,22,12.98-.72-34.9,0-44.12,2.52-44.12s3.25,9.22,2.53,44.12c0,0,19.84-14.99,22-12.98,2.16,2.02-8.3,12.4-22.73,23.08l-.36,30s25.56-17.74,28.5-14.99c1.41,1.31-6.58,9.36-13.7,14.42Z"/>
  <path class="cls-2" d="M153.86,373.36c31.38-30.57,20.61-57.71,5.77-43.27-8.3,8.08-16.59,15.58-16.59,15.58,0,0,3.97-7.5,3.97-24.81s-4.33-31.73-11.91-31.73-11.9,14.43-11.9,31.73,3.97,24.81,3.97,24.81c0,0-8.3-7.5-16.59-15.58-14.84-14.44-25.62,12.7,5.77,43.27-46.29-32.73-39.81,5.06-13.35,29.13,10.46,9.51,27.42,22.49,32.11,22.49s20.2-12.98,30.67-22.49c26.47-24.08,34.39-61.87-11.9-29.13ZM150.61,398.17c-4.16,2.96-16.24,11.25-16.24,11.25,0,0-11.35-9.15-15.51-12.11-7.12-5.06-16.56-13.11-15.15-14.42,2.94-2.75,26.34,15.29,26.34,15.29l.72-30c-14.43-10.67-23.08-20.47-20.92-22.49,2.16-2.02,22,12.98,22,12.98-.72-34.9,0-44.12,2.52-44.12s3.25,9.22,2.53,44.12c0,0,19.84-15,22-12.98,2.16,2.02-8.3,12.4-22.73,23.08l-.36,29.99s25.56-17.74,28.5-14.99c1.41,1.31-6.58,9.36-13.7,14.42Z"/>
  <path class="cls-2" d="M153.86,244.51c31.38-30.57,20.61-57.71,5.77-43.27-8.3,8.08-16.59,15.58-16.59,15.58,0,0,3.97-7.5,3.97-24.81s-4.33-31.73-11.91-31.73-11.9,14.43-11.9,31.73,3.97,24.81,3.97,24.81c0,0-8.3-7.5-16.59-15.58-14.84-14.44-25.62,12.7,5.77,43.27-46.29-32.73-39.81,5.05-13.35,29.13,10.46,9.51,27.42,22.5,32.11,22.5s20.2-12.98,30.67-22.5c26.47-24.08,34.39-61.86-11.9-29.13ZM150.61,269.31c-4.16,2.96-16.24,11.25-16.24,11.25,0,0-11.35-9.14-15.51-12.11-7.12-5.06-16.56-13.11-15.15-14.42,2.94-2.75,26.34,15.29,26.34,15.29l.72-30c-14.43-10.67-23.08-20.48-20.92-22.49,2.16-2.02,22,12.97,22,12.97-.72-34.9,0-44.12,2.52-44.12s3.25,9.22,2.53,44.12c0,0,19.84-14.99,22-12.97,2.16,2.02-8.3,12.4-22.73,23.07l-.36,30s25.56-17.74,28.5-14.99c1.41,1.31-6.58,9.36-13.7,14.42Z"/>
  <path class="cls-2" d="M153.86,502.22c31.38-30.57,20.61-57.71,5.77-43.27-8.3,8.08-16.59,15.58-16.59,15.58,0,0,3.97-7.5,3.97-24.81s-4.33-31.73-11.91-31.73-11.9,14.43-11.9,31.73,3.97,24.81,3.97,24.81c0,0-8.3-7.5-16.59-15.58-14.84-14.44-25.62,12.7,5.77,43.27-46.29-32.73-39.81,5.06-13.35,29.13,10.46,9.51,27.42,22.49,32.11,22.49s20.2-12.98,30.67-22.49c26.47-24.08,34.39-61.87-11.9-29.13ZM150.61,527.02c-4.16,2.96-16.24,11.25-16.24,11.25,0,0-11.35-9.15-15.51-12.11-7.12-5.06-16.56-13.11-15.15-14.42,2.94-2.75,26.34,15.29,26.34,15.29l.72-30c-14.43-10.67-23.08-20.47-20.92-22.49,2.16-2.02,22,12.98,22,12.98-.72-34.9,0-44.12,2.52-44.12s3.25,9.22,2.53,44.12c0,0,19.84-15,22-12.98,2.16,2.02-8.3,12.4-22.73,23.08l-.36,29.99s25.56-17.74,28.5-14.99c1.41,1.31-6.58,9.36-13.7,14.42Z"/>
  <path class="cls-2" d="M963.33,631.07c31.38-30.57,20.61-57.71,5.77-43.27-8.3,8.08-16.59,15.58-16.59,15.58,0,0,3.97-7.5,3.97-24.8s-4.33-31.73-11.91-31.73-11.9,14.43-11.9,31.73,3.97,24.8,3.97,24.8c0,0-8.3-7.5-16.59-15.58-14.84-14.44-25.62,12.7,5.77,43.27-46.29-32.73-39.81,5.06-13.35,29.13,10.46,9.51,27.42,22.49,32.11,22.49s20.2-12.98,30.67-22.49c26.47-24.08,34.39-61.87-11.9-29.13ZM960.08,655.88c-4.16,2.96-16.24,11.24-16.24,11.24,0,0-11.35-9.14-15.51-12.11-7.13-5.06-16.56-13.11-15.15-14.42,2.94-2.75,26.34,15.29,26.34,15.29l.72-30c-14.43-10.67-23.08-20.48-20.92-22.5,2.16-2.02,22,12.98,22,12.98-.72-34.9,0-44.12,2.52-44.12s3.25,9.22,2.53,44.12c0,0,19.83-14.99,22-12.98,2.16,2.02-8.3,12.4-22.73,23.08l-.36,30s25.56-17.74,28.5-14.99c1.41,1.31-6.58,9.36-13.7,14.42Z"/>
  <path class="cls-2" d="M963.33,373.36c31.38-30.57,20.61-57.71,5.77-43.27-8.3,8.08-16.59,15.58-16.59,15.58,0,0,3.97-7.5,3.97-24.81s-4.33-31.73-11.91-31.73-11.9,14.43-11.9,31.73,3.97,24.81,3.97,24.81c0,0-8.3-7.5-16.59-15.58-14.84-14.44-25.62,12.7,5.77,43.27-46.29-32.73-39.81,5.06-13.35,29.13,10.46,9.51,27.42,22.49,32.11,22.49s20.2-12.98,30.67-22.49c26.47-24.08,34.39-61.87-11.9-29.13ZM960.08,398.17c-4.16,2.96-16.24,11.25-16.24,11.25,0,0-11.35-9.15-15.51-12.11-7.13-5.06-16.56-13.11-15.15-14.42,2.94-2.75,26.34,15.29,26.34,15.29l.72-30c-14.43-10.67-23.08-20.47-20.92-22.49,2.16-2.02,22,12.98,22,12.98-.72-34.9,0-44.12,2.52-44.12s3.25,9.22,2.53,44.12c0,0,19.83-15,22-12.98,2.16,2.02-8.3,12.4-22.73,23.08l-.36,29.99s25.56-17.74,28.5-14.99c1.41,1.31-6.58,9.36-13.7,14.42Z"/>
  <path class="cls-2" d="M963.33,244.51c31.38-30.57,20.61-57.71,5.77-43.27-8.3,8.08-16.59,15.58-16.59,15.58,0,0,3.97-7.5,3.97-24.81s-4.33-31.73-11.91-31.73-11.9,14.43-11.9,31.73,3.97,24.81,3.97,24.81c0,0-8.3-7.5-16.59-15.58-14.84-14.44-25.62,12.7,5.77,43.27-46.29-32.73-39.81,5.05-13.35,29.13,10.46,9.51,27.42,22.5,32.11,22.5s20.2-12.98,30.67-22.5c26.47-24.08,34.39-61.86-11.9-29.13ZM960.08,269.31c-4.16,2.96-16.24,11.25-16.24,11.25,0,0-11.35-9.14-15.51-12.11-7.13-5.06-16.56-13.11-15.15-14.42,2.94-2.75,26.34,15.29,26.34,15.29l.72-30c-14.43-10.67-23.08-20.48-20.92-22.49,2.16-2.02,22,12.97,22,12.97-.72-34.9,0-44.12,2.52-44.12s3.25,9.22,2.53,44.12c0,0,19.83-14.99,22-12.97,2.16,2.02-8.3,12.4-22.73,23.07l-.36,30s25.56-17.74,28.5-14.99c1.41,1.31-6.58,9.36-13.7,14.42Z"/>
  <path class="cls-2" d="M963.33,502.22c31.38-30.57,20.61-57.71,5.77-43.27-8.3,8.08-16.59,15.58-16.59,15.58,0,0,3.97-7.5,3.97-24.81s-4.33-31.73-11.91-31.73-11.9,14.43-11.9,31.73,3.97,24.81,3.97,24.81c0,0-8.3-7.5-16.59-15.58-14.84-14.44-25.62,12.7,5.77,43.27-46.29-32.73-39.81,5.06-13.35,29.13,10.46,9.51,27.42,22.49,32.11,22.49s20.2-12.98,30.67-22.49c26.47-24.08,34.39-61.87-11.9-29.13ZM960.08,527.02c-4.16,2.96-16.24,11.25-16.24,11.25,0,0-11.35-9.15-15.51-12.11-7.13-5.06-16.56-13.11-15.15-14.42,2.94-2.75,26.34,15.29,26.34,15.29l.72-30c-14.43-10.67-23.08-20.47-20.92-22.49,2.16-2.02,22,12.98,22,12.98-.72-34.9,0-44.12,2.52-44.12s3.25,9.22,2.53,44.12c0,0,19.83-15,22-12.98,2.16,2.02-8.3,12.4-22.73,23.08l-.36,29.99s25.56-17.74,28.5-14.99c1.41,1.31-6.58,9.36-13.7,14.42Z"/>
</svg>