<?xml version="1.0" encoding="UTF-8"?>
<svg id="katman_1" data-name="katman 1" xmlns="http://www.w3.org/2000/svg" viewBox="0 0 1080 468.26">
  <defs>
    <style>
      .cls-1, .cls-2 {
        fill: #fff;
      }

      .cls-2 {
        fill-rule: evenodd;
      }
    </style>
  </defs>
  <g>
    <g>
      <path class="cls-1" d="M863.19,147.52c-1.64,1.49-2.06,3.9-1.02,5.85l.95,1.78,39.98-35.97c1.02-.92,1.6-2.22,1.6-3.59v-5.62l-41.51,37.54Z"/>
      <path class="cls-1" d="M874.37,176.22l1.29,2.42,27.45-24.93c1.01-.91,1.58-2.21,1.58-3.57v-6.22l-29.31,26.44c-1.65,1.49-2.07,3.9-1.02,5.86Z"/>
      <path class="cls-1" d="M868.12,164.52l1.25,2.35,33.73-30.35c1.02-.92,1.6-2.22,1.6-3.59v-6.35l-35.56,32.08c-1.65,1.49-2.07,3.9-1.02,5.86Z"/>
    </g>
    <g>
      <path class="cls-1" d="M859.95,182.09l-5.65-10.38c-3.07-5.64-10.61-6.93-15.38-2.64l-69.58,62.56c-8.24,7.41-20.59-2.18-15.46-12l26.22-50.18c3.68-7.05,13.74-7.14,17.55-.15h0c3.08,5.65,10.64,6.94,15.41,2.61l9.08-8.23c3.38-3.06,4.24-8.03,2.09-12.05l-21.56-40.38c-5.15-9.65-18.98-9.67-24.16-.04l-116.54,216.31c-6.04,11.22.94,24.63,12.89,26.72,2.99.52,6.06-.38,8.31-2.42l143.46-129.31v.03s31.27-28.32,31.27-28.32c3.4-3.08,4.25-8.09,2.06-12.13Z"/>
      <path class="cls-1" d="M860.72,219.98c-1.48-2.77-5.17-3.41-7.5-1.3l-16.4,14.86c-1.65,1.5-2.06,3.93-1,5.88l61.32,112.58c.85,1.55,2.47,2.52,4.24,2.52h23.12c3.64,0,5.97-3.88,4.26-7.1l-68.05-127.44Z"/>
      <path class="cls-1" d="M1000.5,225.65h-90.97c-2.67,0-4.83-2.16-4.83-4.83v-37.69c0-4.18-4.95-6.38-8.05-3.59l-14.3,12.85c-1.02.92-1.6,2.22-1.6,3.59v22.97c0,.81.2,1.6.59,2.31l14.07,25.82c.85,1.55,2.47,2.52,4.24,2.52h100.85c2.67,0,4.83-2.16,4.83-4.83v-14.3c0-2.67-2.16-4.83-4.83-4.83Z"/>
      <path class="cls-1" d="M1049.93,109.98h-19.32c-1.83.41-3.39,1.59-4.29,3.24l-28.2,51.69c-.87,1.59-2.09,2.96-3.56,4h0c-2.92,2.06-6.82,2.06-9.75,0-1.48-1.04-2.7-2.41-3.56-4l-28.2-51.69c-.9-1.64-2.46-2.82-4.29-3.24h-19.32c-2.67,0-4.83,2.16-4.83,4.83v85.41c0,2.67,2.16,4.83,4.83,4.83h21.69l-.19-3.78v-21.82c0-5.01,6.69-6.7,9.07-2.29l13.68,25.36c.84,1.56,2.47,2.53,4.25,2.53h23.48c1.77,0,3.4-.97,4.25-2.53l13.68-25.36c2.38-4.41,9.07-2.72,9.07,2.29v21.82l-.19,48.34h21.69c2.67,0,4.83-2.16,4.83-4.83V114.8c0-2.67-2.16-4.83-4.83-4.83Z"/>
    </g>
  </g>
  <g>
    <path class="cls-1" d="M195.44,450.8h-.05c-47.93-1.3-89.96-18.47-121.54-49.65-30.97-30.58-50.04-72.65-55.15-121.66v-.19s-.6-19.37-.6-19.37l-.03-241.71h354.87l-.18,241.55-.58,19.71c-4.91,47.63-24.53,90.78-55.22,121.5-32.17,32.2-74.18,49.43-121.48,49.83h-.05ZM23.83,279.05c10.33,98.65,77.7,164.04,171.65,166.6,90.95-.79,161.49-69.29,171.57-166.61l.57-19.35.17-236.32H23.22l.03,236.47.58,19.2Z"/>
    <path class="cls-1" d="M195.41,392.52h-.05c-32.22-.95-60.46-13.54-81.68-36.4-20.75-22.35-33.52-53.07-36.94-88.85v-.17s-.4-14.09-.4-14.09v-18.47s-.02-158.04-.02-158.04h238.3l.08,157.87-.2,18.53-.39,14.36c-3.29,34.77-16.42,66.28-36.99,88.73-21.62,23.6-49.86,36.23-81.66,36.52h-.05ZM81.87,266.87c6.86,71.35,51.43,118.64,113.58,120.5,60.16-.58,106.82-50.12,113.51-120.5l.37-14.05.2-18.46-.08-152.69H81.47v152.88s.02,18.39.02,18.39l.39,13.93Z"/>
    <path class="cls-1" d="M310.65,270.24l.55-190.25H79.88s.45,190.19.45,190.19l-60.56-13.21-.04-237.09h351.54s-.12,237.08-.12,237.08l-60.51,13.28ZM316.37,74.83l-.55,189,50.19-11.02.11-227.77H24.89s.04,227.78.04,227.78l50.24,10.96-.45-188.94h241.66Z"/>
    <path class="cls-2" d="M173.91,39.27c-8.69-9.51-22.32-12.35-10.51,4.28-11.03-11.28-20.82-7.4-15.61-2.07,2.91,2.98,5.62,5.96,5.62,5.96,0,0-2.71-1.43-8.95-1.43s-11.45,1.56-11.45,4.28,5.21,4.28,11.45,4.28,8.95-1.43,8.95-1.43c0,0-2.71,2.98-5.62,5.96-5.21,5.33,4.58,9.2,15.61-2.07-11.81,16.63,1.82,14.3,10.51,4.79,3.43-3.76,8.12-9.85,8.12-11.54s-4.68-7.26-8.12-11.02ZM172.03,56.12c-1.83,2.56-4.73,5.95-5.2,5.44-.99-1.06,5.52-9.46,5.52-9.46l-10.82-.26c-3.85,5.19-7.39,8.29-8.12,7.52-.73-.78,4.68-7.91,4.68-7.91-12.59.26-15.92,0-15.92-.91s3.33-1.17,15.92-.91c0,0-5.41-7.13-4.68-7.9.73-.78,4.47,2.98,8.33,8.16l10.82.13s-6.4-9.18-5.41-10.24c.47-.51,3.38,2.36,5.2,4.92,1.07,1.49,4.06,5.83,4.06,5.83,0,0-3.3,4.08-4.37,5.57Z"/>
    <path class="cls-2" d="M79.61,39.27c-8.69-9.51-22.32-12.35-10.51,4.28-11.03-11.28-20.82-7.4-15.61-2.07,2.92,2.98,5.62,5.96,5.62,5.96,0,0-2.71-1.43-8.95-1.43s-11.45,1.56-11.45,4.28,5.21,4.28,11.45,4.28,8.95-1.43,8.95-1.43c0,0-2.71,2.98-5.62,5.96-5.21,5.33,4.58,9.2,15.61-2.07-11.81,16.63,1.82,14.3,10.51,4.79,3.43-3.76,8.12-9.85,8.12-11.54s-4.68-7.26-8.12-11.02ZM77.73,56.12c-1.83,2.56-4.73,5.95-5.2,5.44-.99-1.06,5.52-9.46,5.52-9.46l-10.83-.26c-3.85,5.19-7.39,8.29-8.12,7.52-.73-.78,4.68-7.91,4.68-7.91-12.59.26-15.92,0-15.92-.91s3.33-1.17,15.92-.91c0,0-5.41-7.13-4.68-7.9.73-.78,4.47,2.98,8.33,8.16l10.82.13s-6.4-9.18-5.41-10.24c.47-.51,3.38,2.36,5.2,4.92,1.07,1.49,4.06,5.83,4.06,5.83,0,0-3.3,4.08-4.37,5.57Z"/>
    <path class="cls-2" d="M126.76,39.27c-8.69-9.51-22.32-12.35-10.51,4.28-11.03-11.28-20.82-7.4-15.61-2.07,2.92,2.98,5.62,5.96,5.62,5.96,0,0-2.71-1.43-8.95-1.43s-11.45,1.56-11.45,4.28,5.21,4.28,11.45,4.28,8.95-1.43,8.95-1.43c0,0-2.71,2.98-5.62,5.96-5.21,5.33,4.58,9.2,15.61-2.07-11.81,16.63,1.82,14.3,10.51,4.79,3.43-3.76,8.12-9.85,8.12-11.54s-4.68-7.26-8.12-11.02ZM124.88,56.12c-1.83,2.56-4.73,5.95-5.2,5.44-.99-1.06,5.52-9.46,5.52-9.46l-10.82-.26c-3.85,5.19-7.39,8.29-8.12,7.52-.73-.78,4.68-7.91,4.68-7.91-12.59.26-15.92,0-15.92-.91s3.33-1.17,15.92-.91c0,0-5.41-7.13-4.68-7.9.73-.78,4.47,2.98,8.33,8.16l10.82.13s-6.4-9.18-5.41-10.24c.47-.51,3.38,2.36,5.2,4.92,1.07,1.49,4.06,5.83,4.06,5.83,0,0-3.3,4.08-4.37,5.57Z"/>
    <path class="cls-2" d="M246.33,46.01c-6.24,0-8.95,1.43-8.95,1.43,0,0,2.71-2.98,5.62-5.96,5.21-5.33-4.58-9.2-15.61,2.07,11.81-16.63-1.82-13.79-10.51-4.28-3.43,3.76-8.12,9.33-8.12,11.02s4.68,7.78,8.12,11.54c8.69,9.51,22.32,11.83,10.51-4.79,11.03,11.27,20.82,7.4,15.61,2.07-2.91-2.98-5.62-5.96-5.62-5.96,0,0,2.71,1.43,8.95,1.43s11.45-1.55,11.45-4.28-5.21-4.28-11.45-4.28ZM232.7,51.46s5.41,7.13,4.68,7.91c-.73.78-4.27-2.33-8.12-7.52l-10.82.26s6.51,8.41,5.52,9.46c-.47.51-3.38-2.88-5.2-5.44-1.07-1.49-4.37-5.57-4.37-5.57,0,0,2.99-4.34,4.06-5.83,1.83-2.56,4.73-5.43,5.2-4.92.99,1.05-5.41,10.24-5.41,10.24l10.82-.13c3.85-5.18,7.6-8.94,8.33-8.16.73.78-4.68,7.9-4.68,7.9,12.59-.26,15.92,0,15.92.91s-3.33,1.17-15.92.91Z"/>
    <path class="cls-2" d="M340.63,46.01c-6.24,0-8.95,1.43-8.95,1.43,0,0,2.71-2.98,5.62-5.96,5.21-5.33-4.58-9.2-15.61,2.07,11.81-16.63-1.82-13.79-10.51-4.28-3.43,3.76-8.12,9.33-8.12,11.02s4.68,7.78,8.12,11.54c8.69,9.51,22.32,11.83,10.51-4.79,11.03,11.27,20.82,7.4,15.61,2.07-2.92-2.98-5.62-5.96-5.62-5.96,0,0,2.71,1.43,8.95,1.43s11.45-1.55,11.45-4.28-5.21-4.28-11.45-4.28ZM327,51.46s5.41,7.13,4.68,7.91c-.73.78-4.27-2.33-8.12-7.52l-10.83.26s6.51,8.41,5.52,9.46c-.47.51-3.38-2.88-5.2-5.44-1.07-1.49-4.37-5.57-4.37-5.57,0,0,2.99-4.34,4.06-5.83,1.83-2.56,4.73-5.43,5.2-4.92.99,1.05-5.41,10.24-5.41,10.24l10.82-.13c3.85-5.18,7.6-8.94,8.33-8.16.73.78-4.68,7.9-4.68,7.9,12.59-.26,15.92,0,15.92.91s-3.33,1.17-15.92.91Z"/>
    <path class="cls-2" d="M293.48,46.01c-6.24,0-8.95,1.43-8.95,1.43,0,0,2.71-2.98,5.62-5.96,5.21-5.33-4.58-9.2-15.61,2.07,11.81-16.63-1.82-13.79-10.51-4.28-3.43,3.76-8.12,9.33-8.12,11.02s4.68,7.78,8.12,11.54c8.69,9.51,22.32,11.83,10.51-4.79,11.03,11.27,20.82,7.4,15.61,2.07-2.92-2.98-5.62-5.96-5.62-5.96,0,0,2.71,1.43,8.95,1.43s11.45-1.55,11.45-4.28-5.21-4.28-11.45-4.28ZM279.85,51.46s5.41,7.13,4.68,7.91c-.73.78-4.27-2.33-8.12-7.52l-10.82.26s6.51,8.41,5.52,9.46c-.47.51-3.38-2.88-5.2-5.44-1.07-1.49-4.37-5.57-4.37-5.57,0,0,2.99-4.34,4.06-5.83,1.83-2.56,4.73-5.43,5.2-4.92.99,1.05-5.41,10.24-5.41,10.24l10.82-.13c3.85-5.18,7.6-8.94,8.33-8.16.73.78-4.68,7.9-4.68,7.9,12.59-.26,15.92,0,15.92.91s-3.33,1.17-15.92.91Z"/>
    <g>
      <path class="cls-2" d="M204.64,60.86c.57,0,1.03-.51,1.03-1.14v-18.99c0-.62-.46-1.14-1.03-1.14h-2.28c-.57,0-1.02.51-1.02,1.14v18.99c0,.63.46,1.14,1.02,1.14h2.28Z"/>
      <path class="cls-2" d="M208.92,60.86c.56,0,1.02-.51,1.02-1.14v-18.99c0-.62-.46-1.14-1.02-1.14h-2.28c-.56,0-1.02.51-1.02,1.14v18.99c0,.63.46,1.14,1.02,1.14h2.28Z"/>
      <path class="cls-2" d="M201.41,60.9c0,3.29-2.64,5.96-5.89,5.96s-5.9-2.67-5.9-5.96v-20.94c0-3.29,2.64-5.96,5.9-5.96s5.89,2.67,5.89,5.96v20.94Z"/>
      <path class="cls-2" d="M186.38,60.86c-.56,0-1.02-.51-1.02-1.14v-18.99c0-.62.46-1.14,1.02-1.14h2.28c.56,0,1.02.51,1.02,1.14v18.99c0,.63-.46,1.14-1.02,1.14h-2.28Z"/>
      <path class="cls-2" d="M182.09,60.92c-.56,0-1.02-.51-1.02-1.14v-18.99c0-.62.46-1.14,1.02-1.14h2.28c.56,0,1.02.51,1.02,1.14v18.99c0,.63-.46,1.14-1.02,1.14h-2.28Z"/>
    </g>
    <path class="cls-2" d="M231.8,361c3.12-5.23-3.9-8.05-1.15-9.25,2.9-1.26,3.3,1.31,3.3,1.31,0,0-3.32-5.06-.67-5.14,2.65-.09,3.12,2.34,3.12,2.34,0,0-1.3-6.25,1.82-5.98,3.12.27.65,6.35.65,6.35,0,0,.82-3.28,3.62-2.06,2.8,1.22-3.6,5.43-4.27,6.92,0,0,3.34-4.3,5.1-3.36,3.28,1.77-4.27,4.66-5.42,6.62-1.15,1.96-2.8,3-2.8,3,0,0-5.23,2.48-3.3-.75Z"/>
    <path class="cls-2" d="M232.13,353.34s3.95,3.94,2.47,6.45"/>
    <path class="cls-2" d="M234.43,350.44s2.62,2.06,1.65,6.17"/>
    <path class="cls-2" d="M238.05,346.61s-.48,4.47-.97,6.35"/>
    <path class="cls-2" d="M241.17,350.26s-3.94,2.52-4.59,4.58"/>
    <path class="cls-2" d="M241.67,354.46s-6.57,3.84-7.39,5.98"/>
    <path class="cls-2" d="M231.8,361c3.12-5.23-3.9-8.05-1.15-9.25,2.9-1.26,3.3,1.31,3.3,1.31,0,0-3.32-5.06-.67-5.14,2.65-.09,3.12,2.34,3.12,2.34,0,0-1.3-6.25,1.82-5.98,3.12.27.65,6.35.65,6.35,0,0,.82-3.28,3.62-2.06,2.8,1.22-3.6,5.43-4.27,6.92,0,0,3.34-4.3,5.1-3.36,3.28,1.77-4.27,4.66-5.42,6.62-1.15,1.96-2.8,3-2.8,3,0,0-5.23,2.48-3.3-.75Z"/>
    <path class="cls-2" d="M232.13,353.34s3.95,3.94,2.47,6.45"/>
    <path class="cls-2" d="M234.43,350.44s2.62,2.06,1.65,6.17"/>
    <path class="cls-2" d="M238.05,346.61s-.48,4.47-.97,6.35"/>
    <path class="cls-2" d="M241.17,350.26s-3.94,2.52-4.59,4.58"/>
    <path class="cls-2" d="M241.67,354.46s-6.57,3.84-7.39,5.98"/>
    <path class="cls-2" d="M216.32,367.11c6.14-4.28,1.3-8.32,4.62-8.89,3.49-.6,2.28,1.88,2.28,1.88,0,0,0-5.4,2.54-4.95,2.53.45,1.48,2.82,1.48,2.82,0,0,2.63-6.12,5.39-5.24,2.76.88-3.3,6.08-3.3,6.08,0,0,2.79-2.91,4.66-1.21,1.87,1.7-6.72,4.37-8.26,5.63,0,0,5.78-3.37,6.84-2.13,1.98,2.31-6.87,3.52-9.15,5.13-2.28,1.61-4.46,2.25-4.46,2.25,0,0-6.42,1.28-2.62-1.36Z"/>
    <path class="cls-2" d="M221.34,360.01s1.28,4.47-1.66,6.53"/>
    <path class="cls-2" d="M225.28,357.74s1.19,2.45-2.25,6.11"/>
    <path class="cls-2" d="M231.04,354.87s-3.2,4.1-4.83,5.76"/>
    <path class="cls-2" d="M231.71,358.92s-5.24,1.57-7.12,3.37"/>
    <path class="cls-2" d="M229.59,362.96s-8.51,2.28-10.61,4.13"/>
    <path class="cls-2" d="M216.32,367.11c6.14-4.28,1.3-8.32,4.62-8.89,3.49-.6,2.28,1.88,2.28,1.88,0,0,0-5.4,2.54-4.95,2.53.45,1.48,2.82,1.48,2.82,0,0,2.63-6.12,5.39-5.24,2.76.88-3.3,6.08-3.3,6.08,0,0,2.79-2.91,4.66-1.21,1.87,1.7-6.72,4.37-8.26,5.63,0,0,5.78-3.37,6.84-2.13,1.98,2.31-6.87,3.52-9.15,5.13-2.28,1.61-4.46,2.25-4.46,2.25,0,0-6.42,1.28-2.62-1.36Z"/>
    <path class="cls-2" d="M221.34,360.01s1.28,4.47-1.66,6.53"/>
    <path class="cls-2" d="M225.28,357.74s1.19,2.45-2.25,6.11"/>
    <path class="cls-2" d="M231.04,354.87s-3.2,4.1-4.83,5.76"/>
    <path class="cls-2" d="M231.71,358.92s-5.24,1.57-7.12,3.37"/>
    <path class="cls-2" d="M229.59,362.96s-8.51,2.28-10.61,4.13"/>
    <path class="cls-2" d="M224.21,369.23c6.88-3.9,2.78-8.2,6.18-8.58,3.59-.39,1.94,2,1.94,2,0,0,.97-5.37,3.41-4.78,2.44.59.97,2.89.97,2.89,0,0,3.71-5.93,6.3-4.9,2.59,1.03-4.37,5.86-4.37,5.86,0,0,3.29-2.73,4.85-.93,1.56,1.8-7.46,3.96-9.22,5.13,0,0,6.35-3.02,7.18-1.72,1.56,2.41-7.46,3.1-10.02,4.57-2.56,1.47-4.84,1.98-4.84,1.98,0,0-6.62.9-2.37-1.51Z"/>
    <path class="cls-2" d="M230.47,362.45s.47,4.52-2.81,6.41"/>
    <path class="cls-2" d="M234.78,360.43s.75,2.51-3.33,5.94"/>
    <path class="cls-2" d="M241.02,357.9s-3.92,3.89-5.82,5.45"/>
    <path class="cls-2" d="M240.97,361.96s-5.5,1.26-7.69,2.94"/>
    <path class="cls-2" d="M238.14,365.86s-8.88,1.78-11.29,3.5"/>
    <path class="cls-2" d="M224.21,369.23c6.88-3.9,2.78-8.2,6.18-8.58,3.59-.39,1.94,2,1.94,2,0,0,.97-5.37,3.41-4.78,2.44.59.97,2.89.97,2.89,0,0,3.71-5.93,6.3-4.9,2.59,1.03-4.37,5.86-4.37,5.86,0,0,3.29-2.73,4.85-.93,1.56,1.8-7.46,3.96-9.22,5.13,0,0,6.35-3.02,7.18-1.72,1.56,2.41-7.46,3.1-10.02,4.57-2.56,1.47-4.84,1.98-4.84,1.98,0,0-6.62.9-2.37-1.51Z"/>
    <path class="cls-2" d="M230.47,362.45s.47,4.52-2.81,6.41"/>
    <path class="cls-2" d="M234.78,360.43s.75,2.51-3.33,5.94"/>
    <path class="cls-2" d="M241.02,357.9s-3.92,3.89-5.82,5.45"/>
    <path class="cls-2" d="M240.97,361.96s-5.5,1.26-7.69,2.94"/>
    <path class="cls-2" d="M238.14,365.86s-8.88,1.78-11.29,3.5"/>
    <path class="cls-2" d="M205.3,371.13c7.78-3.31,4.8-7.9,8.26-8,3.65-.1,1.42,2.14,1.42,2.14,0,0,2.3-5.24,4.56-4.45,2.27.78.24,2.93.24,2.93,0,0,5.15-5.57,7.46-4.34,2.3,1.23-5.79,5.45-5.79,5.45,0,0,3.95-2.44,5.04-.53,1.09,1.91-8.37,3.32-10.41,4.33,0,0,7.04-2.48,7.54-1.13.94,2.51-8.16,2.47-11.06,3.71-2.9,1.25-5.29,1.57-5.29,1.57,0,0-6.77.36-1.97-1.68Z"/>
    <path class="cls-2" d="M213.19,364.92s-.66,4.51-4.38,6.11"/>
    <path class="cls-2" d="M217.97,363.27s.11,2.54-4.78,5.61"/>
    <path class="cls-2" d="M224.77,361.27s-4.85,3.54-7.13,4.92"/>
    <path class="cls-2" d="M223.71,365.29s-5.76.81-8.34,2.29"/>
    <path class="cls-2" d="M219.94,368.92s-9.23,1.05-12.05,2.55"/>
    <path class="cls-2" d="M205.3,371.13c7.78-3.31,4.8-7.9,8.26-8,3.65-.1,1.42,2.14,1.42,2.14,0,0,2.3-5.24,4.56-4.45,2.27.78.24,2.93.24,2.93,0,0,5.15-5.57,7.46-4.34,2.3,1.23-5.79,5.45-5.79,5.45,0,0,3.95-2.44,5.04-.53,1.09,1.91-8.37,3.32-10.41,4.33,0,0,7.04-2.48,7.54-1.13.94,2.51-8.16,2.47-11.06,3.71-2.9,1.25-5.29,1.57-5.29,1.57,0,0-6.77.36-1.97-1.68Z"/>
    <path class="cls-2" d="M213.19,364.92s-.66,4.51-4.38,6.11"/>
    <path class="cls-2" d="M217.97,363.27s.11,2.54-4.78,5.61"/>
    <path class="cls-2" d="M224.77,361.27s-4.85,3.54-7.13,4.92"/>
    <path class="cls-2" d="M223.71,365.29s-5.76.81-8.34,2.29"/>
    <path class="cls-2" d="M219.94,368.92s-9.23,1.05-12.05,2.55"/>
    <path class="cls-2" d="M213.15,371.94c8.67-2.48,7.15-7.3,10.59-7.05,3.62.26.74,2.25.74,2.25,0,0,3.87-4.93,5.87-3.93,1.99.99-.67,2.91-.67,2.91,0,0,6.79-4.97,8.68-3.53,1.89,1.44-7.37,4.78-7.37,4.78,0,0,4.63-2.01,5.12-.02.49,1.99-9.26,2.43-11.58,3.23,0,0,7.69-1.74,7.77-.36.16,2.56-8.79,1.62-12.03,2.56-3.24.94-5.69,1.02-5.69,1.02,0,0-6.78-.32-1.42-1.85Z"/>
    <path class="cls-2" d="M222.83,366.61s-2.04,4.38-6.19,5.58"/>
    <path class="cls-2" d="M228.04,365.46s-.67,2.51-6.44,5.05"/>
    <path class="cls-2" d="M235.36,364.18s-5.87,3-8.53,4.14"/>
    <path class="cls-2" d="M233.07,368.02s-5.91.22-8.92,1.43"/>
    <path class="cls-2" d="M228.24,371.22s-9.41.11-12.65,1.31"/>
    <path class="cls-2" d="M213.15,371.94c8.67-2.48,7.15-7.3,10.59-7.05,3.62.26.74,2.25.74,2.25,0,0,3.87-4.93,5.87-3.93,1.99.99-.67,2.91-.67,2.91,0,0,6.79-4.97,8.68-3.53,1.89,1.44-7.37,4.78-7.37,4.78,0,0,4.63-2.01,5.12-.02.49,1.99-9.26,2.43-11.58,3.23,0,0,7.69-1.74,7.77-.36.16,2.56-8.79,1.62-12.03,2.56-3.24.94-5.69,1.02-5.69,1.02,0,0-6.78-.32-1.42-1.85Z"/>
    <path class="cls-2" d="M222.83,366.61s-2.04,4.38-6.19,5.58"/>
    <path class="cls-2" d="M228.04,365.46s-.67,2.51-6.44,5.05"/>
    <path class="cls-2" d="M235.36,364.18s-5.87,3-8.53,4.14"/>
    <path class="cls-2" d="M233.07,368.02s-5.91.22-8.92,1.43"/>
    <path class="cls-2" d="M228.24,371.22s-9.41.11-12.65,1.31"/>
    <path class="cls-2" d="M192.4,371.96c9.63-.69,11.03-5.52,14.13-4.63,3.26.94-.63,2.26-.63,2.26,0,0,6.55-3.91,7.84-2.59,1.29,1.32-2.34,2.62-2.34,2.62,0,0,9.32-3.4,10.25-1.68.94,1.72-9.76,3.11-9.76,3.11,0,0,5.55-1.01,4.84.95-.71,1.96-10.16.53-12.81.84,0,0,8.27-.17,7.53,1.14-1.35,2.45-9.24-.15-12.84.12-3.6.27-5.96-.12-5.96-.12,0,0-6.2-1.59-.25-2.01Z"/>
    <path class="cls-2" d="M204.66,368.78s-4.5,3.74-9.12,4.08"/>
    <path class="cls-2" d="M210.25,368.69s-2.11,2.24-9.03,3.54"/>
    <path class="cls-2" d="M217.89,368.87s-7.29,1.71-10.47,2.27"/>
    <path class="cls-2" d="M213.49,372.06s-5.7-.92-9.25-.35"/>
    <path class="cls-2" d="M207.05,374.15s-8.94-1.69-12.69-1.17"/>
    <path class="cls-2" d="M192.4,371.96c9.63-.69,11.03-5.52,14.13-4.63,3.26.94-.63,2.26-.63,2.26,0,0,6.55-3.91,7.84-2.59,1.29,1.32-2.34,2.62-2.34,2.62,0,0,9.32-3.4,10.25-1.68.94,1.72-9.76,3.11-9.76,3.11,0,0,5.55-1.01,4.84.95-.71,1.96-10.16.53-12.81.84,0,0,8.27-.17,7.53,1.14-1.35,2.45-9.24-.15-12.84.12-3.6.27-5.96-.12-5.96-.12,0,0-6.2-1.59-.25-2.01Z"/>
    <path class="cls-2" d="M204.66,368.78s-4.5,3.74-9.12,4.08"/>
    <path class="cls-2" d="M210.25,368.69s-2.11,2.24-9.03,3.54"/>
    <path class="cls-2" d="M217.89,368.87s-7.29,1.71-10.47,2.27"/>
    <path class="cls-2" d="M213.49,372.06s-5.7-.92-9.25-.35"/>
    <path class="cls-2" d="M207.05,374.15s-8.94-1.69-12.69-1.17"/>
    <path class="cls-2" d="M193.89,371.54c9.31-1.56,9.32-6.46,12.62-5.87,3.48.63.02,2.29.02,2.29,0,0,5.35-4.46,7-3.28,1.65,1.18-1.56,2.8-1.56,2.8,0,0,8.23-4.21,9.64-2.6,1.41,1.61-8.75,3.97-8.75,3.97,0,0,5.19-1.51,5.05.5-.14,2-9.87,1.46-12.4,2.01,0,0,8.11-.93,7.76.43-.64,2.54-9.16.7-12.64,1.3-3.48.6-5.92.43-5.92.43,0,0-6.57-1-.82-1.96Z"/>
    <path class="cls-2" d="M205.08,367.28s-3.37,4.1-7.84,4.87"/>
    <path class="cls-2" d="M210.57,366.67s-1.44,2.41-7.9,4.32"/>
    <path class="cls-2" d="M218.17,366.14s-6.71,2.36-9.68,3.21"/>
    <path class="cls-2" d="M214.72,369.7s-5.89-.38-9.23.5"/>
    <path class="cls-2" d="M208.97,372.36s-9.3-.84-12.85.02"/>
    <path class="cls-2" d="M193.89,371.54c9.31-1.56,9.32-6.46,12.62-5.87,3.48.63.02,2.29.02,2.29,0,0,5.35-4.46,7-3.28,1.65,1.18-1.56,2.8-1.56,2.8,0,0,8.23-4.21,9.64-2.6,1.41,1.61-8.75,3.97-8.75,3.97,0,0,5.19-1.51,5.05.5-.14,2-9.87,1.46-12.4,2.01,0,0,8.11-.93,7.76.43-.64,2.54-9.16.7-12.64,1.3-3.48.6-5.92.43-5.92.43,0,0-6.57-1-.82-1.96Z"/>
    <path class="cls-2" d="M205.08,367.28s-3.37,4.1-7.84,4.87"/>
    <path class="cls-2" d="M210.57,366.67s-1.44,2.41-7.9,4.32"/>
    <path class="cls-2" d="M218.17,366.14s-6.71,2.36-9.68,3.21"/>
    <path class="cls-2" d="M214.72,369.7s-5.89-.38-9.23.5"/>
    <path class="cls-2" d="M208.97,372.36s-9.3-.84-12.85.02"/>
    <path class="cls-2" d="M159.21,361c-3.12-5.23,3.9-8.05,1.15-9.25-2.9-1.26-3.3,1.31-3.3,1.31,0,0,3.32-5.06.67-5.14-2.65-.09-3.12,2.34-3.12,2.34,0,0,1.3-6.25-1.82-5.98-3.12.27-.65,6.35-.65,6.35,0,0-.82-3.28-3.62-2.06-2.8,1.22,3.6,5.43,4.27,6.92,0,0-3.34-4.3-5.1-3.36-3.28,1.77,4.27,4.66,5.42,6.62,1.15,1.96,2.8,3,2.8,3,0,0,5.23,2.48,3.3-.75Z"/>
    <path class="cls-2" d="M158.88,353.34s-3.95,3.94-2.47,6.45"/>
    <path class="cls-2" d="M156.58,350.44s-2.62,2.06-1.65,6.17"/>
    <path class="cls-2" d="M152.96,346.61s.48,4.47.98,6.35"/>
    <path class="cls-2" d="M149.84,350.26s3.95,2.52,4.6,4.58"/>
    <path class="cls-2" d="M149.34,354.46s6.57,3.84,7.4,5.98"/>
    <path class="cls-2" d="M159.21,361c-3.12-5.23,3.9-8.05,1.15-9.25-2.9-1.26-3.3,1.31-3.3,1.31,0,0,3.32-5.06.67-5.14-2.65-.09-3.12,2.34-3.12,2.34,0,0,1.3-6.25-1.82-5.98-3.12.27-.65,6.35-.65,6.35,0,0-.82-3.28-3.62-2.06-2.8,1.22,3.6,5.43,4.27,6.92,0,0-3.34-4.3-5.1-3.36-3.28,1.77,4.27,4.66,5.42,6.62,1.15,1.96,2.8,3,2.8,3,0,0,5.23,2.48,3.3-.75Z"/>
    <path class="cls-2" d="M158.88,353.34s-3.95,3.94-2.47,6.45"/>
    <path class="cls-2" d="M156.58,350.44s-2.62,2.06-1.65,6.17"/>
    <path class="cls-2" d="M152.96,346.61s.48,4.47.98,6.35"/>
    <path class="cls-2" d="M149.84,350.26s3.95,2.52,4.6,4.58"/>
    <path class="cls-2" d="M149.34,354.46s6.57,3.84,7.4,5.98"/>
    <path class="cls-2" d="M174.69,367.11c-6.14-4.28-1.3-8.32-4.62-8.89-3.5-.6-2.28,1.88-2.28,1.88,0,0,0-5.4-2.54-4.95-2.53.45-1.48,2.82-1.48,2.82,0,0-2.63-6.12-5.39-5.24-2.76.88,3.3,6.08,3.3,6.08,0,0-2.79-2.91-4.66-1.21-1.87,1.7,6.71,4.37,8.26,5.63,0,0-5.78-3.37-6.84-2.13-1.98,2.31,6.87,3.52,9.15,5.13,2.28,1.61,4.46,2.25,4.46,2.25,0,0,6.42,1.28,2.63-1.36Z"/>
    <path class="cls-2" d="M169.67,360.01s-1.28,4.47,1.65,6.53"/>
    <path class="cls-2" d="M165.73,357.74s-1.19,2.45,2.25,6.11"/>
    <path class="cls-2" d="M159.98,354.87s3.2,4.1,4.82,5.76"/>
    <path class="cls-2" d="M159.3,358.92s5.24,1.57,7.12,3.37"/>
    <path class="cls-2" d="M161.42,362.96s8.51,2.28,10.61,4.13"/>
    <path class="cls-2" d="M174.69,367.11c-6.14-4.28-1.3-8.32-4.62-8.89-3.5-.6-2.28,1.88-2.28,1.88,0,0,0-5.4-2.54-4.95-2.53.45-1.48,2.82-1.48,2.82,0,0-2.63-6.12-5.39-5.24-2.76.88,3.3,6.08,3.3,6.08,0,0-2.79-2.91-4.66-1.21-1.87,1.7,6.71,4.37,8.26,5.63,0,0-5.78-3.37-6.84-2.13-1.98,2.31,6.87,3.52,9.15,5.13,2.28,1.61,4.46,2.25,4.46,2.25,0,0,6.42,1.28,2.63-1.36Z"/>
    <path class="cls-2" d="M169.67,360.01s-1.28,4.47,1.65,6.53"/>
    <path class="cls-2" d="M165.73,357.74s-1.19,2.45,2.25,6.11"/>
    <path class="cls-2" d="M159.98,354.87s3.2,4.1,4.82,5.76"/>
    <path class="cls-2" d="M159.3,358.92s5.24,1.57,7.12,3.37"/>
    <path class="cls-2" d="M161.42,362.96s8.51,2.28,10.61,4.13"/>
    <path class="cls-2" d="M166.81,369.23c-6.88-3.9-2.78-8.2-6.18-8.58-3.59-.39-1.93,2-1.93,2,0,0-.97-5.37-3.41-4.78-2.44.59-.97,2.89-.97,2.89,0,0-3.71-5.93-6.29-4.9-2.59,1.03,4.37,5.86,4.37,5.86,0,0-3.3-2.73-4.85-.93-1.55,1.8,7.46,3.96,9.22,5.13,0,0-6.35-3.02-7.18-1.72-1.56,2.41,7.46,3.1,10.02,4.57,2.56,1.47,4.84,1.98,4.84,1.98,0,0,6.62.9,2.37-1.51Z"/>
    <path class="cls-2" d="M160.55,362.45s-.47,4.52,2.81,6.41"/>
    <path class="cls-2" d="M156.23,360.43s-.75,2.51,3.33,5.94"/>
    <path class="cls-2" d="M149.99,357.9s3.92,3.89,5.83,5.45"/>
    <path class="cls-2" d="M150.04,361.96s5.5,1.26,7.69,2.94"/>
    <path class="cls-2" d="M152.87,365.86s8.88,1.78,11.29,3.5"/>
    <path class="cls-2" d="M166.81,369.23c-6.88-3.9-2.78-8.2-6.18-8.58-3.59-.39-1.93,2-1.93,2,0,0-.97-5.37-3.41-4.78-2.44.59-.97,2.89-.97,2.89,0,0-3.71-5.93-6.29-4.9-2.59,1.03,4.37,5.86,4.37,5.86,0,0-3.3-2.73-4.85-.93-1.55,1.8,7.46,3.96,9.22,5.13,0,0-6.35-3.02-7.18-1.72-1.56,2.41,7.46,3.1,10.02,4.57,2.56,1.47,4.84,1.98,4.84,1.98,0,0,6.62.9,2.37-1.51Z"/>
    <path class="cls-2" d="M160.55,362.45s-.47,4.52,2.81,6.41"/>
    <path class="cls-2" d="M156.23,360.43s-.75,2.51,3.33,5.94"/>
    <path class="cls-2" d="M149.99,357.9s3.92,3.89,5.83,5.45"/>
    <path class="cls-2" d="M150.04,361.96s5.5,1.26,7.69,2.94"/>
    <path class="cls-2" d="M152.87,365.86s8.88,1.78,11.29,3.5"/>
    <path class="cls-2" d="M185.72,371.13c-7.78-3.31-4.8-7.9-8.26-8-3.65-.1-1.42,2.14-1.42,2.14,0,0-2.3-5.24-4.57-4.45-2.27.78-.24,2.93-.24,2.93,0,0-5.15-5.57-7.46-4.34-2.3,1.23,5.78,5.45,5.78,5.45,0,0-3.94-2.44-5.03-.53-1.09,1.91,8.37,3.32,10.41,4.33,0,0-7.04-2.48-7.54-1.13-.94,2.51,8.16,2.47,11.06,3.71,2.9,1.25,5.29,1.57,5.29,1.57,0,0,6.77.36,1.97-1.68Z"/>
    <path class="cls-2" d="M177.83,364.92s.66,4.51,4.38,6.11"/>
    <path class="cls-2" d="M173.05,363.27s-.11,2.54,4.78,5.61"/>
    <path class="cls-2" d="M166.24,361.27s4.85,3.54,7.12,4.92"/>
    <path class="cls-2" d="M167.3,365.29s5.76.81,8.34,2.29"/>
    <path class="cls-2" d="M171.08,368.92s9.23,1.05,12.05,2.55"/>
    <path class="cls-2" d="M185.72,371.13c-7.78-3.31-4.8-7.9-8.26-8-3.65-.1-1.42,2.14-1.42,2.14,0,0-2.3-5.24-4.57-4.45-2.27.78-.24,2.93-.24,2.93,0,0-5.15-5.57-7.46-4.34-2.3,1.23,5.78,5.45,5.78,5.45,0,0-3.94-2.44-5.03-.53-1.09,1.91,8.37,3.32,10.41,4.33,0,0-7.04-2.48-7.54-1.13-.94,2.51,8.16,2.47,11.06,3.71,2.9,1.25,5.29,1.57,5.29,1.57,0,0,6.77.36,1.97-1.68Z"/>
    <path class="cls-2" d="M177.83,364.92s.66,4.51,4.38,6.11"/>
    <path class="cls-2" d="M173.05,363.27s-.11,2.54,4.78,5.61"/>
    <path class="cls-2" d="M166.24,361.27s4.85,3.54,7.12,4.92"/>
    <path class="cls-2" d="M167.3,365.29s5.76.81,8.34,2.29"/>
    <path class="cls-2" d="M171.08,368.92s9.23,1.05,12.05,2.55"/>
    <path class="cls-2" d="M177.86,371.94c-8.68-2.48-7.15-7.3-10.59-7.05-3.62.26-.73,2.25-.73,2.25,0,0-3.88-4.93-5.87-3.93-1.99.99.67,2.91.67,2.91,0,0-6.79-4.97-8.68-3.53s7.37,4.78,7.37,4.78c0,0-4.63-2.01-5.12-.02-.49,1.99,9.26,2.43,11.58,3.23,0,0-7.69-1.74-7.77-.36-.16,2.56,8.79,1.62,12.03,2.56,3.24.94,5.69,1.02,5.69,1.02,0,0,6.78-.32,1.42-1.85Z"/>
    <path class="cls-2" d="M168.18,366.61s2.04,4.38,6.2,5.58"/>
    <path class="cls-2" d="M162.97,365.46s.67,2.51,6.43,5.05"/>
    <path class="cls-2" d="M155.66,364.18s5.86,3,8.53,4.14"/>
    <path class="cls-2" d="M157.94,368.02s5.92.22,8.92,1.43"/>
    <path class="cls-2" d="M162.77,371.22s9.41.11,12.65,1.31"/>
    <path class="cls-2" d="M177.86,371.94c-8.68-2.48-7.15-7.3-10.59-7.05-3.62.26-.73,2.25-.73,2.25,0,0-3.88-4.93-5.87-3.93-1.99.99.67,2.91.67,2.91,0,0-6.79-4.97-8.68-3.53s7.37,4.78,7.37,4.78c0,0-4.63-2.01-5.12-.02-.49,1.99,9.26,2.43,11.58,3.23,0,0-7.69-1.74-7.77-.36-.16,2.56,8.79,1.62,12.03,2.56,3.24.94,5.69,1.02,5.69,1.02,0,0,6.78-.32,1.42-1.85Z"/>
    <path class="cls-2" d="M168.18,366.61s2.04,4.38,6.2,5.58"/>
    <path class="cls-2" d="M162.97,365.46s.67,2.51,6.43,5.05"/>
    <path class="cls-2" d="M155.66,364.18s5.86,3,8.53,4.14"/>
    <path class="cls-2" d="M157.94,368.02s5.92.22,8.92,1.43"/>
    <path class="cls-2" d="M162.77,371.22s9.41.11,12.65,1.31"/>
    <path class="cls-2" d="M198.61,371.96c-9.63-.69-11.03-5.52-14.12-4.63-3.26.94.63,2.26.63,2.26,0,0-6.55-3.91-7.84-2.59-1.29,1.32,2.34,2.62,2.34,2.62,0,0-9.32-3.4-10.26-1.68-.94,1.72,9.76,3.11,9.76,3.11,0,0-5.55-1.01-4.84.95.71,1.96,10.15.53,12.81.84,0,0-8.27-.17-7.53,1.14,1.36,2.45,9.24-.15,12.84.12,3.6.27,5.96-.12,5.96-.12,0,0,6.2-1.59.25-2.01Z"/>
    <path class="cls-2" d="M186.35,368.78s4.5,3.74,9.12,4.08"/>
    <path class="cls-2" d="M180.77,368.69s2.11,2.24,9.03,3.54"/>
    <path class="cls-2" d="M173.12,368.87s7.29,1.71,10.47,2.27"/>
    <path class="cls-2" d="M177.53,372.06s5.7-.92,9.24-.35"/>
    <path class="cls-2" d="M183.96,374.15s8.94-1.69,12.69-1.17"/>
    <path class="cls-2" d="M198.61,371.96c-9.63-.69-11.03-5.52-14.12-4.63-3.26.94.63,2.26.63,2.26,0,0-6.55-3.91-7.84-2.59-1.29,1.32,2.34,2.62,2.34,2.62,0,0-9.32-3.4-10.26-1.68-.94,1.72,9.76,3.11,9.76,3.11,0,0-5.55-1.01-4.84.95.71,1.96,10.15.53,12.81.84,0,0-8.27-.17-7.53,1.14,1.36,2.45,9.24-.15,12.84.12,3.6.27,5.96-.12,5.96-.12,0,0,6.2-1.59.25-2.01Z"/>
    <path class="cls-2" d="M186.35,368.78s4.5,3.74,9.12,4.08"/>
    <path class="cls-2" d="M180.77,368.69s2.11,2.24,9.03,3.54"/>
    <path class="cls-2" d="M173.12,368.87s7.29,1.71,10.47,2.27"/>
    <path class="cls-2" d="M177.53,372.06s5.7-.92,9.24-.35"/>
    <path class="cls-2" d="M183.96,374.15s8.94-1.69,12.69-1.17"/>
    <path class="cls-2" d="M197.12,371.54c-9.31-1.56-9.32-6.46-12.62-5.87-3.48.63-.02,2.29-.02,2.29,0,0-5.35-4.46-7-3.28-1.65,1.18,1.56,2.8,1.56,2.8,0,0-8.23-4.21-9.64-2.6-1.41,1.61,8.75,3.97,8.75,3.97,0,0-5.19-1.51-5.05.5.14,2,9.87,1.46,12.4,2.01,0,0-8.11-.93-7.76.43.64,2.54,9.16.7,12.64,1.3,3.48.6,5.92.43,5.92.43,0,0,6.58-1,.82-1.96Z"/>
    <path class="cls-2" d="M185.93,367.28s3.37,4.1,7.84,4.87"/>
    <path class="cls-2" d="M180.45,366.67s1.44,2.41,7.9,4.32"/>
    <path class="cls-2" d="M172.85,366.14s6.71,2.36,9.69,3.21"/>
    <path class="cls-2" d="M176.29,369.7s5.89-.38,9.22.5"/>
    <path class="cls-2" d="M182.04,372.36s9.3-.84,12.86.02"/>
    <path class="cls-2" d="M197.12,371.54c-9.31-1.56-9.32-6.46-12.62-5.87-3.48.63-.02,2.29-.02,2.29,0,0-5.35-4.46-7-3.28-1.65,1.18,1.56,2.8,1.56,2.8,0,0-8.23-4.21-9.64-2.6-1.41,1.61,8.75,3.97,8.75,3.97,0,0-5.19-1.51-5.05.5.14,2,9.87,1.46,12.4,2.01,0,0-8.11-.93-7.76.43.64,2.54,9.16.7,12.64,1.3,3.48.6,5.92.43,5.92.43,0,0,6.58-1,.82-1.96Z"/>
    <path class="cls-2" d="M185.93,367.28s3.37,4.1,7.84,4.87"/>
    <path class="cls-2" d="M180.45,366.67s1.44,2.41,7.9,4.32"/>
    <path class="cls-2" d="M172.85,366.14s6.71,2.36,9.69,3.21"/>
    <path class="cls-2" d="M176.29,369.7s5.89-.38,9.22.5"/>
    <path class="cls-2" d="M182.04,372.36s9.3-.84,12.86.02"/>
    <path class="cls-2" d="M190.91,373.87c-2.73,0-4.94-1.26-4.94-2.81s2.21-2.81,4.94-2.81h9.19c2.73,0,4.95,1.26,4.95,2.81s-2.21,2.81-4.95,2.81h-9.19Z"/>
    <path class="cls-2" d="M195.51,375.3c1.48,0,2.69-.69,2.69-1.53v-5.43c0-.84-1.21-1.53-2.69-1.53s-2.69.68-2.69,1.53v5.43c0,.84,1.2,1.53,2.69,1.53Z"/>
    <path class="cls-2" d="M177.08,355.76h-3v-13.94h-2.77v-2.41h5.77v16.35h0ZM186.59,343.52c0,.47.14.85.41,1.15.27.29.63.44,1.07.44.47,0,.84-.15,1.1-.44.27-.29.4-.69.4-1.2,0-.48-.14-.87-.41-1.17-.27-.3-.63-.45-1.07-.45s-.8.16-1.08.47c-.28.31-.42.71-.42,1.21h0ZM185.87,350.91c0,.67.21,1.22.62,1.67.41.45.93.67,1.53.67.65,0,1.19-.23,1.61-.67.42-.45.63-1.01.63-1.69,0-.72-.2-1.3-.61-1.73-.41-.43-.96-.64-1.65-.64-.64,0-1.16.22-1.55.65-.39.43-.58,1.01-.58,1.74h0ZM185.29,346.63c-.57-.36-1.01-.82-1.33-1.38-.31-.56-.47-1.18-.47-1.84,0-1.18.44-2.2,1.32-3.05.88-.85,1.95-1.28,3.2-1.28,1.32,0,2.42.42,3.31,1.25.88.84,1.33,1.87,1.33,3.09,0,.69-.16,1.3-.47,1.84-.31.54-.78.99-1.39,1.36.87.46,1.52,1.03,1.95,1.71.42.69.64,1.5.64,2.43,0,1.56-.5,2.83-1.5,3.83-1,.99-2.3,1.49-3.89,1.49-1.49,0-2.74-.51-3.74-1.52-1-1.01-1.5-2.28-1.5-3.79,0-.89.21-1.66.62-2.34.41-.67,1.04-1.27,1.91-1.8h0ZM195.83,350.51h2.97v.11c0,.76.2,1.38.6,1.84.4.46.92.7,1.57.7.72,0,1.3-.26,1.75-.78.45-.52.67-1.2.67-2.03s-.25-1.48-.74-1.91c-.5-.43-1.23-.65-2.21-.65-.04,0-.12,0-.22.01-.1,0-.18.01-.23.01v-2.71c.05,0,.12,0,.22.01.09,0,.17.01.21.01.67,0,1.15-.13,1.46-.4.31-.27.46-.7.46-1.28,0-.48-.12-.86-.36-1.12-.24-.27-.58-.4-1-.4-.39,0-.69.14-.9.41-.21.27-.33.65-.35,1.15h-2.75c0-1.33.38-2.39,1.15-3.2.77-.81,1.78-1.21,3.03-1.21,1.11,0,2.06.4,2.84,1.2.78.8,1.17,1.76,1.17,2.87,0,.67-.13,1.25-.38,1.74-.26.5-.65.94-1.19,1.31.91.42,1.59,1,2.04,1.73.45.73.67,1.62.67,2.69,0,.71-.11,1.36-.33,1.96-.22.59-.56,1.16-1.01,1.7-.55.64-1.12,1.11-1.71,1.38-.6.27-1.32.41-2.17.41-1.64,0-2.92-.49-3.85-1.46-.93-.97-1.39-2.32-1.39-4.04v-.07h0ZM216.71,344.97c0-.82-.25-1.51-.76-2.08-.51-.57-1.12-.86-1.84-.86-.75,0-1.37.27-1.86.81-.49.53-.74,1.22-.74,2.05s.24,1.5.72,2.04c.48.54,1.09.8,1.84.8s1.35-.27,1.87-.81c.52-.54.78-1.19.78-1.93h0ZM214,355.76h-3.24l3.61-5.57c-.28.06-.52.1-.7.13-.18.03-.35.04-.51.04-1.3,0-2.41-.54-3.32-1.61-.91-1.07-1.36-2.38-1.36-3.92,0-.63.12-1.27.36-1.93.25-.66.58-1.25,1-1.77.58-.69,1.21-1.21,1.9-1.53.69-.33,1.48-.49,2.38-.49.77,0,1.49.14,2.17.42.68.29,1.28.7,1.8,1.24.52.53.92,1.14,1.2,1.82.28.68.43,1.38.43,2.09,0,.81-.15,1.62-.46,2.45-.3.82-.9,1.91-1.78,3.26l-3.47,5.38Z"/>
    <path class="cls-1" d="M233.04,226.88l1.44-16.18-2.73-.24-1.54,17.38c.94-.35,1.88-.7,2.84-.97Z"/>
    <path class="cls-1" d="M241.27,228.15c.2.08.39.16.59.23l-3.68-17.98-2.86.58,3.26,15.92c.92.35,1.8.87,2.69,1.24Z"/>
    <path class="cls-1" d="M236.86,226.5l-.34-15.9-2.74.06.34,15.98c.9-.17,1.81-.24,2.74-.13Z"/>
    <path class="cls-1" d="M150.01,221.79l1.82-11.4-2.71-.43-1.79,11.17c1.34.53,1.49.62,2.67.66Z"/>
    <path class="cls-1" d="M155.05,218.98c.74-.38,1.49-.63,2.25-.82l-1.76-8.11-2.68.58,1.86,8.54c.11-.06.22-.13.34-.19Z"/>
    <path class="cls-1" d="M151.85,221.95c.49-.47.97-1.4,1.45-1.82.06-.06.14-.1.2-.15v-9.61s-2.74,0-2.74,0v11.44c.33,0,1.28-.12,1.09.14Z"/>
    <g>
      <polygon class="cls-2" points="237.99 204.08 237.9 210.43 199.59 210.35 200.3 203.86 237.99 204.08"/>
      <path class="cls-1" d="M238.19,210.73h-.29s-38.64-.08-38.64-.08l.77-7.08,38.26.22-.1,6.94ZM199.92,210.05l37.69.08.08-5.76-37.13-.22-.64,5.89Z"/>
    </g>
    <g>
      <polygon class="cls-2" points="149.39 203.92 149.43 210.26 189.34 210.42 188.66 203.93 149.39 203.92"/>
      <path class="cls-1" d="M189.67,210.72l-40.54-.16-.04-6.95h39.84s.74,7.11.74,7.11ZM149.73,209.96l39.27.15-.61-5.89h-38.69s.04,5.74.04,5.74Z"/>
    </g>
    <path class="cls-2" d="M198.48,260.83c1.29-.75,2.62-.86,3.8-.53v-13.98c-1.54,1.31-3.61,1.75-6.16.41-1.57-.82-2.45-1.78-4.05-2.52-.39-.18-.78-.44-1.18-.72-.74.01-1.46-.1-2.15-.32v20.52c3.44-.1,6.75-1.11,9.74-2.85Z"/>
    <path class="cls-2" d="M188.74,226.54c1.21-.06,2.44.24,3.43.98.36.02.71.03,1.07.07,2.2.24,4.48-.06,6.64.52.96.26,1.75.63,2.41,1.09v-23.54c.24-.69,2.84-8.47,2.84-18.52s-9.21-32.62-9.31-32.84l-.08-.18h-.47l-.08.18c-.09.22-9.3,22.34-9.3,32.84s2.61,17.83,2.85,18.52v20.88ZM189,173.65c1.19-1.5,3.63-2.53,6.44-2.53,2.99,0,5.55,1.16,6.65,2.8.1.34.19.67.28,1.01-.88-1.18-3.64-2.04-6.93-2.04-3.08,0-5.7.76-6.74,1.82.1-.36.2-.71.3-1.07ZM187.5,179.51c1.44-1.83,4.47-3.09,8-3.09s6.59,1.27,8.02,3.11c.08.37.16.73.23,1.09-1.31-1.24-4.5-2.11-8.25-2.11s-6.91.87-8.23,2.1c.07-.36.15-.73.23-1.1ZM186.5,186.42c.94-2.5,4.61-4.38,9.01-4.38s8.07,1.87,9.01,4.38c0,.17.01.34.01.5-.92-1.55-4.61-2.72-9.02-2.72s-8.1,1.16-9.02,2.72c0-.16,0-.33.01-.5ZM186.73,192.55c-.01-.14-.02-.3-.03-.44.95-2.51,4.5-4.37,8.77-4.37s7.99,1.95,8.84,4.54c-.01.13-.02.27-.03.4-.9-1.57-4.5-2.75-8.81-2.75s-7.73,1.12-8.73,2.63ZM187.51,198.25c-.02-.1-.03-.19-.05-.29.73-2.47,4.06-4.34,8.08-4.34s7.26,1.82,8.05,4.25c-.02.11-.04.21-.06.32-.89-1.44-4.13-2.51-7.99-2.51s-7.19,1.1-8.03,2.57Z"/>
    <g>
      <g>
        <path class="cls-2" d="M195.04,162.46c-13.18,0-14.67-3.17-14.67-11.08,0,0,4.79.79,6.29,3.96,0,0-1.2-4.75-2.99-6.07-1.8-1.32,2.1-6.86,4.79-1.05,0,0-3-3.17-2.1-6.07.9-2.9,2.69-.26,2.1-2.64-.6-2.37-.3-3.43-1.2-5.28,0,0,5.99-3.43,7.79,6.6,0,0,4.49,0,2.4-3.43,0,0,10.48,1.32,3.89,16.36,0,0,6.88-.79,8.08-5.54,0,0,7.48,14.25-14.37,14.25Z"/>
        <path class="cls-1" d="M195.04,162.75c-13.55,0-14.97-3.47-14.97-11.38v-.35l.34.06c.17.03,3.42.59,5.43,2.61-.5-1.46-1.34-3.44-2.36-4.19-.56-.41-.73-1.18-.44-2.05.35-1.06,1.35-2.14,2.59-2.14.24,0,.48.04.71.12-.49-1.23-.59-2.36-.27-3.38.47-1.52,1.22-1.73,1.89-1.73h.08c.17,0,.23,0,.25-.01h0s.03-.14-.12-.74c-.24-.96-.34-1.72-.43-2.38-.13-.99-.23-1.77-.75-2.84l-.12-.25.24-.14s1.07-.61,2.43-.61c2.01,0,4.62,1.25,5.75,7.15.66-.05,1.88-.27,2.27-.97.27-.48.14-1.15-.38-2l-.32-.53.61.08c.14.02,3.49.47,5.27,3.61,1.68,2.96,1.37,7.22-.92,12.67,1.59-.3,6.36-1.49,7.31-5.24l.19-.75.36.68c.11.21,2.7,5.25.18,9.43-2.11,3.48-7.09,5.25-14.81,5.25ZM180.66,151.74c.04,7.4,1.51,10.42,14.38,10.42,7.5,0,12.31-1.67,14.3-4.96,1.83-3.03.71-6.68.11-8.17-1.7,4.23-7.82,4.98-8.09,5.01l-.51.06.21-.47c2.41-5.5,2.8-9.75,1.17-12.63-1.2-2.12-3.23-2.92-4.23-3.19.36.79.39,1.47.08,2.02-.71,1.27-2.94,1.28-3.04,1.28h-.25l-.04-.24c-.81-4.53-2.61-6.92-5.21-6.92-.83,0-1.54.25-1.89.41.45,1.02.56,1.83.68,2.75.08.65.18,1.38.42,2.31.17.68.17,1.04,0,1.27-.18.23-.46.23-.63.23h-.14c-.37,0-.92,0-1.33,1.31-.34,1.08-.13,2.34.61,3.74.54.47,1.04,1.18,1.48,2.12l.77,1.65-1.25-1.32s-.81-.86-1.46-2.06c-.37-.29-.76-.44-1.15-.44-.95,0-1.75.89-2.03,1.73-.2.61-.12,1.13.23,1.39,1.86,1.37,3.06,6.04,3.11,6.24l.74,2.94-1.3-2.74c-1.19-2.51-4.62-3.47-5.72-3.72Z"/>
      </g>
      <g>
        <path class="cls-2" d="M203.32,169.05c1.87,0,3.4-1.35,3.4-2.99v-1.14c0-1.65-1.53-2.99-3.4-2.99h-16.27c-1.87,0-3.39,1.35-3.39,2.99v1.14c0,1.64,1.53,2.99,3.39,2.99h16.27Z"/>
        <path class="cls-1" d="M203.32,169.35h-16.27c-2.04,0-3.69-1.47-3.69-3.29v-1.14c0-1.81,1.66-3.29,3.69-3.29h16.27c2.04,0,3.69,1.48,3.69,3.29v1.14c0,1.81-1.66,3.29-3.69,3.29ZM187.05,162.22c-1.71,0-3.1,1.21-3.1,2.7v1.14c0,1.49,1.39,2.7,3.1,2.7h16.27c1.71,0,3.1-1.21,3.1-2.7v-1.14c0-1.49-1.39-2.7-3.1-2.7h-16.27Z"/>
      </g>
    </g>
    <g>
      <path class="cls-2" d="M130.77,297.77l45.89.08-.24,4.6h-2.55c-9.68,17.25-29.76,17.42-40.61.08l-2.55.04.06-4.79Z"/>
      <path class="cls-1" d="M153.92,315.75c-8.05,0-15.63-4.71-20.82-12.93l-2.68.04.07-5.38h.29s46.2.08,46.2.08l-.27,5.19h-2.65c-4.7,8.27-12.02,13.01-20.12,13.01ZM133.42,302.22l.09.14c5.09,8.13,12.53,12.8,20.41,12.8,7.93,0,15.11-4.69,19.69-12.86l.09-.15h2.44l.21-4-45.28-.08-.05,4.19,2.41-.04Z"/>
    </g>
    <g>
      <path class="cls-2" d="M133.79,291.6c-.17.13-.36.25-.55.35l-1.5,5.72,3.02.11,1.38-6.95c-.64.43-1.43.69-2.36.76Z"/>
      <path class="cls-1" d="M135.81,291.04l-1.28,6.43-2.4-.09,1.48-5.66c-.22.15-.46.29-.72.4l-1.53,5.82,3.64.14,1.5-7.51c-.21.18-.45.33-.7.47Z"/>
    </g>
    <g>
      <path class="cls-2" d="M152.1,288.13c-.8-.2-1.47-.57-2.01-1.07l-.16,10.64h2.94l.17-8.94c-.35-.17-.66-.38-.94-.62Z"/>
      <path class="cls-1" d="M152.74,288.6l-.16,8.8h-2.35l.15-10.09c-.21-.17-.41-.35-.58-.55l-.17,11.23h3.53l.17-9.11c-.21-.08-.4-.18-.59-.29Z"/>
    </g>
    <path class="cls-1" d="M172.97,295.53c-.54.29-1.15.48-1.86.55l.39,2.01h3.09l-.46-2.89c-.37.15-.76.26-1.16.34Z"/>
    <g>
      <path class="cls-2" d="M259.85,297.94l-45.89.07.24,4.6h2.55c9.68,17.25,29.77,17.42,40.61.07l2.54.04-.06-4.78Z"/>
      <path class="cls-1" d="M236.7,315.91c-8.1,0-15.43-4.74-20.12-13.01h-2.65l-.27-5.19h.31l46.18-.08.07,5.38-2.68-.04c-5.19,8.22-12.78,12.93-20.82,12.93ZM214.48,302.31h2.44l.09.15c4.59,8.17,11.76,12.86,19.69,12.86s15.33-4.66,20.41-12.8l.09-.14,2.41.04-.05-4.19-45.28.07.21,4Z"/>
    </g>
    <g>
      <path class="cls-2" d="M216.84,290.75l-1.14,7.23,3.01.09,1.19-8.53c-.75.69-1.77,1.14-3.05,1.2Z"/>
      <path class="cls-1" d="M219.55,289.82l-1.1,7.94-2.4-.07,1.1-6.96c-.19.02-.39.03-.6.03,0,0,0,0,0,0l-1.18,7.51,3.61.1,1.28-9.18c-.2.23-.43.45-.69.64Z"/>
    </g>
    <g>
      <path class="cls-2" d="M235.83,292.51c-.21,0-.4-.01-.6-.03-.18.02-.36.03-.54.03-.18,0-.35-.01-.52-.03l-.09,5.47,3.91.16-.11-6c-.59.25-1.27.39-2.05.39Z"/>
      <path class="cls-1" d="M238.09,292.03c-.16.08-.33.15-.51.21l.1,5.57-3.3-.13.09-5.17c-.2,0-.4-.02-.59-.05l-.1,5.79,4.51.18-.12-6.41s-.06,0-.08,0Z"/>
    </g>
    <g>
      <path class="cls-2" d="M255.63,286.56c-.83.01-1.66,0-2.49-.01-.19.48-.44.94-.77,1.34l2.49,10.01,3.36-.05-2.6-11.29Z"/>
      <path class="cls-1" d="M255.93,286.55c-.2,0-.4,0-.61,0l2.53,10.99-2.76.04-2.5-10.01c-.14.2-.3.4-.47.58l2.5,10.04,3.96-.06-2.67-11.58Z"/>
    </g>
    <path class="cls-2" d="M198.36,281.82c-3.1,1.14-6.79,1.26-9.62-.57v19.95s6.49,31.91,6.49,31.91h.56l6.49-31.97v-21.8c-1.06,1.07-2.36,1.9-3.92,2.48ZM195.28,333.08l-1.16-49.45,1.37-.02.28,49.48h-.5Z"/>
    <path class="cls-1" d="M218.92,112.47c-.32,0-.61-.19-.74-.49-.09-.17-.11-.41-.04-.62l.09-.28.32-.19c.43-.19.9,0,1.09.41.09.21.1.44.02.65l-.1.27-.32.18c-.1.04-.21.07-.32.07ZM218.38,111.47c-.05.13-.05.28,0,.41.09.19.29.32.5.32v-.46l-.51-.27ZM218.92,111.58l.21.57c.15-.07.26-.19.31-.33.05-.14.04-.29-.03-.42-.07-.16-.27-.29-.49-.29v.48Z"/>
    <g>
      <polygon class="cls-2" points="223.8 93.73 226.76 105.65 238.38 109.36 227.92 116.02 227.98 128.24 218.49 120.4 206.81 124.14 211.31 112.75 204.18 102.79 216.49 103.51 223.8 93.73"/>
      <polygon class="cls-2" points="168.13 93.73 165.17 105.65 153.56 109.36 164.01 116.02 163.96 128.24 173.45 120.4 185.13 124.14 180.63 112.75 187.76 102.79 175.45 103.51 168.13 93.73"/>
      <polygon class="cls-2" points="272.67 109.82 273.09 122.1 283.68 128.14 272.07 132.48 269.58 144.44 261.93 134.8 249.73 136.03 256.49 125.82 251.59 114.61 263.49 117.87 272.67 109.82"/>
      <polygon class="cls-2" points="118.34 110.06 117.92 122.34 107.34 128.38 118.95 132.72 121.43 144.68 129.09 135.04 141.29 136.27 134.52 126.07 139.42 114.85 127.53 118.11 118.34 110.06"/>
    </g>
    <path class="cls-1" d="M121.49,282.51c.02-.05,0-.06-.03-.05,0,.07.02.1.03.05Z"/>
    <g>
      <path class="cls-1" d="M294.85,279.57c-.38-.85-2.4-1.75-2.78-2.83-.39-1.08.99-2.83.52-3.62-.17-.3-1.48.85-2.51.1-.39-.28-1.34-1.04-1.63-1.6-.29-.56-.52-.83.13-2.05.65-1.22,1.12-2.24,1.67-3.49.56-1.25-1.04-.55-1.56-1.32-.52-.78-.34-.89-.27-1.67.07-.78-.36-1.17-.5-1.85-.14-.68.15-2,0-2.73-.14-.72-.98-1.86-1.28-2.89-.3-1.03-1.77-2.76-1.42-3.9.35-1.15,2.4.45,3.37-.28.97-.73.67-4.49,1.63-4.98.97-.49,1.89,1.84,2.45,1.33.57-.5-.56-1.4-.93-1.85-.37-.44-.61-.13-1.14-.75-.47-.54-1.38-1.77-1.93-2.12-.81-.52-.31-.54-1.38-.58-1.06-.04-1.23,1.15-2.01.61-.78-.54-2.28.01-2.38-.53-.1-.54-2.07.08-2.19-.42-.11-.5-.32-1.38-.31-1.92,0-.53-1.21-1.06-1.01-1.66.21-.59-.27-.71-.11-1.55s2.04-2.88,1.79-3.68c-.26-.79-1.19-2.42-1.54-2.84-.35-.42-1.18-.36-1.56-.79-.37-.43-.34-1.61-.59-2.03-.25-.42-1.97-.12-2.47-.51-.5-.39.67-.52.47-1.04-.2-.53-.95-.28-1.45-.63-.5-.35-1.58-1.36-1.96-1.56-.38-.2-.53.11-1.08.04-.55-.07,1.31-1.24-.27-1.41-1.57-.17-.92.08-1.66.06-.74-.02-.83,2.26-1.49,2.06-.67-.2-2.72-.59-3.47-.86-.75-.26-1.52-.02-2.04.31-.51.34-.64.69-1.45.53-.81-.16-2.19-1.44-2.36-1.42-.18.02-.03.28-.5.73-.47.45-1.02,1.18-1.72,1.59-.69.41-.96,1.3-1.58,1.52-.62.22-.71.77-1.26,1-.55.23-1.26.32-1.55.44-.29.12-1.42,1.16-1.83,1.11-.41-.05-1.7.75-2.34.87-.65.12-1.92,1.38-3.07,1.38-1.15,0-3.13-1.01-3.97-1.21-.84-.21-1.27.06-1.95-.27-.68-.33-.91-.79-1.7-1.07-.8-.28-.45.22-.96.28-.51.06-.25.24-.71.27-.46.04-.83-.33-1.31-.32-.48.01-.6.35-1.05.42-.44.07-1.12,0-1.51.08-.39.09-.63.42-1.14.54-.51.12-.76.31-1.64.42-.89.11-1.52.62-2.39.39-.87-.23-1.64-.01-2.16-.22-.51-.21-.92-.35-1.37-.57-.45-.22-1.38.03-1.73-.33-.34-.36-.29-1.14-.58-1.29-.29-.16-1.14-.4-1.57-.27-.43.13-.4.72-.89.82-.48.1-.61,0-.92-.11-.31-.11-.48-.28-.8-.49-.32-.22-.65-.38-1.11-.63-.44-.24-.84.03-1.39-.35-.55-.38-.56.79-1.01-.14-.45-.93-1.08-1.7-1.71-1.92-.63-.22-1.14-.97-1.75-.94-.61.03-.82.55-1.31.74-.49.18-.88.99-1.37.75-1.18-.56-3.11-2.08-3.13-3.53-.02-1.43.25-1.1.1-1.48-.14-.38-1.16-1.39-1.56-1.49-.4-.1.02-.1-.45,0-.47.1-.71.53-1.25.57-.54.05-1.73.89-2.18.72-.71-.27-2.19-.65-2.79-1.4-.6-.75-1.73-1.87-1.86-2.7-.13-.83.95-.72.86-1.11-.08-.39-.97-.27-1.31-.55-.33-.28-.26-1.01-.92-.9-.66.1-.11.89-.8,1.23-.69.34-.36.58-1.05.58-1.71,0-.89-.14-2.33-.05-1.33.09-1.98-.18-4.19-.71-.6-.14-1.4-.2-2.24-.32-1.18-.16-3.68-.44-5.16-.87-.77-.22-.92.26-1.74.51-.82.26-1.42.8-2.07.96-.64.16-.81.29-1.44.3-.64.01-1.35.28-1.89.5-.55.22-.58-.12-1.26.02-.68.14-.15.15-.91.35-.76.2-1.32.57-1.93.94-.6.37-1.63,1.19-2.21,1.3-.58.11-.52.04-.84.18-.8.35-1.11.54-1.11.54-.28.18-1.15.62-1.45.84-.34.25-1.34.67-1.7.75-.36.08-1.63.36-2.1.61-.47.25.14.88-.34,1.29-.48.41-.67,1.25-1.53,1.44-.85.19-2.1.5-3.06.36-.95-.14-1.6-.06-2.14-.32-.54-.26-.62-.31-.91-.48-.28-.18-.17-.03-.65-.28-.48-.25-2.53-1.49-3.21-1.53-.68-.04-.83.74-1.7.82-.88.08-.68.18-1.65-.04-.98-.22-1.91-.28-2.79-.59-.88-.31-1.8-.74-2.57-.97-.77-.23-1.23-.39-1.55-.45-.33-.06-1.03-.22-1.11.09-.08.31-.55.29-.78.8-.23.5-.41,1.19-.42,1.69-.01.5.01.62.36.86.35.25.16.62.59.93.43.31,1,.91,1.58,1.17.58.26,1.07.45,1.76.75.7.3,1.45,0,2.09.37.64.38,2.09.44,1.3.8-.79.36-1.45.17-2.36-.01-.9-.18-.86-.48-1.42-.67-.57-.19-.52.55-.99.53-.46-.02-1.44-.04-1.89.06-.45.1-.97-.22-1.45-.07-.48.15-.65.04-1.07.1-.42.06-.68.55-1.06.65-.38.1-1.1-.05-1.26.42-.16.46.16.52.47.78.31.26.71.39,1.15.5.44.11,1.98.04,2.03.64.05.61-1.49.58-2.31.62-.82.04-2.12-.66-3.2-.93-1.08-.26-1.95-.33-3.3-.55-1.36-.22-2.78.45-3.66.14-.88-.31,1.62-1.29,1.18-1.51-.44-.22-1.29-.23-1.89-.46-.6-.23-.96-.34-1.87-.22-.91.12,1.43,1.17,1.42,1.95,0,.77-2,.54-2.69.56-.69.02-1.57-.85-2.21-1.13-.63-.28.04-.7-.26-1.13-.61-.87-1.09-1.01-2.69-.15-.52.28-.47.14-.87.36-.4.22-2.33-.85-2.67-.49-.35.36-.72.67-1.41,1.17-.69.5-.46.22-.95.61-.49.4-1.59.85-1.66,1.12-.07.27-.48.93-.7,1.44-.22.51-1.79-.32-1.93.27-.13.59-.4,1.38-.57,1.63-.17.26-.03,1.15-.18,1.43-.15.27.02.96-.06,1.27-.09.31-1.47,2.02-1.35,2.22.11.21.52.09.78.1.26,0,.28.38.72.34s3.1-.31,3.61-.28c3.48.2,4.46-.69,3.85.39-.32.56-1.15.99-1.44,1.18-.29.19-.29.35-.53.55-.24.2-.3.32-.57.46-.27.14-.38.33-.62.45-.23.12-.51.08-.68.22-.17.14.12.38.32.5.19.12.67-.07.99.19.31.26-.18.91.09,1.23.27.33.98.57,1.01,1.09.02.52-.6.21-.78.7-.18.49-.69.57-.25,1.03.43.47,1.8.58,2.21.91.41.33-.33.56-.67.78-.34.22-.4-.1-.76.07-.36.17.12.76-.22.95-.34.19-.83-.29-1.15-.24-.31.05-.68-.02-.79.39-.1.41,0,1.57.2,1.98.19.41.21-.56.68.01.65.78-.85,2.36,1.61,2.28.77-.03,1.46.48.97.53-.49.05-2.87-.01-3.3.02-.44.03-.57-.85-.95-.83-.39.02-.12,1.92-.38,1.52-.27-.4-.55-2.1-.51-2.54.08-1.02.2-.34-.14-1-.12-.23-.16-.72-.25-.98-.09-.27-.21-.17-.44-.37-.22-.2-.55-.34-.96-.08-.4.25-.38.36-.49.85-.11.49-.1,1.85.14,2.14.24.29.76-.31.93,0,.17.31-.23.44-.37.72-.14.27-.38.64-.75.65-.38,0-.95-.83-1.17-.23-.22.6-1.38.87-.91.77.47-.1.84.84,1.18.94.34.1.38.02.62.04.24.02.25.16.5.56.26.39.26.42.58.7.32.27.63.79.94.77.3-.02.22-.98.57-1.16.35-.18.9-.2,1.2.03.31.23.26.21.38.48.12.27.02.46.33.63.25.14.22.17.4.47.18.3-.37.25-.06.49.31.24,1.8.22,2.06.96.26.74,1.33,2.29,1,2.91-.34.62.12.92-.36,1.09-.48.17-2.04-.07-2.35.08-.31.15-.12.6.07.78.19.18.66.06.87.36.21.3,1.44.04.81.84-.63.8-.04,1.17-.08,1.59-.04.42-.2,1.28.15,1.6.35.31,1.13-.87,1.59-.6.46.27-.36.54-.22.84.13.3.59.09.71.35.12.26-.49.68-.15.9.33.22,1.2-.4,1.46-.05.26.35-.51.52-.72.76-.22.25,0,.79-.25.95-.26.16-.53.11-.9-.01-.37-.12-.62-.78-1.14-.84-.52-.06-1.06.7-1.16,1.09-.1.39.17,1.31.45,1.67.29.35,1.02-.76,1.49-.69.47.07-.19.49.23.65.42.16.64.14,1.08.2.44.05,1.16.11,1.61.13.45.02.6,0,1.1.03.5.03,1.32-.19,1.95-.11.64.08,1.15.11,1.7.18.55.07,1.1-.45,1.54.1.44.55-.44.28-.75.53-.31.25-.22.48-.48.47-.25-.02-.63.1-.83,0-.2-.1-.57.26-.78.4-.22.14-.54.41-.61.67-.06.27.9.38.62.59-.28.21-1.09.05-1.49.01-.4-.04-.54-.38-.95-.41-.41-.03-.84.04-1.18.03-.34,0-.47-.37-.72-.35-.24.02-.52.57-1.05.61-.53.04-1.32-.38-1.83-.23-.5.15-1,1.31.13,1.32,1.14.01,1.37.51,1.98.48.6-.03.98-.63,1.53-.71.55-.08.52.02,1.18.08.66.07,1.45.9,1.86,1.03.41.14.6.71.39.83-.12.07-1.95-.13-1.43.35.25.23.74.26,1.17.24.44-.02.54-.29.95-.56.4-.27.89-.64,1.24-.87.36-.23.74-.24.69-.47-.04-.23-.35-.23-.38-.48-.03-.25-.1-.4.16-.46.25-.05.74.44,1.06.45.32.01.4-.44.76-.33.36.12-.67-.71-.3-.55.37.16.43-.54.78-.27.35.27.22.84.44,1.16.22.33.65-.3,1.03-.03.38.27-.32,1.28.19,1.29.51,0,.32.36.61.12.29-.24.37.05.72.24.35.19.61.92.85,1.17.18.2.53-.14.64-.18-.02-.19-.02-.74-.07-.95-.08.01-.12,0-.09-.05.04-.06.07-.03.09.05.3-.04,1.28-.34,2.2.64,1.17,1.25-1.11.42-.86.64.25.21.08.55-.02.87-.09.32.91.01.89.34-.03.56-.46,1.66-.24,1.97.22.3.8.82,1.04,1.11.77.95,1.05,1.61,2.09,2.13,1.39.69,1.87,1.04,4.65.72.46-.05,1.69-.72,2.23-.82,2.26-.43,1.46-1.36,4.22-.13.37.17.83.11.82-.14-.01-.24.3-.9.55-1.81.2-.75.61-2.58.95-3.41.34-.83.64-1.83,1.23-1.95.59-.13,1.37.25,1.89.3.52.05,1.02-.19,1.48-.07.47.11.86.05,1.36.21.5.15.76.15,1.24.3.48.15,1.13.61,1.44.87.31.27,1.17,1.02,1.49,1.22.66.42,1.63.87,2.02,1.11.47.29,2.07,1.28,2.71,1.59.49.23.5.04,1.1.5.6.46,1.24,1.34,1.47,1.96.23.62.67,1.04.93,1.51.27.47,2.62.8,2.92,1.16.3.35-1.84.28-1.4.63.44.34,1.2.96,1.91,1.15,1.95.52,1.09,0,3.52-.04.43,0,.6.1,1.21.2.62.09.35-.24.94-.33.59-.08,1.11-.07,1.53,0,.42.06.79.14,1.24.1.45-.05,1.13.19,1.44-.03.31-.21.75-.14,1.05-.27.68-.32,1.18-.16,3.11-1.62.3-.23,1.22-.46,1.74-.81.52-.35,2.12-2.33,2.67-2.68.54-.35.92-.93,1.35-1.14.42-.21.68-.89,1.16-1.06.48-.18,1.47-1.02,1.97-1.14.5-.11,1.77,1.15,2.29,1.4.52.25.97.41,1.42.74.45.33.86.7,1.31,1.06.45.36.45.36.9.7.44.34.35.13.71.22.37.09.31-.33.74-.38.44-.05.89.24,1.39.12.5-.12.71.05.86-.23.14-.28.32-.27.17-.46-.14-.19-.15-.24.01-.51.16-.27-.39-1.04-.09-1.12.3-.07.41-.12.75-.13.34-.02.6.29,1,.19.4-.09.95-.98,1.2-1.2.25-.23.46-.6.84-.74.37-.14,1.05.21,1.42.55,1.2,1.09.6,3.17.32,3.33-.41.25-1.1.67-1.66,1.1-.56.42-1.46,1.26-1.83,1.51-.37.25-.8.66-.93.95-.13.29.25.69.46,1.31.22.62,1.06,1.62,1.21,2.28.17.74-.39,1.32-.53,1.97,0,.02.45.05,1.19.34.65.25,1.72,1.9,1.88,1.25.7-2.68,1.26-1.24,1.73-1.84.47-.6.35-.41.84-.91.5-.49-.18-2.61.47-2.85.66-.24,2.74,1.41,3.26,1.04.53-.38-.09-.59-.2-1.22-.12-.63-2.06-2.31-1.29-3.11.76-.8.41-3.32,1.09-4.07.68-.75,2.73.51,3.56.81.84.3,1.06,1.64,2.48,1.86,1.41.22,1.27.18,2.46.21,1.19.03,1.02-.81,1.91-.97.89-.17,1.72-.42,2.68-.62.96-.2,2.7-1.59,3.69-1.74.99-.14,1.76-.43,2.68-.04.92.39,1.55,2.06,2.82,2.68,1.27.62,2.22.32,4.95.64,2.73.32,5.59-.87,6.83-.96,1.25-.09,8.14-3.58,8.66-3.85.52-.26,2.99-1.62,4.22-1.46,1.23.16,1.59.63,3.54.68,1.96.05,2.52-.21,3.63-.3s2-.45,3.02-.77c1.01-.32,3.24-2.27,4.01-2.27.76-.01,1.31,2.44,2.75,2.22,1.44-.21,2.37-3.45,3.84-2.99,1.47.45,1.94-1.05,3.53-.32,1.6.73,2.71.29,3.79,1.11,1.08.81,2.56.22,3.38.53.82.31,1.28-1.86,3.28-1.47,1.99.39,1.97,1.49,1.85,1.77-.13.28-1.52,2.17-.76,2.54.75.37,1.95-1.23,2.71-1.5.76-.27,1.15-1.16,1.78-1.35.63-.19,1.05.53,1.63.18.57-.35.75-.74.37-1.59ZM187.03,275.1c-12.18,0-22.11-9.8-22.11-21.81s9.93-21.8,22.11-21.8c7.61,0,14.35,3.83,18.56,10.01-3.01-3.31-7.8-5.65-13.13-5.65-9.74,0-17.69,7.84-17.69,17.44s7.95,17.44,17.69,17.44c5.25,0,9.98-2.28,13.21-5.79-3.96,6.14-10.84,10.16-18.64,10.16ZM218.48,257.26l-4.71,6.41v-7.85s-7.74-2.52-7.74-2.52l7.75-2.44v-7.95s4.75,6.4,4.75,6.4l7.55-2.4-4.73,6.37,4.76,6.37-7.62-2.39Z"/>
      <path class="cls-1" d="M99.93,232.99c.2-.08.45-.47.65-.63.2-.16.33-.05.62-.28.28-.23.38-.8.67-1.1.29-.3.76-.47,1.07-.7.3-.22.64-.17,1.12-.57.48-.4,1.37-.92,1.82-1.24.45-.32.38-.48.74-.58.37-.09.81-.45,1.35-.54.54-.09,1.3-.33,1.83-.36.53-.03.88-.13,1.32-.3.44-.17.8-.22,1.16-.56.36-.34.64-.5,1.06-.89.42-.39,1.01-.83,1.4-1.31.39-.47.12-1.13.41-1.43.29-.3.64.23,1.09.18.44-.05.94-.44,1.66-.22.72.22.76.99,1.63.99.87,0,1.57-.94,2.27-1.2.71-.26,1.3.12,1.95.45.64.33,1.53,1.06,2.09,1.25.98.34.77.56,2.3.57.52,0,.97.39,1.52-.17.55-.56,1.82-2.07,1.9-2.85.08-.78-.74-.52-1.18-.75-.44-.23-1.01-.23-1.42-.53-.41-.3-.78-.62-1.13-.93-.36-.31-.57-.51-.96-.72-.4-.21-.79-.2-1.16-.49-.37-.28-.99-.63-1.28-.97-.29-.33-.67-.69-.92-1-.25-.31-.63-.58-.82-1.14-.19-.57-.03-1.52-.17-2.13-.13-.62-.84-1.34-.83-1.71.02-.37.29-.09.52-.04.23.05.51.63.55.09.04-.53-.36-.85-.43-1.31-.07-.45-.07-.82-.87-.6-.8.22-.84-.01-2.06-.09-1.22-.07-1.48.29-1.86.24-.38-.05-.8-.52-.96-.8-.15-.28-.98-1.45-1.39-1.75-.41-.3-.09.05-.65.24-.57.18-1.13-.23-1.8-.06-.67.17-1.26,1.05-1.76,1.01-.5-.04-1.47-.37-1.87-.32-.4.05-.41.39-.76.65-.34.26-.5.72-1.03,1.01-.53.29-1.5.3-1.86.69-.36.39-.15.92.12,1.03.28.11.17.72.48.84.31.12.8.38.93,1.06.13.69.33.81.34,1.4.01.59-.04.54-.06.85-.03.32-.17.94-.54,1.19-.36.26-.23.24-.66.35-.42.11-.56.1-.95.29-.39.19-.97.23-1.26.54-.29.31-.56.37-.57.92,0,.55.21,1.17,0,1.72-.21.55-.4.95-.85,1.28-.45.33-.18.76-.53,1.22-.35.46-2.17.98-2.15,1.56.02.58-.1.69.26.97.36.27,5.1.58,5.75.57.31,0,1.1-.24,1.34.1.24.35.61.61.33.86-.28.26-1.01.19-1.77.59-.03.02,0-.13-.04-.12-.56.23-.86.04-1.27.22-.33.14-.32.25-.69.36-.37.11-.62.25-.87.32-.25.06-.83.35-1,.49-.17.13-.9.29-.99.63-.09.33.19.44.11.81-.08.37-.09.51-.26.79-.17.28-.37.47-.54.78-.17.3-.49.72-.57.98-.08.26.19.36.39.28Z"/>
    </g>
    <path class="cls-2" d="M75.32,313.55l2.48,8.2-14.24,4.4c-2.99.92-5.35,1.35-7.07,1.3-1.72-.05-3.37-.72-4.95-2-1.57-1.29-2.74-3.19-3.5-5.72-.81-2.68-1.08-4.86-.81-6.55.27-1.69.97-3.15,2.11-4.38,1.13-1.22,2.69-2.23,4.67-2.99l3.42,7.49c-1.15.37-1.98.74-2.48,1.1-.5.37-.86.83-1.06,1.39-.14.39-.11.86.06,1.44.28.91.82,1.48,1.62,1.7.81.22,2.01.08,3.6-.41l16.16-4.99h0ZM78.32,369.68l-5.67-7.89-4.44,1.6-5.08-7.08,28.21-7.86,5.42,7.55-16.11,24.71-5.21-7.25,2.87-3.79h0ZM82.07,364.71l6.19-8.33-9.74,3.39,3.55,4.94h0ZM115.82,376.89l6.71,4.24.71,18.52,8.03-13,6.77,4.28-14.51,23.49-6.76-4.28-.73-18.39-7.97,12.9-6.75-4.27,14.51-23.49h0ZM157.93,399.84l12.3,2.64c2.42.52,4.31,1.28,5.67,2.26,1.35.99,2.39,2.21,3.1,3.66.71,1.46,1.11,3.05,1.21,4.8.09,1.75-.06,3.54-.45,5.39-.61,2.89-1.41,5.07-2.4,6.53-.98,1.46-2.17,2.6-3.56,3.42-1.38.83-2.77,1.28-4.18,1.36-1.92.1-3.62,0-5.09-.32l-12.3-2.65,5.69-27.09h0ZM164.92,407.76l-3.11,14.8,2.03.43c1.74.37,3,.45,3.82.21.81-.23,1.53-.79,2.15-1.66.61-.88,1.15-2.41,1.6-4.58.6-2.87.56-4.93-.14-6.19-.71-1.26-2.13-2.12-4.28-2.58l-2.06-.44h0ZM222.86,426.33l-9.57,1.19-.76,4.7-8.58,1.06,6.88-28.76,9.15-1.14,13.56,26.22-8.79,1.09-1.88-4.37h0ZM220.38,420.6l-4.21-9.51-1.79,10.25,5.99-.74h0ZM260.59,419.86l-13.28-24.23,12.34-6.92c2.28-1.28,4.14-2.07,5.57-2.34,1.42-.28,2.8-.1,4.13.56,1.33.66,2.42,1.76,3.26,3.3.74,1.35,1.08,2.66,1.06,3.96-.03,1.29-.38,2.52-1.04,3.68-.42.74-1.11,1.55-2.08,2.41,1.04-.2,1.85-.26,2.42-.19.37.05,1,.25,1.88.61.88.36,1.5.67,1.86.92l7.43,5.02-8.37,4.69-8.01-5.19c-1.03-.67-1.82-1.05-2.37-1.11-.73-.08-1.45.08-2.12.46l-.65.37,5.39,9.83-7.44,4.16h0ZM260.13,401.29l3.12-1.75c.34-.19.93-.66,1.78-1.43.43-.38.7-.86.79-1.44.08-.58-.02-1.13-.31-1.66-.43-.78-1-1.24-1.72-1.39-.72-.15-1.76.16-3.11.92l-3.25,1.82,2.7,4.93h0ZM284.95,371.55l7.01-8.75,15.65,7.23-10.26-13.97,6.98-8.72,21.29,17.43-4.35,5.43-16.23-13.29,12.85,17.51-3.94,4.92-19.59-9.09,16.23,13.29-4.36,5.45-21.28-17.43h0ZM341.12,318.98l-3.14,9.22,3.84,2.76-2.81,8.27-22.55-18.86,3-8.82,29.25-.83-2.88,8.47-4.72-.2h0ZM334.94,318.72l-10.3-.35,8.33,6.12,1.97-5.78Z"/>
    <path class="cls-2" d="M56.78,236.4c11.27-10.98,7.4-20.73,2.07-15.55-2.98,2.9-5.96,5.6-5.96,5.6,0,0,1.43-2.69,1.43-8.91s-1.56-11.4-4.28-11.4-4.28,5.18-4.28,11.4,1.43,8.91,1.43,8.91c0,0-2.98-2.69-5.96-5.6-5.33-5.19-9.2,4.56,2.07,15.55-16.63-11.76-14.3,1.82-4.79,10.47,3.76,3.42,9.85,8.08,11.53,8.08s7.26-4.66,11.02-8.08c9.51-8.65,12.35-22.23-4.28-10.47ZM55.61,245.31c-1.49,1.06-5.83,4.04-5.83,4.04,0,0-4.08-3.29-5.57-4.35-2.56-1.82-5.95-4.71-5.44-5.18,1.06-.99,9.46,5.49,9.46,5.49l.26-10.78c-5.19-3.83-8.29-7.36-7.52-8.08.78-.72,7.9,4.66,7.9,4.66-.26-12.54,0-15.85.91-15.85s1.17,3.31.91,15.85c0,0,7.13-5.39,7.91-4.66.78.73-2.98,4.46-8.16,8.29l-.13,10.78s9.18-6.37,10.24-5.39c.51.47-2.36,3.36-4.92,5.18Z"/>
    <path class="cls-2" d="M56.78,143.81c11.27-10.98,7.4-20.73,2.07-15.55-2.98,2.9-5.96,5.6-5.96,5.6,0,0,1.43-2.69,1.43-8.91s-1.56-11.4-4.28-11.4-4.28,5.18-4.28,11.4,1.43,8.91,1.43,8.91c0,0-2.98-2.69-5.96-5.6-5.33-5.19-9.2,4.56,2.07,15.55-16.63-11.76-14.3,1.82-4.79,10.47,3.76,3.42,9.85,8.08,11.53,8.08s7.26-4.66,11.02-8.08c9.51-8.65,12.35-22.23-4.28-10.47ZM55.61,152.73c-1.49,1.06-5.83,4.04-5.83,4.04,0,0-4.08-3.29-5.57-4.35-2.56-1.82-5.95-4.71-5.44-5.18,1.06-.99,9.46,5.49,9.46,5.49l.26-10.78c-5.19-3.83-8.29-7.36-7.52-8.08.78-.73,7.9,4.66,7.9,4.66-.26-12.54,0-15.85.91-15.85s1.17,3.31.91,15.85c0,0,7.13-5.39,7.91-4.66.78.73-2.98,4.45-8.16,8.29l-.13,10.78s9.18-6.37,10.24-5.39c.51.47-2.36,3.36-4.92,5.18Z"/>
    <path class="cls-2" d="M56.78,97.52c11.27-10.98,7.4-20.73,2.07-15.55-2.98,2.9-5.96,5.6-5.96,5.6,0,0,1.43-2.7,1.43-8.91s-1.56-11.4-4.28-11.4-4.28,5.18-4.28,11.4,1.43,8.91,1.43,8.91c0,0-2.98-2.7-5.96-5.6-5.33-5.19-9.2,4.56,2.07,15.55-16.63-11.76-14.3,1.82-4.79,10.47,3.76,3.42,9.85,8.08,11.53,8.08s7.26-4.66,11.02-8.08c9.51-8.65,12.35-22.23-4.28-10.47ZM55.61,106.43c-1.49,1.06-5.83,4.04-5.83,4.04,0,0-4.08-3.29-5.57-4.35-2.56-1.82-5.95-4.71-5.44-5.18,1.06-.99,9.46,5.49,9.46,5.49l.26-10.78c-5.19-3.83-8.29-7.36-7.52-8.08.78-.73,7.9,4.66,7.9,4.66-.26-12.54,0-15.85.91-15.85s1.17,3.31.91,15.85c0,0,7.13-5.39,7.91-4.66.78.72-2.98,4.45-8.16,8.29l-.13,10.78s9.18-6.37,10.24-5.39c.51.47-2.36,3.36-4.92,5.18Z"/>
    <path class="cls-2" d="M56.78,190.11c11.27-10.98,7.4-20.73,2.07-15.55-2.98,2.9-5.96,5.6-5.96,5.6,0,0,1.43-2.69,1.43-8.91s-1.56-11.4-4.28-11.4-4.28,5.18-4.28,11.4,1.43,8.91,1.43,8.91c0,0-2.98-2.69-5.96-5.6-5.33-5.19-9.2,4.56,2.07,15.55-16.63-11.76-14.3,1.82-4.79,10.47,3.76,3.42,9.85,8.08,11.53,8.08s7.26-4.66,11.02-8.08c9.51-8.65,12.35-22.23-4.28-10.47ZM55.61,199.02c-1.49,1.06-5.83,4.04-5.83,4.04,0,0-4.08-3.29-5.57-4.35-2.56-1.82-5.95-4.71-5.44-5.18,1.06-.99,9.46,5.49,9.46,5.49l.26-10.78c-5.19-3.83-8.29-7.36-7.52-8.08.78-.73,7.9,4.66,7.9,4.66-.26-12.54,0-15.85.91-15.85s1.17,3.31.91,15.85c0,0,7.13-5.39,7.91-4.66.78.73-2.98,4.45-8.16,8.29l-.13,10.78s9.18-6.37,10.24-5.39c.51.47-2.36,3.36-4.92,5.18Z"/>
    <path class="cls-2" d="M347.59,236.4c11.27-10.98,7.4-20.73,2.07-15.55-2.98,2.9-5.96,5.6-5.96,5.6,0,0,1.43-2.69,1.43-8.91s-1.56-11.4-4.28-11.4-4.28,5.18-4.28,11.4,1.43,8.91,1.43,8.91c0,0-2.98-2.69-5.96-5.6-5.33-5.19-9.2,4.56,2.07,15.55-16.63-11.76-14.3,1.82-4.79,10.47,3.76,3.42,9.85,8.08,11.53,8.08s7.26-4.66,11.02-8.08c9.51-8.65,12.36-22.23-4.28-10.47ZM346.43,245.31c-1.49,1.06-5.83,4.04-5.83,4.04,0,0-4.08-3.29-5.57-4.35-2.56-1.82-5.95-4.71-5.44-5.18,1.06-.99,9.46,5.49,9.46,5.49l.26-10.78c-5.19-3.83-8.29-7.36-7.52-8.08.77-.72,7.9,4.66,7.9,4.66-.26-12.54,0-15.85.91-15.85s1.17,3.31.91,15.85c0,0,7.13-5.39,7.9-4.66.78.73-2.98,4.46-8.16,8.29l-.13,10.78s9.18-6.37,10.24-5.39c.51.47-2.36,3.36-4.92,5.18Z"/>
    <path class="cls-2" d="M347.59,143.81c11.27-10.98,7.4-20.73,2.07-15.55-2.98,2.9-5.96,5.6-5.96,5.6,0,0,1.43-2.69,1.43-8.91s-1.56-11.4-4.28-11.4-4.28,5.18-4.28,11.4,1.43,8.91,1.43,8.91c0,0-2.98-2.69-5.96-5.6-5.33-5.19-9.2,4.56,2.07,15.55-16.63-11.76-14.3,1.82-4.79,10.47,3.76,3.42,9.85,8.08,11.53,8.08s7.26-4.66,11.02-8.08c9.51-8.65,12.36-22.23-4.28-10.47ZM346.43,152.73c-1.49,1.06-5.83,4.04-5.83,4.04,0,0-4.08-3.29-5.57-4.35-2.56-1.82-5.95-4.71-5.44-5.18,1.06-.99,9.46,5.49,9.46,5.49l.26-10.78c-5.19-3.83-8.29-7.36-7.52-8.08.77-.73,7.9,4.66,7.9,4.66-.26-12.54,0-15.85.91-15.85s1.17,3.31.91,15.85c0,0,7.13-5.39,7.9-4.66.78.73-2.98,4.45-8.16,8.29l-.13,10.78s9.18-6.37,10.24-5.39c.51.47-2.36,3.36-4.92,5.18Z"/>
    <path class="cls-2" d="M347.59,97.52c11.27-10.98,7.4-20.73,2.07-15.55-2.98,2.9-5.96,5.6-5.96,5.6,0,0,1.43-2.7,1.43-8.91s-1.56-11.4-4.28-11.4-4.28,5.18-4.28,11.4,1.43,8.91,1.43,8.91c0,0-2.98-2.7-5.96-5.6-5.33-5.19-9.2,4.56,2.07,15.55-16.63-11.76-14.3,1.82-4.79,10.47,3.76,3.42,9.85,8.08,11.53,8.08s7.26-4.66,11.02-8.08c9.51-8.65,12.36-22.23-4.28-10.47ZM346.43,106.43c-1.49,1.06-5.83,4.04-5.83,4.04,0,0-4.08-3.29-5.57-4.35-2.56-1.82-5.95-4.71-5.44-5.18,1.06-.99,9.46,5.49,9.46,5.49l.26-10.78c-5.19-3.83-8.29-7.36-7.52-8.08.77-.73,7.9,4.66,7.9,4.66-.26-12.54,0-15.85.91-15.85s1.17,3.31.91,15.85c0,0,7.13-5.39,7.9-4.66.78.72-2.98,4.45-8.16,8.29l-.13,10.78s9.18-6.37,10.24-5.39c.51.47-2.36,3.36-4.92,5.18Z"/>
    <path class="cls-2" d="M347.59,190.11c11.27-10.98,7.4-20.73,2.07-15.55-2.98,2.9-5.96,5.6-5.96,5.6,0,0,1.43-2.69,1.43-8.91s-1.56-11.4-4.28-11.4-4.28,5.18-4.28,11.4,1.43,8.91,1.43,8.91c0,0-2.98-2.69-5.96-5.6-5.33-5.19-9.2,4.56,2.07,15.55-16.63-11.76-14.3,1.82-4.79,10.47,3.76,3.42,9.85,8.08,11.53,8.08s7.26-4.66,11.02-8.08c9.51-8.65,12.36-22.23-4.28-10.47ZM346.43,199.02c-1.49,1.06-5.83,4.04-5.83,4.04,0,0-4.08-3.29-5.57-4.35-2.56-1.82-5.95-4.71-5.44-5.18,1.06-.99,9.46,5.49,9.46,5.49l.26-10.78c-5.19-3.83-8.29-7.36-7.52-8.08.77-.73,7.9,4.66,7.9,4.66-.26-12.54,0-15.85.91-15.85s1.17,3.31.91,15.85c0,0,7.13-5.39,7.9-4.66.78.73-2.98,4.45-8.16,8.29l-.13,10.78s9.18-6.37,10.24-5.39c.51.47-2.36,3.36-4.92,5.18Z"/>
  </g>
  <rect class="cls-1" x="509.2" y="104" width="6.18" height="250.51"/>
</svg>