<?xml version="1.0" encoding="UTF-8"?>
<svg id="katman_1" data-name="katman 1" xmlns="http://www.w3.org/2000/svg" viewBox="0 0 1080 871.92">
  <defs>
    <style>
      .cls-1 {
        fill: #fff;
      }
    </style>
  </defs>
  <path class="cls-1" d="M1071.12,581.02h-248.91c-2.86,0-5.17,2.32-5.17,5.17v17.49c0,17.23-1.47,33.82-4.27,49.74-.56,3.18,1.84,6.1,5.07,6.1h253.28c2.86,0,5.17-2.32,5.17-5.17v-68.16c0-2.86-2.32-5.17-5.17-5.17Z"/>
  <path class="cls-1" d="M1068.71,200.98h-400.23c-56.68,0-121.49,27.42-161.37,67.3l-70.53,70.53c-4.78,4.78-12.94,1.39-12.94-5.36v-124.88c0-4.19-3.39-7.58-7.58-7.58h-63.34c-4.19,0-7.58,3.39-7.58,7.58v443.37c0,4.19,3.39,7.58,7.58,7.58h63.34c4.19,0,7.58-3.39,7.58-7.58v-125.41c0-6.77,8.2-10.15,12.96-5.34l70.51,71.05c38.58,39.2,100.5,65.52,155.82,67.19,2.96.09,5.73-1.59,6.98-4.28,7.77-16.79,11.96-36.38,11.96-58.31v-10.05c0-3.85-2.89-7.02-6.71-7.51-50.16-6.48-102.27-30.99-136.28-65.54l-76.97-78.13c-2.92-2.96-2.91-7.71.02-10.66l76.96-77.55c39.87-40.48,104.66-67.29,161.98-67.29h367.84c4.19,0,7.58-3.39,7.58-7.58v-63.95c0-4.19-3.39-7.58-7.58-7.58Z"/>
  <path class="cls-1" d="M715.36,85.05h68.19c2.84,0,5.15,2.31,5.15,5.15v68.19c0,2.84-2.31,5.15-5.15,5.15h-68.19c-2.84,0-5.15-2.31-5.15-5.15v-68.19c0-2.84,2.31-5.15,5.15-5.15Z"/>
  <rect class="cls-1" x="785.83" y="9.42" width="78.5" height="78.5" rx="5.15" ry="5.15"/>
  <path class="cls-1" d="M781.16,317.52h-63.41c-4.17,0-7.54,3.38-7.54,7.54v271.77c0,90.35-60.44,150.77-150.15,150.77h-107.27c-60.34,5.67-66.47,34.17-66.47,34.17v-.3s-.02.3-.02.3c0,0-6.13-28.5-66.47-34.17h-89.33c-89.59,0-149.36-60.26-149.52-150.4h0v-8.63c0-4.17-3.38-7.54-7.54-7.54H10c-4.17,0-7.54,3.38-7.54,7.54v8.63h0c.16,136.87,91.07,228.91,228.02,228.91h66.42c14.76,0,29.33,5.15,39.9,15.44,4.95,4.81,8.91,10.54,10.92,17.29,1.6,5.38,6.26,9.27,11.87,9.27h54.58c5.61,0,10.27-3.89,11.87-9.27,2.01-6.76,5.98-12.48,10.92-17.29,10.58-10.29,25.14-15.44,39.9-15.44h83.17c135.19,0,228.66-89.71,228.66-222.42v-278.62c0-4.17-3.38-7.54-7.54-7.54Z"/>
</svg>