<?xml version="1.0" encoding="UTF-8"?>
<svg id="katman_1" data-name="katman 1" xmlns="http://www.w3.org/2000/svg" viewBox="0 0 1080 138.89">
  <defs>
    <style>
      .cls-1 {
        fill: #fff;
      }
    </style>
  </defs>
  <path class="cls-1" d="M32.67,71.94c0,19.05,12.61,31.78,31.52,31.78h69.47c18.91,0,31.65-12.74,31.65-31.78V23.61h16.55v49.77c0,27.97-19.7,46.89-48.2,46.89h-69.47c-28.89,0-48.07-19.44-48.07-48.33h16.55Z"/>
  <path class="cls-1" d="M357.63,23.61h16.55l132.51,77.49V23.61h16.55v96.66h-16.55l-132.51-77.09v77.09h-16.55V23.61Z"/>
  <path class="cls-1" d="M544.35,23.61h16.55v31.78l17.6-17.6c8.41-8.41,22.07-14.19,34.02-14.19h97.58v16.68h-90.75c-12.08,0-25.74,5.65-34.14,14.19l-17.33,17.47,17.33,17.6c8.41,8.54,22.06,14.19,34.14,14.19h90.75v16.55h-97.58c-11.95,0-25.61-5.65-34.02-14.19l-17.6-17.73v31.91h-16.55V23.61Z"/>
  <path class="cls-1" d="M716.09,71.81c0-28.76,19.17-48.2,48.07-48.2h69.47c28.89,0,48.07,19.44,48.07,48.2s-19.17,48.46-48.07,48.46h-69.47c-28.89,0-48.07-19.57-48.07-48.46ZM764.16,103.72h69.47c18.91,0,31.52-12.74,31.52-31.78s-12.61-31.65-31.52-31.65h-69.47c-18.91,0-31.52,12.61-31.52,31.65s12.61,31.78,31.52,31.78Z"/>
  <path class="cls-1" d="M898.34,23.61h117.54c28.89,0,48.07,19.44,48.07,48.2s-19.17,48.46-48.07,48.46h-117.54V23.61ZM914.89,103.72h100.99c18.91,0,31.52-12.74,31.52-31.78s-12.61-31.65-31.52-31.65h-100.99v63.43Z"/>
  <polygon class="cls-1" points="273.49 23.74 273.62 23.61 252.87 23.61 252.87 23.74 180.38 120.27 201.12 120.27 221.75 92.69 234.22 76.14 263.11 37.66 292.14 76.14 304.62 92.69 325.23 120.27 345.98 120.27 273.49 23.74"/>
</svg>