<?xml version="1.0" encoding="UTF-8"?>
<svg id="katman_1" data-name="katman 1" xmlns="http://www.w3.org/2000/svg" viewBox="0 0 532.66 361.21">
  <defs>
    <style>
      .cls-1 {
        fill: #fff;
      }
    </style>
  </defs>
  <g>
    <path class="cls-1" d="M273.69,82.36c-2.04,1.84-2.56,4.83-1.26,7.26l1.18,2.21,49.58-44.61c1.26-1.13,1.98-2.75,1.98-4.45v-6.97l-51.48,46.56Z"/>
    <path class="cls-1" d="M287.56,117.95l1.6,3,34.05-30.92c1.25-1.13,1.96-2.74,1.96-4.43v-7.71l-36.34,32.79c-2.04,1.84-2.57,4.84-1.27,7.26Z"/>
    <path class="cls-1" d="M279.8,103.43l1.55,2.91,41.83-37.64c1.26-1.13,1.98-2.75,1.98-4.45v-7.87l-44.09,39.78c-2.04,1.84-2.56,4.84-1.27,7.26Z"/>
  </g>
  <g>
    <path class="cls-1" d="M271.77,129.07l-12.48-22.91c-2.09-3.83-7.21-4.71-10.45-1.79l-114.49,102.95c-5.6,5.04-14-1.48-10.51-8.16l51.65-98.87c2.5-4.79,9.34-4.85,11.93-.1l8.38,15.39c2.09,3.84,7.23,4.71,10.47,1.78l19.73-17.88c2.3-2.08,2.88-5.46,1.42-8.19l-33.68-63.07c-4.3-8.04-15.82-8.07-20.14-.04L24.15,305.57c-8.15,15.13,2.81,33.47,19.99,33.47,1.67,0,3.28-.62,4.53-1.74l179.68-161.96.02.03,42.01-38.06c2.31-2.1,2.89-5.5,1.4-8.24Z"/>
    <path class="cls-1" d="M270.63,172.21c-1.83-3.44-6.41-4.23-9.3-1.62l-20.33,18.42c-2.05,1.86-2.56,4.87-1.24,7.3l76.05,139.61c1.05,1.92,3.06,3.12,5.26,3.12h28.67c4.52,0,7.41-4.82,5.28-8.8l-84.39-158.03Z"/>
    <path class="cls-1" d="M443.97,179.24h-112.81c-3.31,0-5.98-2.68-5.98-5.98v-46.74c0-5.18-6.13-7.91-9.98-4.45l-17.73,15.94c-1.26,1.13-1.98,2.75-1.98,4.45v28.48c0,1,.25,1.98.73,2.86l17.44,32.02c1.05,1.92,3.06,3.12,5.26,3.12h125.07c3.31,0,5.98-2.68,5.98-5.98v-17.73c0-3.31-2.68-5.98-5.98-5.98Z"/>
    <path class="cls-1" d="M505.27,35.8h-23.96c-2.27.51-4.2,1.98-5.31,4.02l-34.97,64.1c-1.07,1.97-2.59,3.67-4.42,4.96h0c-3.62,2.56-8.46,2.56-12.09,0-1.83-1.29-3.34-2.99-4.42-4.96l-34.97-64.1c-1.11-2.04-3.05-3.5-5.31-4.02h-23.96c-3.31,0-5.98,2.68-5.98,5.98v105.92c0,3.31,2.68,5.98,5.98,5.98h26.89l-.24-4.69v-27.06c0-6.21,8.3-8.31,11.25-2.84l16.97,31.45c1.04,1.94,3.07,3.14,5.27,3.14h29.12c2.2,0,4.22-1.21,5.27-3.14l16.97-31.45c2.95-5.47,11.25-3.37,11.25,2.84v27.06l-.24,59.94h26.89c3.31,0,5.98-2.68,5.98-5.98V41.78c0-3.31-2.68-5.98-5.98-5.98Z"/>
  </g>
</svg>