<?xml version="1.0" encoding="UTF-8"?>
<svg id="katman_1" data-name="katman 1" xmlns="http://www.w3.org/2000/svg" xmlns:xlink="http://www.w3.org/1999/xlink" viewBox="0 0 1080 361.21">
  <defs>
    <style>
      .cls-1 {
        fill: url(#Adsız_degrade_82);
      }

      .cls-2 {
        fill: url(#Adsız_degrade_82-4);
      }

      .cls-3 {
        fill: url(#Adsız_degrade_89-2);
      }

      .cls-4 {
        fill: url(#Adsız_degrade_89);
      }

      .cls-5 {
        fill: #24234f;
      }

      .cls-6 {
        fill: url(#Adsız_degrade_89-3);
      }

      .cls-7 {
        fill: url(#Adsız_degrade_82-3);
      }

      .cls-8 {
        fill: url(#Adsız_degrade_82-2);
      }
    </style>
    <linearGradient id="Adsız_degrade_89" data-name="Adsız degrade 89" x1="256.81" y1="149.92" x2="292.75" y2="66.39" gradientUnits="userSpaceOnUse">
      <stop offset="0" stop-color="#000"/>
      <stop offset="1" stop-color="#e42320"/>
    </linearGradient>
    <linearGradient id="Adsız_degrade_89-2" data-name="Adsız degrade 89" x1="275.15" y1="157.81" x2="311.09" y2="74.27" xlink:href="#Adsız_degrade_89"/>
    <linearGradient id="Adsız_degrade_89-3" data-name="Adsız degrade 89" x1="265.86" y1="153.81" x2="301.8" y2="70.28" xlink:href="#Adsız_degrade_89"/>
    <linearGradient id="Adsız_degrade_82" data-name="Adsız degrade 82" x1="-70.27" y1="25.35" x2="386.21" y2="412.03" gradientUnits="userSpaceOnUse">
      <stop offset="0" stop-color="#28316f"/>
      <stop offset=".35" stop-color="#27306c"/>
      <stop offset=".54" stop-color="#262e64"/>
      <stop offset=".68" stop-color="#242b57"/>
      <stop offset=".8" stop-color="#222744"/>
      <stop offset=".91" stop-color="#1f212c"/>
      <stop offset=".96" stop-color="#1d1e1c"/>
    </linearGradient>
    <linearGradient id="Adsız_degrade_82-2" data-name="Adsız degrade 82" x1="-35.76" y1="-23.74" x2="428.92" y2="369.9" xlink:href="#Adsız_degrade_82"/>
    <linearGradient id="Adsız_degrade_82-3" data-name="Adsız degrade 82" x1="27.33" y1="-98.21" x2="492.01" y2="295.42" xlink:href="#Adsız_degrade_82"/>
    <linearGradient id="Adsız_degrade_82-4" data-name="Adsız degrade 82" x1="93.36" y1="-176.16" x2="558.04" y2="217.47" xlink:href="#Adsız_degrade_82"/>
  </defs>
  <g>
    <path class="cls-5" d="M674.52,115.68l-2.05-3.77c-.34-.63-1.19-.77-1.72-.29l-18.83,16.93c-.92.83-2.3-.24-1.73-1.34l8.49-16.26c.41-.79,1.54-.8,1.96-.02l1.38,2.53c.34.63,1.19.78,1.72.29l3.24-2.94c.38-.34.47-.9.23-1.35l-5.54-10.37c-.71-1.32-2.6-1.33-3.31,0l-24.58,45.62c-1.34,2.49.46,5.5,3.29,5.5h0c.27,0,.54-.1.74-.29l29.55-26.64h0s6.91-6.25,6.91-6.25c.38-.34.48-.9.23-1.36Z"/>
    <path class="cls-5" d="M674.33,122.78c-.3-.57-1.05-.7-1.53-.27l-3.34,3.03c-.34.31-.42.8-.2,1.2l12.51,22.96c.17.32.5.51.86.51h4.72c.74,0,1.22-.79.87-1.45l-13.88-25.99Z"/>
    <path class="cls-5" d="M674.82,109.56l8.15-7.34c.21-.19.33-.45.33-.73v-1.15l-8.47,7.66c-.33.3-.42.8-.21,1.19l.19.36Z"/>
    <path class="cls-5" d="M677.12,113.86l.26.49,5.6-5.08c.21-.19.32-.45.32-.73v-1.27l-5.98,5.39c-.34.3-.42.8-.21,1.19Z"/>
    <path class="cls-5" d="M683.3,103.73l-7.25,6.54c-.34.3-.42.8-.21,1.19l.26.48,6.88-6.19c.21-.19.33-.45.33-.73v-1.29Z"/>
  </g>
  <path class="cls-5" d="M783.1,98.46h-4.56c-.91,0-1.65.74-1.65,1.65v48.46c0,.91.74,1.65,1.65,1.65h32.41c.91,0,1.65-.74,1.65-1.65v-4.14c0-.91-.74-1.65-1.65-1.65h-24.55c-.91,0-1.65-.74-1.65-1.65v-41.03c0-.91-.74-1.65-1.65-1.65Z"/>
  <rect class="cls-5" x="903.89" y="111.55" width="8.42" height="38.67" rx="1.76" ry="1.76"/>
  <rect class="cls-5" x="903.89" y="98.1" width="8.42" height="8.63" rx="1.76" ry="1.76"/>
  <path class="cls-5" d="M1043.82,99.16l-15.62,23.39c-.63.95-2.02.95-2.65,0l-15.62-23.39c-.3-.44-.79-.71-1.33-.71h-4.96c-.88,0-1.6.71-1.6,1.6v48.57c0,.88.71,1.6,1.6,1.6h4.53c.88,0,1.6-.71,1.6-1.6v-30.69c0-1.57,2.03-2.2,2.91-.9l13.37,19.61h1.49l13.37-19.66c.88-1.3,2.91-.67,2.91.9v30.74c0,.88.71,1.6,1.6,1.6h4.67c.88,0,1.6-.71,1.6-1.6v-48.57c0-.88-.71-1.6-1.6-1.6h-4.96c-.53,0-1.03.27-1.33.71Z"/>
  <g>
    <g>
      <path class="cls-4" d="M267.92,86.16c-1.93,1.75-2.43,4.59-1.2,6.89l1.12,2.1,47.09-42.37c1.2-1.08,1.88-2.61,1.88-4.23v-6.62l-48.89,44.22Z"/>
      <path class="cls-3" d="M281.09,119.96l1.52,2.85,32.34-29.36c1.19-1.08,1.86-2.61,1.86-4.21v-7.32l-34.52,31.14c-1.94,1.75-2.44,4.59-1.21,6.9Z"/>
      <path class="cls-6" d="M273.73,106.17l1.48,2.76,39.73-35.75c1.2-1.08,1.88-2.61,1.88-4.23v-7.47l-41.88,37.79c-1.94,1.75-2.44,4.59-1.21,6.9Z"/>
    </g>
    <g>
      <path class="cls-1" d="M264.1,126.86l-6.66-12.22c-3.62-6.64-12.49-8.16-18.12-3.11l-81.95,73.68c-9.7,8.73-24.26-2.57-18.21-14.13l30.88-59.1c4.34-8.3,16.19-8.41,20.67-.18h0c3.63,6.66,12.53,8.17,18.15,3.08l10.69-9.69c3.98-3.61,5-9.46,2.47-14.2l-25.39-47.55c-6.07-11.37-22.35-11.39-28.46-.05L30.92,298.16c-7.12,13.21,1.11,29.01,15.18,31.46,3.52.61,7.14-.45,9.79-2.85l168.97-152.31.02.03,36.81-33.36c4.01-3.63,5.01-9.53,2.42-14.28Z"/>
      <path class="cls-8" d="M265.01,171.5c-1.74-3.26-6.09-4.02-8.83-1.53l-19.31,17.5c-1.94,1.76-2.43,4.63-1.17,6.93l72.22,132.59c1,1.83,2.91,2.96,4.99,2.96h27.23c4.29,0,7.04-4.57,5.01-8.36l-80.15-150.09Z"/>
      <path class="cls-7" d="M429.64,178.18h-107.15c-3.14,0-5.68-2.54-5.68-5.68v-44.39c0-4.92-5.82-7.52-9.48-4.23l-16.84,15.13c-1.2,1.08-1.88,2.61-1.88,4.23v27.05c0,.95.24,1.88.69,2.72l16.57,30.41c1,1.83,2.91,2.97,4.99,2.97h118.79c3.14,0,5.68-2.54,5.68-5.68v-16.84c0-3.14-2.54-5.68-5.68-5.68Z"/>
      <path class="cls-2" d="M487.86,41.94h-22.75c-2.15.49-3.99,1.88-5.05,3.81l-33.21,60.88c-1.02,1.87-2.46,3.48-4.2,4.71h0c-3.44,2.43-8.04,2.43-11.48,0-1.74-1.23-3.18-2.84-4.2-4.71l-33.21-60.88c-1.06-1.94-2.9-3.33-5.05-3.81h-22.75c-3.14,0-5.68,2.54-5.68,5.68v100.6c0,3.14,2.54,5.68,5.68,5.68h25.54l-.23-4.45v-25.7c0-5.9,7.88-7.89,10.69-2.7l16.12,29.87c.99,1.84,2.91,2.98,5,2.98h27.66c2.09,0,4.01-1.15,5-2.98l16.12-29.87c2.8-5.19,10.69-3.2,10.69,2.7v25.7l-.23,56.93h25.54c3.14,0,5.68-2.54,5.68-5.68V47.62c0-3.14-2.54-5.68-5.68-5.68Z"/>
    </g>
  </g>
  <rect class="cls-5" x="561.63" y="41.94" width="4.2" height="164.45"/>
</svg>